<?xml version="1.0" encoding="UTF-8" standalone="no"?>
<!DOCTYPE svg PUBLIC "-//W3C//DTD SVG 1.1//EN"
 "http://www.w3.org/Graphics/SVG/1.1/DTD/svg11.dtd">
<!-- Generated by graphviz version 2.43.0 (0)
 -->
<!-- Title: %3 Pages: 1 -->
<svg width="518pt" height="936pt"
 viewBox="0.00 0.00 517.50 936.00" xmlns="http://www.w3.org/2000/svg" xmlns:xlink="http://www.w3.org/1999/xlink">
<g id="graph0" class="graph" transform="scale(1 1) rotate(0) translate(4 932)">
<title>%3</title>
<g id="a_graph0"><a xlink:title=" ">
<polygon fill="#e8cadb" stroke="transparent" points="-4,4 -4,-932 513.5,-932 513.5,4 -4,4"/>
</a>
</g>
<!-- (below main) -->
<g id="node1" class="node">
<title>(below main)</title>
<polygon fill="#ff0000" stroke="#ff0000" points="248,-825 176,-825 176,-762 248,-762 248,-825"/>
<text text-anchor="middle" x="212" y="-813" font-family="Arial" font-size="10.00" fill="#ffffff">miniRT</text>
<text text-anchor="middle" x="212" y="-802" font-family="Arial" font-size="10.00" fill="#ffffff">(below main)</text>
<text text-anchor="middle" x="212" y="-791" font-family="Arial" font-size="10.00" fill="#ffffff">99.99%</text>
<text text-anchor="middle" x="212" y="-780" font-family="Arial" font-size="10.00" fill="#ffffff">(0.00%)</text>
<text text-anchor="middle" x="212" y="-769" font-family="Arial" font-size="10.00" fill="#ffffff">2×</text>
</g>
<!-- main -->
<g id="node2" class="node">
<title>main</title>
<polygon fill="#ff0000" stroke="#ff0000" points="237,-722 187,-722 187,-659 237,-659 237,-722"/>
<text text-anchor="middle" x="212" y="-710" font-family="Arial" font-size="10.00" fill="#ffffff">miniRT</text>
<text text-anchor="middle" x="212" y="-699" font-family="Arial" font-size="10.00" fill="#ffffff">main</text>
<text text-anchor="middle" x="212" y="-688" font-family="Arial" font-size="10.00" fill="#ffffff">99.99%</text>
<text text-anchor="middle" x="212" y="-677" font-family="Arial" font-size="10.00" fill="#ffffff">(0.00%)</text>
<text text-anchor="middle" x="212" y="-666" font-family="Arial" font-size="10.00" fill="#ffffff">1×</text>
</g>
<!-- (below main)&#45;&gt;main -->
<g id="edge1" class="edge">
<title>(below main)&#45;&gt;main</title>
<path fill="none" stroke="#ff0000" stroke-width="4" d="M212,-761.92C212,-752.61 212,-742.23 212,-732.36"/>
<polygon fill="#ff0000" stroke="#ff0000" stroke-width="4" points="215.5,-732.32 212,-722.32 208.5,-732.32 215.5,-732.32"/>
<text text-anchor="middle" x="229" y="-745" font-family="Arial" font-size="10.00" fill="#ff0000">99.99%</text>
<text text-anchor="middle" x="229" y="-734" font-family="Arial" font-size="10.00" fill="#ff0000">1×</text>
</g>
<!-- __init__ -->
<g id="node8" class="node">
<title>__init__</title>
<polygon fill="#0d277a" stroke="#0d277a" points="205,-619 155,-619 155,-556 205,-556 205,-619"/>
<text text-anchor="middle" x="180" y="-607" font-family="Arial" font-size="10.00" fill="#ffffff">miniRT</text>
<text text-anchor="middle" x="180" y="-596" font-family="Arial" font-size="10.00" fill="#ffffff">__init__</text>
<text text-anchor="middle" x="180" y="-585" font-family="Arial" font-size="10.00" fill="#ffffff">5.95%</text>
<text text-anchor="middle" x="180" y="-574" font-family="Arial" font-size="10.00" fill="#ffffff">(0.00%)</text>
<text text-anchor="middle" x="180" y="-563" font-family="Arial" font-size="10.00" fill="#ffffff">1×</text>
</g>
<!-- main&#45;&gt;__init__ -->
<g id="edge13" class="edge">
<title>main&#45;&gt;__init__</title>
<path fill="none" stroke="#0d277a" stroke-width="0.5" d="M202.31,-658.92C198.71,-647.56 194.6,-634.59 190.9,-622.9"/>
<polygon fill="#0d277a" stroke="#0d277a" stroke-width="0.5" points="191.99,-622.29 189.77,-619.32 189.65,-623.03 191.99,-622.29"/>
<text text-anchor="middle" x="213" y="-642" font-family="Arial" font-size="10.00" fill="#0d277a">5.95%</text>
<text text-anchor="middle" x="213" y="-631" font-family="Arial" font-size="10.00" fill="#0d277a">1×</text>
</g>
<!-- start_rays -->
<g id="node15" class="node">
<title>start_rays</title>
<polygon fill="#f63e02" stroke="#f63e02" points="277,-619 217,-619 217,-556 277,-556 277,-619"/>
<text text-anchor="middle" x="247" y="-607" font-family="Arial" font-size="10.00" fill="#ffffff">miniRT</text>
<text text-anchor="middle" x="247" y="-596" font-family="Arial" font-size="10.00" fill="#ffffff">start_rays</text>
<text text-anchor="middle" x="247" y="-585" font-family="Arial" font-size="10.00" fill="#ffffff">93.79%</text>
<text text-anchor="middle" x="247" y="-574" font-family="Arial" font-size="10.00" fill="#ffffff">(0.82%)</text>
<text text-anchor="middle" x="247" y="-563" font-family="Arial" font-size="10.00" fill="#ffffff">1×</text>
</g>
<!-- main&#45;&gt;start_rays -->
<g id="edge14" class="edge">
<title>main&#45;&gt;start_rays</title>
<path fill="none" stroke="#f63e02" stroke-width="3.75" d="M223.78,-658.93C224.88,-655.92 225.98,-652.91 227,-650 229.41,-643.16 231.88,-635.85 234.22,-628.75"/>
<polygon fill="#f63e02" stroke="#f63e02" stroke-width="3.75" points="237.54,-629.53 237.32,-619.26 231.08,-627.42 237.54,-629.53"/>
<text text-anchor="middle" x="252" y="-642" font-family="Arial" font-size="10.00" fill="#f63e02">93.79%</text>
<text text-anchor="middle" x="252" y="-631" font-family="Arial" font-size="10.00" fill="#f63e02">1×</text>
</g>
<!-- 0x0000000000020290 -->
<g id="node3" class="node">
<title>0x0000000000020290</title>
<polygon fill="#ff0000" stroke="#ff0000" points="267.5,-928 156.5,-928 156.5,-865 267.5,-865 267.5,-928"/>
<text text-anchor="middle" x="212" y="-916" font-family="Arial" font-size="10.00" fill="#ffffff">ld&#45;linux&#45;x86&#45;64.so.2</text>
<text text-anchor="middle" x="212" y="-905" font-family="Arial" font-size="10.00" fill="#ffffff">0x0000000000020290</text>
<text text-anchor="middle" x="212" y="-894" font-family="Arial" font-size="10.00" fill="#ffffff">100.00%</text>
<text text-anchor="middle" x="212" y="-883" font-family="Arial" font-size="10.00" fill="#ffffff">(0.00%)</text>
<text text-anchor="middle" x="212" y="-872" font-family="Arial" font-size="10.00" fill="#ffffff">0×</text>
</g>
<!-- 0x0000000000020290&#45;&gt;(below main) -->
<g id="edge2" class="edge">
<title>0x0000000000020290&#45;&gt;(below main)</title>
<path fill="none" stroke="#ff0000" stroke-width="4" d="M212,-864.92C212,-855.61 212,-845.23 212,-835.36"/>
<polygon fill="#ff0000" stroke="#ff0000" stroke-width="4" points="215.5,-835.32 212,-825.32 208.5,-835.32 215.5,-835.32"/>
<text text-anchor="middle" x="229" y="-848" font-family="Arial" font-size="10.00" fill="#ff0000">99.99%</text>
<text text-anchor="middle" x="229" y="-837" font-family="Arial" font-size="10.00" fill="#ff0000">1×</text>
</g>
<!-- IntersectRaySphere -->
<g id="node4" class="node">
<title>IntersectRaySphere</title>
<polygon fill="#dccb05" stroke="#dccb05" points="398,-372 294,-372 294,-309 398,-309 398,-372"/>
<text text-anchor="middle" x="346" y="-360" font-family="Arial" font-size="10.00" fill="#ffffff">miniRT</text>
<text text-anchor="middle" x="346" y="-349" font-family="Arial" font-size="10.00" fill="#ffffff">IntersectRaySphere</text>
<text text-anchor="middle" x="346" y="-338" font-family="Arial" font-size="10.00" fill="#ffffff">77.00%</text>
<text text-anchor="middle" x="346" y="-327" font-family="Arial" font-size="10.00" fill="#ffffff">(18.28%)</text>
<text text-anchor="middle" x="346" y="-316" font-family="Arial" font-size="10.00" fill="#ffffff">12441600×</text>
</g>
<!-- dot_product -->
<g id="node5" class="node">
<title>dot_product</title>
<polygon fill="#0ba06a" stroke="#0ba06a" points="281,-269 213,-269 213,-206 281,-206 281,-269"/>
<text text-anchor="middle" x="247" y="-257" font-family="Arial" font-size="10.00" fill="#ffffff">miniRT</text>
<text text-anchor="middle" x="247" y="-246" font-family="Arial" font-size="10.00" fill="#ffffff">dot_product</text>
<text text-anchor="middle" x="247" y="-235" font-family="Arial" font-size="10.00" fill="#ffffff">33.98%</text>
<text text-anchor="middle" x="247" y="-224" font-family="Arial" font-size="10.00" fill="#ffffff">(17.30%)</text>
<text text-anchor="middle" x="247" y="-213" font-family="Arial" font-size="10.00" fill="#ffffff">25660801×</text>
</g>
<!-- IntersectRaySphere&#45;&gt;dot_product -->
<g id="edge3" class="edge">
<title>IntersectRaySphere&#45;&gt;dot_product</title>
<path fill="none" stroke="#0b9e6f" stroke-width="1.32" d="M293.9,-312.52C291.57,-311.33 289.26,-310.15 287,-309 279.03,-304.95 274.93,-306.69 269,-300 262.65,-292.83 258.09,-283.7 254.84,-274.68"/>
<polygon fill="#0b9e6f" stroke="#0b9e6f" stroke-width="1.32" points="256.67,-273.87 252.98,-269.09 252.89,-275.13 256.67,-273.87"/>
<text text-anchor="middle" x="293.5" y="-292" font-family="Arial" font-size="10.00" fill="#0b9e6f">32.95%</text>
<text text-anchor="middle" x="293.5" y="-281" font-family="Arial" font-size="10.00" fill="#0b9e6f">24883200×</text>
</g>
<!-- mcount -->
<g id="node6" class="node">
<title>mcount</title>
<polygon fill="#0ba163" stroke="#0ba163" points="275.5,-166 210.5,-166 210.5,-103 275.5,-103 275.5,-166"/>
<text text-anchor="middle" x="243" y="-154" font-family="Arial" font-size="10.00" fill="#ffffff">libc.so.6</text>
<text text-anchor="middle" x="243" y="-143" font-family="Arial" font-size="10.00" fill="#ffffff">mcount</text>
<text text-anchor="middle" x="243" y="-132" font-family="Arial" font-size="10.00" fill="#ffffff">35.39%</text>
<text text-anchor="middle" x="243" y="-121" font-family="Arial" font-size="10.00" fill="#ffffff">(27.52%)</text>
<text text-anchor="middle" x="243" y="-110" font-family="Arial" font-size="10.00" fill="#ffffff">54434116×</text>
</g>
<!-- IntersectRaySphere&#45;&gt;mcount -->
<g id="edge4" class="edge">
<title>IntersectRaySphere&#45;&gt;mcount</title>
<path fill="none" stroke="#0d317d" stroke-width="0.5" d="M333.55,-308.97C328.74,-298.71 322.76,-287.48 316,-278 312.71,-273.39 309.54,-274.05 307,-269 288,-231.28 314.17,-211.55 293,-175 289.28,-168.58 284.08,-162.82 278.44,-157.8"/>
<polygon fill="#0d317d" stroke="#0d317d" stroke-width="0.5" points="279.09,-156.75 275.63,-155.4 277.49,-158.61 279.09,-156.75"/>
<text text-anchor="middle" x="331.5" y="-240.5" font-family="Arial" font-size="10.00" fill="#0d317d">8.09%</text>
<text text-anchor="middle" x="331.5" y="-229.5" font-family="Arial" font-size="10.00" fill="#0d317d">12441600×</text>
</g>
<!-- sub_vectors -->
<g id="node7" class="node">
<title>sub_vectors</title>
<polygon fill="#0c658a" stroke="#0c658a" points="430,-269 360,-269 360,-206 430,-206 430,-269"/>
<text text-anchor="middle" x="395" y="-257" font-family="Arial" font-size="10.00" fill="#ffffff">miniRT</text>
<text text-anchor="middle" x="395" y="-246" font-family="Arial" font-size="10.00" fill="#ffffff">sub_vectors</text>
<text text-anchor="middle" x="395" y="-235" font-family="Arial" font-size="10.00" fill="#ffffff">17.67%</text>
<text text-anchor="middle" x="395" y="-224" font-family="Arial" font-size="10.00" fill="#ffffff">(9.59%)</text>
<text text-anchor="middle" x="395" y="-213" font-family="Arial" font-size="10.00" fill="#ffffff">12441600×</text>
</g>
<!-- IntersectRaySphere&#45;&gt;sub_vectors -->
<g id="edge5" class="edge">
<title>IntersectRaySphere&#45;&gt;sub_vectors</title>
<path fill="none" stroke="#0c658a" stroke-width="0.71" d="M360.83,-308.92C366.3,-297.66 372.53,-284.81 378.16,-273.21"/>
<polygon fill="#0c658a" stroke="#0c658a" stroke-width="0.71" points="379.54,-273.74 380.05,-269.32 376.89,-272.46 379.54,-273.74"/>
<text text-anchor="middle" x="398.5" y="-292" font-family="Arial" font-size="10.00" fill="#0c658a">17.67%</text>
<text text-anchor="middle" x="398.5" y="-281" font-family="Arial" font-size="10.00" fill="#0c658a">12441600×</text>
</g>
<!-- dot_product&#45;&gt;mcount -->
<g id="edge12" class="edge">
<title>dot_product&#45;&gt;mcount</title>
<path fill="none" stroke="#0c5f88" stroke-width="0.67" d="M245.79,-205.92C245.35,-194.75 244.84,-182.04 244.39,-170.51"/>
<polygon fill="#0c5f88" stroke="#0c5f88" stroke-width="0.67" points="245.82,-170.36 244.22,-166.32 242.95,-170.48 245.82,-170.36"/>
<text text-anchor="middle" x="270.5" y="-189" font-family="Arial" font-size="10.00" fill="#0c5f88">16.68%</text>
<text text-anchor="middle" x="270.5" y="-178" font-family="Arial" font-size="10.00" fill="#0c5f88">25660801×</text>
</g>
<!-- __mcount_internal -->
<g id="node10" class="node">
<title>__mcount_internal</title>
<polygon fill="#0d307d" stroke="#0d307d" points="291,-63 195,-63 195,0 291,0 291,-63"/>
<text text-anchor="middle" x="243" y="-51" font-family="Arial" font-size="10.00" fill="#ffffff">libc.so.6</text>
<text text-anchor="middle" x="243" y="-40" font-family="Arial" font-size="10.00" fill="#ffffff">__mcount_internal</text>
<text text-anchor="middle" x="243" y="-29" font-family="Arial" font-size="10.00" fill="#ffffff">7.86%</text>
<text text-anchor="middle" x="243" y="-18" font-family="Arial" font-size="10.00" fill="#ffffff">(7.86%)</text>
<text text-anchor="middle" x="243" y="-7" font-family="Arial" font-size="10.00" fill="#ffffff">54434116×</text>
</g>
<!-- mcount&#45;&gt;__mcount_internal -->
<g id="edge15" class="edge">
<title>mcount&#45;&gt;__mcount_internal</title>
<path fill="none" stroke="#0d307d" stroke-width="0.5" d="M243,-102.92C243,-91.56 243,-78.59 243,-66.9"/>
<polygon fill="#0d307d" stroke="#0d307d" stroke-width="0.5" points="244.23,-66.82 243,-63.32 241.78,-66.82 244.23,-66.82"/>
<text text-anchor="middle" x="267.5" y="-86" font-family="Arial" font-size="10.00" fill="#0d307d">7.86%</text>
<text text-anchor="middle" x="267.5" y="-75" font-family="Arial" font-size="10.00" fill="#0d307d">54434116×</text>
</g>
<!-- sub_vectors&#45;&gt;mcount -->
<g id="edge19" class="edge">
<title>sub_vectors&#45;&gt;mcount</title>
<path fill="none" stroke="#0d317d" stroke-width="0.5" d="M359.74,-210.84C357.46,-209.2 355.2,-207.57 353,-206 333.54,-192.08 329.05,-188.04 309,-175 299.26,-168.67 288.52,-162.08 278.58,-156.13"/>
<polygon fill="#0d317d" stroke="#0d317d" stroke-width="0.5" points="279.16,-155.05 275.52,-154.31 277.9,-157.16 279.16,-155.05"/>
<text text-anchor="middle" x="364.5" y="-189" font-family="Arial" font-size="10.00" fill="#0d317d">8.09%</text>
<text text-anchor="middle" x="364.5" y="-178" font-family="Arial" font-size="10.00" fill="#0d317d">12441600×</text>
</g>
<!-- cal_fov -->
<g id="node9" class="node">
<title>cal_fov</title>
<polygon fill="#0d277a" stroke="#0d277a" points="176,-516 126,-516 126,-453 176,-453 176,-516"/>
<text text-anchor="middle" x="151" y="-504" font-family="Arial" font-size="10.00" fill="#ffffff">miniRT</text>
<text text-anchor="middle" x="151" y="-493" font-family="Arial" font-size="10.00" fill="#ffffff">cal_fov</text>
<text text-anchor="middle" x="151" y="-482" font-family="Arial" font-size="10.00" fill="#ffffff">5.94%</text>
<text text-anchor="middle" x="151" y="-471" font-family="Arial" font-size="10.00" fill="#ffffff">(0.62%)</text>
<text text-anchor="middle" x="151" y="-460" font-family="Arial" font-size="10.00" fill="#ffffff">1×</text>
</g>
<!-- __init__&#45;&gt;cal_fov -->
<g id="edge6" class="edge">
<title>__init__&#45;&gt;cal_fov</title>
<path fill="none" stroke="#0d277a" stroke-width="0.5" d="M171.22,-555.92C167.96,-544.56 164.23,-531.59 160.88,-519.9"/>
<polygon fill="#0d277a" stroke="#0d277a" stroke-width="0.5" points="161.99,-519.35 159.85,-516.32 159.64,-520.02 161.99,-519.35"/>
<text text-anchor="middle" x="183" y="-539" font-family="Arial" font-size="10.00" fill="#0d277a">5.94%</text>
<text text-anchor="middle" x="183" y="-528" font-family="Arial" font-size="10.00" fill="#0d277a">1×</text>
</g>
<!-- cal_rays -->
<g id="node13" class="node">
<title>cal_rays</title>
<polygon fill="#0d247a" stroke="#0d247a" points="158.5,-372 105.5,-372 105.5,-309 158.5,-309 158.5,-372"/>
<text text-anchor="middle" x="132" y="-360" font-family="Arial" font-size="10.00" fill="#ffffff">miniRT</text>
<text text-anchor="middle" x="132" y="-349" font-family="Arial" font-size="10.00" fill="#ffffff">cal_rays</text>
<text text-anchor="middle" x="132" y="-338" font-family="Arial" font-size="10.00" fill="#ffffff">5.32%</text>
<text text-anchor="middle" x="132" y="-327" font-family="Arial" font-size="10.00" fill="#ffffff">(2.12%)</text>
<text text-anchor="middle" x="132" y="-316" font-family="Arial" font-size="10.00" fill="#ffffff">1×</text>
</g>
<!-- cal_fov&#45;&gt;cal_rays -->
<g id="edge9" class="edge">
<title>cal_fov&#45;&gt;cal_rays</title>
<path fill="none" stroke="#0d247a" stroke-width="0.5" d="M146.88,-452.69C143.85,-430.08 139.74,-399.36 136.61,-375.95"/>
<polygon fill="#0d247a" stroke="#0d247a" stroke-width="0.5" points="137.79,-375.56 136.11,-372.25 135.36,-375.88 137.79,-375.56"/>
<text text-anchor="middle" x="160" y="-415.5" font-family="Arial" font-size="10.00" fill="#0d247a">5.32%</text>
<text text-anchor="middle" x="160" y="-404.5" font-family="Arial" font-size="10.00" fill="#0d247a">1×</text>
</g>
<!-- _replace_sized_pixel_on_render -->
<g id="node11" class="node">
<title>_replace_sized_pixel_on_render</title>
<polygon fill="#0d1575" stroke="#0d1575" points="509.5,-444 354.5,-444 354.5,-381 509.5,-381 509.5,-444"/>
<text text-anchor="middle" x="432" y="-432" font-family="Arial" font-size="10.00" fill="#ffffff">miniRT</text>
<text text-anchor="middle" x="432" y="-421" font-family="Arial" font-size="10.00" fill="#ffffff">_replace_sized_pixel_on_render</text>
<text text-anchor="middle" x="432" y="-410" font-family="Arial" font-size="10.00" fill="#ffffff">2.04%</text>
<text text-anchor="middle" x="432" y="-399" font-family="Arial" font-size="10.00" fill="#ffffff">(1.54%)</text>
<text text-anchor="middle" x="432" y="-388" font-family="Arial" font-size="10.00" fill="#ffffff">777600×</text>
</g>
<!-- _replace_sized_pixel_on_render&#45;&gt;mcount -->
<g id="edge7" class="edge">
<title>_replace_sized_pixel_on_render&#45;&gt;mcount</title>
<path fill="none" stroke="#0d0f73" stroke-width="0.5" d="M440.99,-380.89C451.51,-338.84 464.08,-262.06 435,-206 406.24,-150.55 326.34,-138.02 279.17,-135.6"/>
<polygon fill="#0d0f73" stroke="#0d0f73" stroke-width="0.5" points="279.1,-134.37 275.55,-135.43 278.99,-136.82 279.1,-134.37"/>
<text text-anchor="middle" x="471" y="-292" font-family="Arial" font-size="10.00" fill="#0d0f73">0.51%</text>
<text text-anchor="middle" x="471" y="-281" font-family="Arial" font-size="10.00" fill="#0d0f73">777600×</text>
</g>
<!-- add_vectors -->
<g id="node12" class="node">
<title>add_vectors</title>
<polygon fill="#0d1676" stroke="#0d1676" points="70,-269 0,-269 0,-206 70,-206 70,-269"/>
<text text-anchor="middle" x="35" y="-257" font-family="Arial" font-size="10.00" fill="#ffffff">miniRT</text>
<text text-anchor="middle" x="35" y="-246" font-family="Arial" font-size="10.00" fill="#ffffff">add_vectors</text>
<text text-anchor="middle" x="35" y="-235" font-family="Arial" font-size="10.00" fill="#ffffff">2.21%</text>
<text text-anchor="middle" x="35" y="-224" font-family="Arial" font-size="10.00" fill="#ffffff">(1.20%)</text>
<text text-anchor="middle" x="35" y="-213" font-family="Arial" font-size="10.00" fill="#ffffff">1555200×</text>
</g>
<!-- add_vectors&#45;&gt;mcount -->
<g id="edge8" class="edge">
<title>add_vectors&#45;&gt;mcount</title>
<path fill="none" stroke="#0d1174" stroke-width="0.5" d="M59.87,-205.85C70.3,-194.72 83.21,-182.95 97,-175 131.32,-155.22 175.9,-145.04 206.72,-140.01"/>
<polygon fill="#0d1174" stroke="#0d1174" stroke-width="0.5" points="207.15,-141.18 210.41,-139.42 206.76,-138.76 207.15,-141.18"/>
<text text-anchor="middle" x="118.5" y="-189" font-family="Arial" font-size="10.00" fill="#0d1174">1.01%</text>
<text text-anchor="middle" x="118.5" y="-178" font-family="Arial" font-size="10.00" fill="#0d1174">1555200×</text>
</g>
<!-- cal_rays&#45;&gt;add_vectors -->
<g id="edge10" class="edge">
<title>cal_rays&#45;&gt;add_vectors</title>
<path fill="none" stroke="#0d1676" stroke-width="0.5" d="M105.23,-317.16C99.08,-311.71 92.68,-305.79 87,-300 78.39,-291.23 69.56,-281.23 61.68,-271.88"/>
<polygon fill="#0d1676" stroke="#0d1676" stroke-width="0.5" points="62.45,-270.9 59.27,-269 60.58,-272.47 62.45,-270.9"/>
<text text-anchor="middle" x="108.5" y="-292" font-family="Arial" font-size="10.00" fill="#0d1676">2.21%</text>
<text text-anchor="middle" x="108.5" y="-281" font-family="Arial" font-size="10.00" fill="#0d1676">1555200×</text>
</g>
<!-- scalar_multiplication -->
<g id="node14" class="node">
<title>scalar_multiplication</title>
<polygon fill="#0d1174" stroke="#0d1174" points="184.5,-269 79.5,-269 79.5,-206 184.5,-206 184.5,-269"/>
<text text-anchor="middle" x="132" y="-257" font-family="Arial" font-size="10.00" fill="#ffffff">miniRT</text>
<text text-anchor="middle" x="132" y="-246" font-family="Arial" font-size="10.00" fill="#ffffff">scalar_multiplication</text>
<text text-anchor="middle" x="132" y="-235" font-family="Arial" font-size="10.00" fill="#ffffff">0.99%</text>
<text text-anchor="middle" x="132" y="-224" font-family="Arial" font-size="10.00" fill="#ffffff">(0.49%)</text>
<text text-anchor="middle" x="132" y="-213" font-family="Arial" font-size="10.00" fill="#ffffff">778320×</text>
</g>
<!-- cal_rays&#45;&gt;scalar_multiplication -->
<g id="edge11" class="edge">
<title>cal_rays&#45;&gt;scalar_multiplication</title>
<path fill="none" stroke="#0d1174" stroke-width="0.5" d="M132,-308.92C132,-297.56 132,-284.59 132,-272.9"/>
<polygon fill="#0d1174" stroke="#0d1174" stroke-width="0.5" points="133.23,-272.82 132,-269.32 130.78,-272.82 133.23,-272.82"/>
<text text-anchor="middle" x="151" y="-292" font-family="Arial" font-size="10.00" fill="#0d1174">0.99%</text>
<text text-anchor="middle" x="151" y="-281" font-family="Arial" font-size="10.00" fill="#0d1174">778320×</text>
</g>
<!-- scalar_multiplication&#45;&gt;mcount -->
<g id="edge16" class="edge">
<title>scalar_multiplication&#45;&gt;mcount</title>
<path fill="none" stroke="#0d0f73" stroke-width="0.5" d="M137.76,-205.71C141.04,-194.96 146.13,-183.48 154,-175 168.02,-159.9 188.86,-150.23 206.85,-144.23"/>
<polygon fill="#0d0f73" stroke="#0d0f73" stroke-width="0.5" points="207.46,-145.33 210.41,-143.08 206.7,-142.99 207.46,-145.33"/>
<text text-anchor="middle" x="173" y="-189" font-family="Arial" font-size="10.00" fill="#0d0f73">0.51%</text>
<text text-anchor="middle" x="173" y="-178" font-family="Arial" font-size="10.00" fill="#0d0f73">778320×</text>
</g>
<!-- start_rays&#45;&gt;_replace_sized_pixel_on_render -->
<g id="edge17" class="edge">
<title>start_rays&#45;&gt;_replace_sized_pixel_on_render</title>
<path fill="none" stroke="#0d1575" stroke-width="0.5" d="M277.14,-558.32C309.7,-527.87 361.57,-479.36 396.19,-446.99"/>
<polygon fill="#0d1575" stroke="#0d1575" stroke-width="0.5" points="397.35,-447.58 399.07,-444.3 395.68,-445.79 397.35,-447.58"/>
<text text-anchor="middle" x="331" y="-539" font-family="Arial" font-size="10.00" fill="#0d1575">2.04%</text>
<text text-anchor="middle" x="331" y="-528" font-family="Arial" font-size="10.00" fill="#0d1575">777600×</text>
</g>
<!-- traceray -->
<g id="node16" class="node">
<title>traceray</title>
<polygon fill="#f15902" stroke="#f15902" points="275,-516 219,-516 219,-453 275,-453 275,-516"/>
<text text-anchor="middle" x="247" y="-504" font-family="Arial" font-size="10.00" fill="#ffffff">miniRT</text>
<text text-anchor="middle" x="247" y="-493" font-family="Arial" font-size="10.00" fill="#ffffff">traceray</text>
<text text-anchor="middle" x="247" y="-482" font-family="Arial" font-size="10.00" fill="#ffffff">90.92%</text>
<text text-anchor="middle" x="247" y="-471" font-family="Arial" font-size="10.00" fill="#ffffff">(12.39%)</text>
<text text-anchor="middle" x="247" y="-460" font-family="Arial" font-size="10.00" fill="#ffffff">777600×</text>
</g>
<!-- start_rays&#45;&gt;traceray -->
<g id="edge18" class="edge">
<title>start_rays&#45;&gt;traceray</title>
<path fill="none" stroke="#f15902" stroke-width="3.64" d="M247,-555.92C247,-546.52 247,-536.01 247,-526.05"/>
<polygon fill="#f15902" stroke="#f15902" stroke-width="3.64" points="250.33,-525.82 247,-516.32 243.68,-525.82 250.33,-525.82"/>
<text text-anchor="middle" x="266" y="-539" font-family="Arial" font-size="10.00" fill="#f15902">90.92%</text>
<text text-anchor="middle" x="266" y="-528" font-family="Arial" font-size="10.00" fill="#f15902">777600×</text>
</g>
<!-- traceray&#45;&gt;IntersectRaySphere -->
<g id="edge20" class="edge">
<title>traceray&#45;&gt;IntersectRaySphere</title>
<path fill="none" stroke="#dccb05" stroke-width="3.08" d="M259.68,-452.6C269.26,-431.29 283.69,-402.95 301,-381 301.51,-380.36 302.03,-379.72 302.55,-379.08"/>
<polygon fill="#dccb05" stroke="#dccb05" stroke-width="3.08" points="304.99,-380.98 308.55,-372.37 300.39,-376.87 304.99,-380.98"/>
<text text-anchor="middle" x="325.5" y="-415.5" font-family="Arial" font-size="10.00" fill="#dccb05">77.00%</text>
<text text-anchor="middle" x="325.5" y="-404.5" font-family="Arial" font-size="10.00" fill="#dccb05">12441600×</text>
</g>
<!-- traceray&#45;&gt;dot_product -->
<g id="edge21" class="edge">
<title>traceray&#45;&gt;dot_product</title>
<path fill="none" stroke="#0d1174" stroke-width="0.5" d="M247,-452.97C247,-407.08 247,-320.64 247,-272.7"/>
<polygon fill="#0d1174" stroke="#0d1174" stroke-width="0.5" points="248.23,-272.53 247,-269.03 245.78,-272.53 248.23,-272.53"/>
<text text-anchor="middle" x="266" y="-343.5" font-family="Arial" font-size="10.00" fill="#0d1174">1.03%</text>
<text text-anchor="middle" x="266" y="-332.5" font-family="Arial" font-size="10.00" fill="#0d1174">777600×</text>
</g>
<!-- traceray&#45;&gt;mcount -->
<g id="edge22" class="edge">
<title>traceray&#45;&gt;mcount</title>
<path fill="none" stroke="#0d0f73" stroke-width="0.5" d="M235.22,-452.75C217.12,-401.16 186.67,-294.19 208,-206 211.02,-193.5 216.56,-180.65 222.35,-169.41"/>
<polygon fill="#0d0f73" stroke="#0d0f73" stroke-width="0.5" points="223.45,-169.96 223.98,-166.29 221.28,-168.82 223.45,-169.96"/>
<text text-anchor="middle" x="221" y="-292" font-family="Arial" font-size="10.00" fill="#0d0f73">0.51%</text>
<text text-anchor="middle" x="221" y="-281" font-family="Arial" font-size="10.00" fill="#0d0f73">777600×</text>
</g>
</g>
</svg>
