<?xml version="1.0" encoding="UTF-8" standalone="no"?>
<!DOCTYPE svg PUBLIC "-//W3C//DTD SVG 1.1//EN"
 "http://www.w3.org/Graphics/SVG/1.1/DTD/svg11.dtd">
<!-- Generated by graphviz version 2.43.0 (0)
 -->
<!-- Title: %3 Pages: 1 -->
<svg width="544pt" height="936pt"
 viewBox="0.00 0.00 544.00 936.00" xmlns="http://www.w3.org/2000/svg" xmlns:xlink="http://www.w3.org/1999/xlink">
<g id="graph0" class="graph" transform="scale(1 1) rotate(0) translate(4 932)">
<title>%3</title>
<g id="a_graph0"><a xlink:title=" ">
<polygon fill="white" stroke="transparent" points="-4,4 -4,-932 540,-932 540,4 -4,4"/>
</a>
</g>
<!-- (below main) -->
<g id="node1" class="node">
<title>(below main)</title>
<polygon fill="#ff0100" stroke="#ff0100" points="200,-825 128,-825 128,-762 200,-762 200,-825"/>
<text text-anchor="middle" x="164" y="-813" font-family="Arial" font-size="10.00" fill="#ffffff">miniRT</text>
<text text-anchor="middle" x="164" y="-802" font-family="Arial" font-size="10.00" fill="#ffffff">(below main)</text>
<text text-anchor="middle" x="164" y="-791" font-family="Arial" font-size="10.00" fill="#ffffff">99.89%</text>
<text text-anchor="middle" x="164" y="-780" font-family="Arial" font-size="10.00" fill="#ffffff">(0.00%)</text>
<text text-anchor="middle" x="164" y="-769" font-family="Arial" font-size="10.00" fill="#ffffff">2×</text>
</g>
<!-- main -->
<g id="node2" class="node">
<title>main</title>
<polygon fill="#ff0100" stroke="#ff0100" points="189,-722 139,-722 139,-659 189,-659 189,-722"/>
<text text-anchor="middle" x="164" y="-710" font-family="Arial" font-size="10.00" fill="#ffffff">miniRT</text>
<text text-anchor="middle" x="164" y="-699" font-family="Arial" font-size="10.00" fill="#ffffff">main</text>
<text text-anchor="middle" x="164" y="-688" font-family="Arial" font-size="10.00" fill="#ffffff">99.89%</text>
<text text-anchor="middle" x="164" y="-677" font-family="Arial" font-size="10.00" fill="#ffffff">(0.00%)</text>
<text text-anchor="middle" x="164" y="-666" font-family="Arial" font-size="10.00" fill="#ffffff">1×</text>
</g>
<!-- (below main)&#45;&gt;main -->
<g id="edge1" class="edge">
<title>(below main)&#45;&gt;main</title>
<path fill="none" stroke="#ff0100" stroke-width="4" d="M164,-761.92C164,-752.61 164,-742.23 164,-732.36"/>
<polygon fill="#ff0100" stroke="#ff0100" stroke-width="4" points="167.5,-732.32 164,-722.32 160.5,-732.32 167.5,-732.32"/>
<text text-anchor="middle" x="181" y="-745" font-family="Arial" font-size="10.00" fill="#ff0100">99.89%</text>
<text text-anchor="middle" x="181" y="-734" font-family="Arial" font-size="10.00" fill="#ff0100">1×</text>
</g>
<!-- __init__ -->
<g id="node8" class="node">
<title>__init__</title>
<polygon fill="#0aae30" stroke="#0aae30" points="101,-516 51,-516 51,-453 101,-453 101,-516"/>
<text text-anchor="middle" x="76" y="-504" font-family="Arial" font-size="10.00" fill="#ffffff">miniRT</text>
<text text-anchor="middle" x="76" y="-493" font-family="Arial" font-size="10.00" fill="#ffffff">__init__</text>
<text text-anchor="middle" x="76" y="-482" font-family="Arial" font-size="10.00" fill="#ffffff">44.20%</text>
<text text-anchor="middle" x="76" y="-471" font-family="Arial" font-size="10.00" fill="#ffffff">(0.00%)</text>
<text text-anchor="middle" x="76" y="-460" font-family="Arial" font-size="10.00" fill="#ffffff">1×</text>
</g>
<!-- main&#45;&gt;__init__ -->
<g id="edge15" class="edge">
<title>main&#45;&gt;__init__</title>
<path fill="none" stroke="#0aae30" stroke-width="1.77" d="M138.63,-675.54C119.32,-663.38 94.07,-643.82 82,-619 67.45,-589.09 67.31,-550.82 70.01,-522.93"/>
<polygon fill="#0aae30" stroke="#0aae30" stroke-width="1.77" points="72.34,-522.88 70.75,-516.07 67.75,-522.38 72.34,-522.88"/>
<text text-anchor="middle" x="99" y="-590.5" font-family="Arial" font-size="10.00" fill="#0aae30">44.20%</text>
<text text-anchor="middle" x="99" y="-579.5" font-family="Arial" font-size="10.00" fill="#0aae30">1×</text>
</g>
<!-- _create_window -->
<g id="node14" class="node">
<title>_create_window</title>
<polygon fill="#0d1575" stroke="#0d1575" points="207.5,-619 120.5,-619 120.5,-556 207.5,-556 207.5,-619"/>
<text text-anchor="middle" x="164" y="-607" font-family="Arial" font-size="10.00" fill="#ffffff">miniRT</text>
<text text-anchor="middle" x="164" y="-596" font-family="Arial" font-size="10.00" fill="#ffffff">_create_window</text>
<text text-anchor="middle" x="164" y="-585" font-family="Arial" font-size="10.00" fill="#ffffff">2.05%</text>
<text text-anchor="middle" x="164" y="-574" font-family="Arial" font-size="10.00" fill="#ffffff">(0.00%)</text>
<text text-anchor="middle" x="164" y="-563" font-family="Arial" font-size="10.00" fill="#ffffff">1×</text>
</g>
<!-- main&#45;&gt;_create_window -->
<g id="edge16" class="edge">
<title>main&#45;&gt;_create_window</title>
<path fill="none" stroke="#0d1575" stroke-width="0.5" d="M164,-658.92C164,-647.56 164,-634.59 164,-622.9"/>
<polygon fill="#0d1575" stroke="#0d1575" stroke-width="0.5" points="165.23,-622.82 164,-619.32 162.78,-622.82 165.23,-622.82"/>
<text text-anchor="middle" x="178" y="-642" font-family="Arial" font-size="10.00" fill="#0d1575">2.05%</text>
<text text-anchor="middle" x="178" y="-631" font-family="Arial" font-size="10.00" fill="#0d1575">1×</text>
</g>
<!-- start_rays -->
<g id="node18" class="node">
<title>start_rays</title>
<polygon fill="#23bb09" stroke="#23bb09" points="292,-619 232,-619 232,-556 292,-556 292,-619"/>
<text text-anchor="middle" x="262" y="-607" font-family="Arial" font-size="10.00" fill="#ffffff">miniRT</text>
<text text-anchor="middle" x="262" y="-596" font-family="Arial" font-size="10.00" fill="#ffffff">start_rays</text>
<text text-anchor="middle" x="262" y="-585" font-family="Arial" font-size="10.00" fill="#ffffff">53.59%</text>
<text text-anchor="middle" x="262" y="-574" font-family="Arial" font-size="10.00" fill="#ffffff">(0.43%)</text>
<text text-anchor="middle" x="262" y="-563" font-family="Arial" font-size="10.00" fill="#ffffff">1×</text>
</g>
<!-- main&#45;&gt;start_rays -->
<g id="edge17" class="edge">
<title>main&#45;&gt;start_rays</title>
<path fill="none" stroke="#23bb09" stroke-width="2.14" d="M189.24,-663.49C200.75,-651.62 214.57,-637.38 227.06,-624.51"/>
<polygon fill="#23bb09" stroke="#23bb09" stroke-width="2.14" points="229.07,-626.1 232.32,-619.09 225.41,-622.55 229.07,-626.1"/>
<text text-anchor="middle" x="239" y="-642" font-family="Arial" font-size="10.00" fill="#23bb09">53.59%</text>
<text text-anchor="middle" x="239" y="-631" font-family="Arial" font-size="10.00" fill="#23bb09">1×</text>
</g>
<!-- 0x000000000001f540 -->
<g id="node3" class="node">
<title>0x000000000001f540</title>
<polygon fill="#ff0000" stroke="#ff0000" points="218.5,-928 109.5,-928 109.5,-865 218.5,-865 218.5,-928"/>
<text text-anchor="middle" x="164" y="-916" font-family="Arial" font-size="10.00" fill="#ffffff">ld&#45;linux&#45;x86&#45;64.so.2</text>
<text text-anchor="middle" x="164" y="-905" font-family="Arial" font-size="10.00" fill="#ffffff">0x000000000001f540</text>
<text text-anchor="middle" x="164" y="-894" font-family="Arial" font-size="10.00" fill="#ffffff">100.00%</text>
<text text-anchor="middle" x="164" y="-883" font-family="Arial" font-size="10.00" fill="#ffffff">(0.00%)</text>
<text text-anchor="middle" x="164" y="-872" font-family="Arial" font-size="10.00" fill="#ffffff">0×</text>
</g>
<!-- 0x000000000001f540&#45;&gt;(below main) -->
<g id="edge2" class="edge">
<title>0x000000000001f540&#45;&gt;(below main)</title>
<path fill="none" stroke="#ff0100" stroke-width="4" d="M164,-864.92C164,-855.61 164,-845.23 164,-835.36"/>
<polygon fill="#ff0100" stroke="#ff0100" stroke-width="4" points="167.5,-835.32 164,-825.32 160.5,-835.32 167.5,-835.32"/>
<text text-anchor="middle" x="181" y="-848" font-family="Arial" font-size="10.00" fill="#ff0100">99.89%</text>
<text text-anchor="middle" x="181" y="-837" font-family="Arial" font-size="10.00" fill="#ff0100">1×</text>
</g>
<!-- IntersectRaySphere -->
<g id="node4" class="node">
<title>IntersectRaySphere</title>
<polygon fill="#0ba74b" stroke="#0ba74b" points="511,-372 407,-372 407,-309 511,-309 511,-372"/>
<text text-anchor="middle" x="459" y="-360" font-family="Arial" font-size="10.00" fill="#ffffff">miniRT</text>
<text text-anchor="middle" x="459" y="-349" font-family="Arial" font-size="10.00" fill="#ffffff">IntersectRaySphere</text>
<text text-anchor="middle" x="459" y="-338" font-family="Arial" font-size="10.00" fill="#ffffff">39.72%</text>
<text text-anchor="middle" x="459" y="-327" font-family="Arial" font-size="10.00" fill="#ffffff">(9.58%)</text>
<text text-anchor="middle" x="459" y="-316" font-family="Arial" font-size="10.00" fill="#ffffff">777600×</text>
</g>
<!-- dot_product -->
<g id="node5" class="node">
<title>dot_product</title>
<polygon fill="#0c6289" stroke="#0c6289" points="404,-269 336,-269 336,-206 404,-206 404,-269"/>
<text text-anchor="middle" x="370" y="-257" font-family="Arial" font-size="10.00" fill="#ffffff">miniRT</text>
<text text-anchor="middle" x="370" y="-246" font-family="Arial" font-size="10.00" fill="#ffffff">dot_product</text>
<text text-anchor="middle" x="370" y="-235" font-family="Arial" font-size="10.00" fill="#ffffff">17.16%</text>
<text text-anchor="middle" x="370" y="-224" font-family="Arial" font-size="10.00" fill="#ffffff">(8.42%)</text>
<text text-anchor="middle" x="370" y="-213" font-family="Arial" font-size="10.00" fill="#ffffff">1603801×</text>
</g>
<!-- IntersectRaySphere&#45;&gt;dot_product -->
<g id="edge3" class="edge">
<title>IntersectRaySphere&#45;&gt;dot_product</title>
<path fill="none" stroke="#0c5f88" stroke-width="0.67" d="M415.84,-308.85C412.71,-306 409.73,-303.04 407,-300 399.79,-291.97 393.22,-282.33 387.69,-273.09"/>
<polygon fill="#0c5f88" stroke="#0c5f88" stroke-width="0.67" points="388.7,-271.97 385.38,-269.16 386.22,-273.42 388.7,-271.97"/>
<text text-anchor="middle" x="428.5" y="-292" font-family="Arial" font-size="10.00" fill="#0c5f88">16.64%</text>
<text text-anchor="middle" x="428.5" y="-281" font-family="Arial" font-size="10.00" fill="#0c5f88">1555200×</text>
</g>
<!-- mcount -->
<g id="node6" class="node">
<title>mcount</title>
<polygon fill="#0c9b7b" stroke="#0c9b7b" points="351.5,-166 292.5,-166 292.5,-103 351.5,-103 351.5,-166"/>
<text text-anchor="middle" x="322" y="-154" font-family="Arial" font-size="10.00" fill="#ffffff">libc.so.6</text>
<text text-anchor="middle" x="322" y="-143" font-family="Arial" font-size="10.00" fill="#ffffff">mcount</text>
<text text-anchor="middle" x="322" y="-132" font-family="Arial" font-size="10.00" fill="#ffffff">30.47%</text>
<text text-anchor="middle" x="322" y="-121" font-family="Arial" font-size="10.00" fill="#ffffff">(23.70%)</text>
<text text-anchor="middle" x="322" y="-110" font-family="Arial" font-size="10.00" fill="#ffffff">5591837×</text>
</g>
<!-- IntersectRaySphere&#45;&gt;mcount -->
<g id="edge4" class="edge">
<title>IntersectRaySphere&#45;&gt;mcount</title>
<path fill="none" stroke="#0d1f78" stroke-width="0.5" d="M487.8,-308.82C489.46,-305.98 490.9,-303.02 492,-300 498.63,-281.71 503.87,-241.49 488,-206 465.79,-156.33 397.26,-141.61 355.52,-137.28"/>
<polygon fill="#0d1f78" stroke="#0d1f78" stroke-width="0.5" points="355.41,-136.03 351.81,-136.91 355.17,-138.47 355.41,-136.03"/>
<text text-anchor="middle" x="517" y="-240.5" font-family="Arial" font-size="10.00" fill="#0d1f78">4.24%</text>
<text text-anchor="middle" x="517" y="-229.5" font-family="Arial" font-size="10.00" fill="#0d1f78">777600×</text>
</g>
<!-- sub_vectors -->
<g id="node7" class="node">
<title>sub_vectors</title>
<polygon fill="#0d377f" stroke="#0d377f" points="483,-269 413,-269 413,-206 483,-206 483,-269"/>
<text text-anchor="middle" x="448" y="-257" font-family="Arial" font-size="10.00" fill="#ffffff">miniRT</text>
<text text-anchor="middle" x="448" y="-246" font-family="Arial" font-size="10.00" fill="#ffffff">sub_vectors</text>
<text text-anchor="middle" x="448" y="-235" font-family="Arial" font-size="10.00" fill="#ffffff">9.26%</text>
<text text-anchor="middle" x="448" y="-224" font-family="Arial" font-size="10.00" fill="#ffffff">(5.02%)</text>
<text text-anchor="middle" x="448" y="-213" font-family="Arial" font-size="10.00" fill="#ffffff">777600×</text>
</g>
<!-- IntersectRaySphere&#45;&gt;sub_vectors -->
<g id="edge5" class="edge">
<title>IntersectRaySphere&#45;&gt;sub_vectors</title>
<path fill="none" stroke="#0d377f" stroke-width="0.5" d="M455.67,-308.92C454.43,-297.56 453.02,-284.59 451.75,-272.9"/>
<polygon fill="#0d377f" stroke="#0d377f" stroke-width="0.5" points="452.95,-272.67 451.36,-269.32 450.52,-272.93 452.95,-272.67"/>
<text text-anchor="middle" x="473" y="-292" font-family="Arial" font-size="10.00" fill="#0d377f">9.26%</text>
<text text-anchor="middle" x="473" y="-281" font-family="Arial" font-size="10.00" fill="#0d377f">777600×</text>
</g>
<!-- dot_product&#45;&gt;mcount -->
<g id="edge14" class="edge">
<title>dot_product&#45;&gt;mcount</title>
<path fill="none" stroke="#0d347e" stroke-width="0.5" d="M355.47,-205.92C350.02,-194.46 343.8,-181.36 338.21,-169.6"/>
<polygon fill="#0d347e" stroke="#0d347e" stroke-width="0.5" points="339.26,-168.96 336.65,-166.32 337.04,-170.01 339.26,-168.96"/>
<text text-anchor="middle" x="371.5" y="-189" font-family="Arial" font-size="10.00" fill="#0d347e">8.74%</text>
<text text-anchor="middle" x="371.5" y="-178" font-family="Arial" font-size="10.00" fill="#0d347e">1603801×</text>
</g>
<!-- __mcount_internal -->
<g id="node11" class="node">
<title>__mcount_internal</title>
<polygon fill="#0d2b7b" stroke="#0d2b7b" points="370,-63 274,-63 274,0 370,0 370,-63"/>
<text text-anchor="middle" x="322" y="-51" font-family="Arial" font-size="10.00" fill="#ffffff">libc.so.6</text>
<text text-anchor="middle" x="322" y="-40" font-family="Arial" font-size="10.00" fill="#ffffff">__mcount_internal</text>
<text text-anchor="middle" x="322" y="-29" font-family="Arial" font-size="10.00" fill="#ffffff">6.77%</text>
<text text-anchor="middle" x="322" y="-18" font-family="Arial" font-size="10.00" fill="#ffffff">(6.77%)</text>
<text text-anchor="middle" x="322" y="-7" font-family="Arial" font-size="10.00" fill="#ffffff">5591837×</text>
</g>
<!-- mcount&#45;&gt;__mcount_internal -->
<g id="edge18" class="edge">
<title>mcount&#45;&gt;__mcount_internal</title>
<path fill="none" stroke="#0d2b7b" stroke-width="0.5" d="M322,-102.92C322,-91.56 322,-78.59 322,-66.9"/>
<polygon fill="#0d2b7b" stroke="#0d2b7b" stroke-width="0.5" points="323.23,-66.82 322,-63.32 320.78,-66.82 323.23,-66.82"/>
<text text-anchor="middle" x="343.5" y="-86" font-family="Arial" font-size="10.00" fill="#0d2b7b">6.77%</text>
<text text-anchor="middle" x="343.5" y="-75" font-family="Arial" font-size="10.00" fill="#0d2b7b">5591837×</text>
</g>
<!-- sub_vectors&#45;&gt;mcount -->
<g id="edge22" class="edge">
<title>sub_vectors&#45;&gt;mcount</title>
<path fill="none" stroke="#0d1f78" stroke-width="0.5" d="M425.44,-205.98C416.68,-195.38 406.09,-183.93 395,-175 382.89,-165.25 368.03,-156.71 354.88,-150.08"/>
<polygon fill="#0d1f78" stroke="#0d1f78" stroke-width="0.5" points="355.26,-148.9 351.58,-148.44 354.17,-151.1 355.26,-148.9"/>
<text text-anchor="middle" x="436" y="-189" font-family="Arial" font-size="10.00" fill="#0d1f78">4.24%</text>
<text text-anchor="middle" x="436" y="-178" font-family="Arial" font-size="10.00" fill="#0d1f78">777600×</text>
</g>
<!-- cal_fov -->
<g id="node9" class="node">
<title>cal_fov</title>
<polygon fill="#0d1977" stroke="#0d1977" points="115,-372 65,-372 65,-309 115,-309 115,-372"/>
<text text-anchor="middle" x="90" y="-360" font-family="Arial" font-size="10.00" fill="#ffffff">miniRT</text>
<text text-anchor="middle" x="90" y="-349" font-family="Arial" font-size="10.00" fill="#ffffff">cal_fov</text>
<text text-anchor="middle" x="90" y="-338" font-family="Arial" font-size="10.00" fill="#ffffff">2.98%</text>
<text text-anchor="middle" x="90" y="-327" font-family="Arial" font-size="10.00" fill="#ffffff">(2.98%)</text>
<text text-anchor="middle" x="90" y="-316" font-family="Arial" font-size="10.00" fill="#ffffff">1×</text>
</g>
<!-- __init__&#45;&gt;cal_fov -->
<g id="edge6" class="edge">
<title>__init__&#45;&gt;cal_fov</title>
<path fill="none" stroke="#0d1977" stroke-width="0.5" d="M79.04,-452.69C81.27,-430.08 84.3,-399.36 86.6,-375.95"/>
<polygon fill="#0d1977" stroke="#0d1977" stroke-width="0.5" points="87.84,-375.86 86.97,-372.25 85.41,-375.61 87.84,-375.86"/>
<text text-anchor="middle" x="100" y="-415.5" font-family="Arial" font-size="10.00" fill="#0d1977">2.98%</text>
<text text-anchor="middle" x="100" y="-404.5" font-family="Arial" font-size="10.00" fill="#0d1977">1×</text>
</g>
<!-- cal_rays -->
<g id="node10" class="node">
<title>cal_rays</title>
<polygon fill="#0ba943" stroke="#0ba943" points="56,-372 0,-372 0,-309 56,-309 56,-372"/>
<text text-anchor="middle" x="28" y="-360" font-family="Arial" font-size="10.00" fill="#ffffff">miniRT</text>
<text text-anchor="middle" x="28" y="-349" font-family="Arial" font-size="10.00" fill="#ffffff">cal_rays</text>
<text text-anchor="middle" x="28" y="-338" font-family="Arial" font-size="10.00" fill="#ffffff">41.17%</text>
<text text-anchor="middle" x="28" y="-327" font-family="Arial" font-size="10.00" fill="#ffffff">(14.29%)</text>
<text text-anchor="middle" x="28" y="-316" font-family="Arial" font-size="10.00" fill="#ffffff">1×</text>
</g>
<!-- __init__&#45;&gt;cal_rays -->
<g id="edge7" class="edge">
<title>__init__&#45;&gt;cal_rays</title>
<path fill="none" stroke="#0ba943" stroke-width="1.65" d="M50.91,-454.78C48.65,-451.3 46.62,-447.67 45,-444 35.99,-423.53 31.71,-398.85 29.71,-378.83"/>
<polygon fill="#0ba943" stroke="#0ba943" stroke-width="1.65" points="31.92,-378.41 29.11,-372.24 27.46,-378.81 31.92,-378.41"/>
<text text-anchor="middle" x="62" y="-415.5" font-family="Arial" font-size="10.00" fill="#0ba943">41.17%</text>
<text text-anchor="middle" x="62" y="-404.5" font-family="Arial" font-size="10.00" fill="#0ba943">1×</text>
</g>
<!-- add_vectors -->
<g id="node16" class="node">
<title>add_vectors</title>
<polygon fill="#0c6a8b" stroke="#0c6a8b" points="118,-269 48,-269 48,-206 118,-206 118,-269"/>
<text text-anchor="middle" x="83" y="-257" font-family="Arial" font-size="10.00" fill="#ffffff">miniRT</text>
<text text-anchor="middle" x="83" y="-246" font-family="Arial" font-size="10.00" fill="#ffffff">add_vectors</text>
<text text-anchor="middle" x="83" y="-235" font-family="Arial" font-size="10.00" fill="#ffffff">18.52%</text>
<text text-anchor="middle" x="83" y="-224" font-family="Arial" font-size="10.00" fill="#ffffff">(10.04%)</text>
<text text-anchor="middle" x="83" y="-213" font-family="Arial" font-size="10.00" fill="#ffffff">1555200×</text>
</g>
<!-- cal_rays&#45;&gt;add_vectors -->
<g id="edge12" class="edge">
<title>cal_rays&#45;&gt;add_vectors</title>
<path fill="none" stroke="#0c6a8b" stroke-width="0.74" d="M44.65,-308.92C50.79,-297.66 57.78,-284.81 64.1,-273.21"/>
<polygon fill="#0c6a8b" stroke="#0c6a8b" stroke-width="0.74" points="65.48,-273.82 66.22,-269.32 62.84,-272.38 65.48,-273.82"/>
<text text-anchor="middle" x="82.5" y="-292" font-family="Arial" font-size="10.00" fill="#0c6a8b">18.52%</text>
<text text-anchor="middle" x="82.5" y="-281" font-family="Arial" font-size="10.00" fill="#0c6a8b">1555200×</text>
</g>
<!-- scalar_multiplication -->
<g id="node17" class="node">
<title>scalar_multiplication</title>
<polygon fill="#0d327d" stroke="#0d327d" points="248.5,-269 143.5,-269 143.5,-206 248.5,-206 248.5,-269"/>
<text text-anchor="middle" x="196" y="-257" font-family="Arial" font-size="10.00" fill="#ffffff">miniRT</text>
<text text-anchor="middle" x="196" y="-246" font-family="Arial" font-size="10.00" fill="#ffffff">scalar_multiplication</text>
<text text-anchor="middle" x="196" y="-235" font-family="Arial" font-size="10.00" fill="#ffffff">8.33%</text>
<text text-anchor="middle" x="196" y="-224" font-family="Arial" font-size="10.00" fill="#ffffff">(4.08%)</text>
<text text-anchor="middle" x="196" y="-213" font-family="Arial" font-size="10.00" fill="#ffffff">778320×</text>
</g>
<!-- cal_rays&#45;&gt;scalar_multiplication -->
<g id="edge13" class="edge">
<title>cal_rays&#45;&gt;scalar_multiplication</title>
<path fill="none" stroke="#0d327d" stroke-width="0.5" d="M56.37,-311.08C57.56,-310.33 58.77,-309.63 60,-309 78.5,-299.43 86.78,-308.04 106,-300 123.35,-292.74 140.79,-281.85 155.64,-271.24"/>
<polygon fill="#0d327d" stroke="#0d327d" stroke-width="0.5" points="156.45,-272.16 158.57,-269.12 155.02,-270.18 156.45,-272.16"/>
<text text-anchor="middle" x="165" y="-292" font-family="Arial" font-size="10.00" fill="#0d327d">8.33%</text>
<text text-anchor="middle" x="165" y="-281" font-family="Arial" font-size="10.00" fill="#0d327d">778320×</text>
</g>
<!-- _create_base_render -->
<g id="node12" class="node">
<title>_create_base_render</title>
<polygon fill="#0d1575" stroke="#0d1575" points="217.5,-516 110.5,-516 110.5,-453 217.5,-453 217.5,-516"/>
<text text-anchor="middle" x="164" y="-504" font-family="Arial" font-size="10.00" fill="#ffffff">miniRT</text>
<text text-anchor="middle" x="164" y="-493" font-family="Arial" font-size="10.00" fill="#ffffff">_create_base_render</text>
<text text-anchor="middle" x="164" y="-482" font-family="Arial" font-size="10.00" fill="#ffffff">2.04%</text>
<text text-anchor="middle" x="164" y="-471" font-family="Arial" font-size="10.00" fill="#ffffff">(0.00%)</text>
<text text-anchor="middle" x="164" y="-460" font-family="Arial" font-size="10.00" fill="#ffffff">1×</text>
</g>
<!-- _erase_fill_render -->
<g id="node13" class="node">
<title>_erase_fill_render</title>
<polygon fill="#0d1575" stroke="#0d1575" points="217.5,-372 124.5,-372 124.5,-309 217.5,-309 217.5,-372"/>
<text text-anchor="middle" x="171" y="-360" font-family="Arial" font-size="10.00" fill="#ffffff">miniRT</text>
<text text-anchor="middle" x="171" y="-349" font-family="Arial" font-size="10.00" fill="#ffffff">_erase_fill_render</text>
<text text-anchor="middle" x="171" y="-338" font-family="Arial" font-size="10.00" fill="#ffffff">2.04%</text>
<text text-anchor="middle" x="171" y="-327" font-family="Arial" font-size="10.00" fill="#ffffff">(2.04%)</text>
<text text-anchor="middle" x="171" y="-316" font-family="Arial" font-size="10.00" fill="#ffffff">1×</text>
</g>
<!-- _create_base_render&#45;&gt;_erase_fill_render -->
<g id="edge8" class="edge">
<title>_create_base_render&#45;&gt;_erase_fill_render</title>
<path fill="none" stroke="#0d1575" stroke-width="0.5" d="M153.69,-452.65C153,-449.75 152.42,-446.84 152,-444 147.89,-416.3 145.78,-408.3 152,-381 152.42,-379.15 152.94,-377.28 153.54,-375.41"/>
<polygon fill="#0d1575" stroke="#0d1575" stroke-width="0.5" points="154.71,-375.78 154.69,-372.07 152.39,-374.98 154.71,-375.78"/>
<text text-anchor="middle" x="166" y="-415.5" font-family="Arial" font-size="10.00" fill="#0d1575">2.04%</text>
<text text-anchor="middle" x="166" y="-404.5" font-family="Arial" font-size="10.00" fill="#0d1575">1×</text>
</g>
<!-- _create_window&#45;&gt;_create_base_render -->
<g id="edge9" class="edge">
<title>_create_window&#45;&gt;_create_base_render</title>
<path fill="none" stroke="#0d1575" stroke-width="0.5" d="M164,-555.92C164,-544.56 164,-531.59 164,-519.9"/>
<polygon fill="#0d1575" stroke="#0d1575" stroke-width="0.5" points="165.23,-519.82 164,-516.32 162.78,-519.82 165.23,-519.82"/>
<text text-anchor="middle" x="178" y="-539" font-family="Arial" font-size="10.00" fill="#0d1575">2.04%</text>
<text text-anchor="middle" x="178" y="-528" font-family="Arial" font-size="10.00" fill="#0d1575">1×</text>
</g>
<!-- _replace_sized_pixel_on_render -->
<g id="node15" class="node">
<title>_replace_sized_pixel_on_render</title>
<polygon fill="#0d287b" stroke="#0d287b" points="339.5,-444 184.5,-444 184.5,-381 339.5,-381 339.5,-444"/>
<text text-anchor="middle" x="262" y="-432" font-family="Arial" font-size="10.00" fill="#ffffff">miniRT</text>
<text text-anchor="middle" x="262" y="-421" font-family="Arial" font-size="10.00" fill="#ffffff">_replace_sized_pixel_on_render</text>
<text text-anchor="middle" x="262" y="-410" font-family="Arial" font-size="10.00" fill="#ffffff">6.16%</text>
<text text-anchor="middle" x="262" y="-399" font-family="Arial" font-size="10.00" fill="#ffffff">(5.89%)</text>
<text text-anchor="middle" x="262" y="-388" font-family="Arial" font-size="10.00" fill="#ffffff">48600×</text>
</g>
<!-- _replace_sized_pixel_on_render&#45;&gt;mcount -->
<g id="edge10" class="edge">
<title>_replace_sized_pixel_on_render&#45;&gt;mcount</title>
<path fill="none" stroke="#0d0e73" stroke-width="0.5" d="M264.1,-380.76C266.34,-353.53 270.6,-312.82 278,-278 286.02,-240.28 299.6,-198.21 309.56,-169.63"/>
<polygon fill="#0d0e73" stroke="#0d0e73" stroke-width="0.5" points="310.75,-169.92 310.75,-166.21 308.44,-169.11 310.75,-169.92"/>
<text text-anchor="middle" x="294.5" y="-292" font-family="Arial" font-size="10.00" fill="#0d0e73">0.26%</text>
<text text-anchor="middle" x="294.5" y="-281" font-family="Arial" font-size="10.00" fill="#0d0e73">48600×</text>
</g>
<!-- add_vectors&#45;&gt;mcount -->
<g id="edge11" class="edge">
<title>add_vectors&#45;&gt;mcount</title>
<path fill="none" stroke="#0d337e" stroke-width="0.5" d="M117.81,-205.97C131.97,-194.87 148.99,-183.07 166,-175 206.06,-156 256.41,-145.38 288.9,-140.05"/>
<polygon fill="#0d337e" stroke="#0d337e" stroke-width="0.5" points="289.11,-141.25 292.37,-139.48 288.72,-138.83 289.11,-141.25"/>
<text text-anchor="middle" x="187.5" y="-189" font-family="Arial" font-size="10.00" fill="#0d337e">8.48%</text>
<text text-anchor="middle" x="187.5" y="-178" font-family="Arial" font-size="10.00" fill="#0d337e">1555200×</text>
</g>
<!-- scalar_multiplication&#45;&gt;mcount -->
<g id="edge19" class="edge">
<title>scalar_multiplication&#45;&gt;mcount</title>
<path fill="none" stroke="#0d1f78" stroke-width="0.5" d="M205.78,-205.83C210.48,-194.96 217.08,-183.37 226,-175 243.39,-158.68 268.46,-148.68 288.62,-142.82"/>
<polygon fill="#0d1f78" stroke="#0d1f78" stroke-width="0.5" points="289.03,-143.98 292.06,-141.85 288.36,-141.62 289.03,-143.98"/>
<text text-anchor="middle" x="245" y="-189" font-family="Arial" font-size="10.00" fill="#0d1f78">4.24%</text>
<text text-anchor="middle" x="245" y="-178" font-family="Arial" font-size="10.00" fill="#0d1f78">778320×</text>
</g>
<!-- start_rays&#45;&gt;_replace_sized_pixel_on_render -->
<g id="edge20" class="edge">
<title>start_rays&#45;&gt;_replace_sized_pixel_on_render</title>
<path fill="none" stroke="#0d287b" stroke-width="0.5" d="M262,-555.97C262,-525.68 262,-479.33 262,-447.79"/>
<polygon fill="#0d287b" stroke="#0d287b" stroke-width="0.5" points="263.23,-447.52 262,-444.02 260.78,-447.52 263.23,-447.52"/>
<text text-anchor="middle" x="278.5" y="-539" font-family="Arial" font-size="10.00" fill="#0d287b">6.16%</text>
<text text-anchor="middle" x="278.5" y="-528" font-family="Arial" font-size="10.00" fill="#0d287b">48600×</text>
</g>
<!-- traceray -->
<g id="node19" class="node">
<title>traceray</title>
<polygon fill="#0ab11e" stroke="#0ab11e" points="383,-516 331,-516 331,-453 383,-453 383,-516"/>
<text text-anchor="middle" x="357" y="-504" font-family="Arial" font-size="10.00" fill="#ffffff">miniRT</text>
<text text-anchor="middle" x="357" y="-493" font-family="Arial" font-size="10.00" fill="#ffffff">traceray</text>
<text text-anchor="middle" x="357" y="-482" font-family="Arial" font-size="10.00" fill="#ffffff">46.99%</text>
<text text-anchor="middle" x="357" y="-471" font-family="Arial" font-size="10.00" fill="#ffffff">(6.49%)</text>
<text text-anchor="middle" x="357" y="-460" font-family="Arial" font-size="10.00" fill="#ffffff">48600×</text>
</g>
<!-- start_rays&#45;&gt;traceray -->
<g id="edge21" class="edge">
<title>start_rays&#45;&gt;traceray</title>
<path fill="none" stroke="#0ab11e" stroke-width="1.88" d="M290.76,-555.92C301.94,-544.03 314.77,-530.39 326.15,-518.3"/>
<polygon fill="#0ab11e" stroke="#0ab11e" stroke-width="1.88" points="327.96,-519.9 330.92,-513.22 324.44,-516.59 327.96,-519.9"/>
<text text-anchor="middle" x="335" y="-539" font-family="Arial" font-size="10.00" fill="#0ab11e">46.99%</text>
<text text-anchor="middle" x="335" y="-528" font-family="Arial" font-size="10.00" fill="#0ab11e">48600×</text>
</g>
<!-- traceray&#45;&gt;IntersectRaySphere -->
<g id="edge23" class="edge">
<title>traceray&#45;&gt;IntersectRaySphere</title>
<path fill="none" stroke="#0ba74b" stroke-width="1.59" d="M379.13,-452.69C395.04,-430.54 416.53,-400.62 433.21,-377.4"/>
<polygon fill="#0ba74b" stroke="#0ba74b" stroke-width="1.59" points="435.03,-378.65 436.91,-372.25 431.44,-376.08 435.03,-378.65"/>
<text text-anchor="middle" x="447" y="-415.5" font-family="Arial" font-size="10.00" fill="#0ba74b">39.72%</text>
<text text-anchor="middle" x="447" y="-404.5" font-family="Arial" font-size="10.00" fill="#0ba74b">777600×</text>
</g>
<!-- traceray&#45;&gt;dot_product -->
<g id="edge24" class="edge">
<title>traceray&#45;&gt;dot_product</title>
<path fill="none" stroke="#0d0f73" stroke-width="0.5" d="M358.62,-452.97C361.05,-407.08 365.64,-320.64 368.19,-272.7"/>
<polygon fill="#0d0f73" stroke="#0d0f73" stroke-width="0.5" points="369.42,-272.59 368.38,-269.03 366.97,-272.46 369.42,-272.59"/>
<text text-anchor="middle" x="382.5" y="-343.5" font-family="Arial" font-size="10.00" fill="#0d0f73">0.52%</text>
<text text-anchor="middle" x="382.5" y="-332.5" font-family="Arial" font-size="10.00" fill="#0d0f73">48600×</text>
</g>
<!-- traceray&#45;&gt;mcount -->
<g id="edge25" class="edge">
<title>traceray&#45;&gt;mcount</title>
<path fill="none" stroke="#0d0e73" stroke-width="0.5" d="M352.34,-452.94C345.66,-408.71 333.84,-328.98 331,-300 326.6,-255.1 324.2,-203.07 323.01,-169.75"/>
<polygon fill="#0d0e73" stroke="#0d0e73" stroke-width="0.5" points="324.24,-169.64 322.89,-166.18 321.79,-169.72 324.24,-169.64"/>
<text text-anchor="middle" x="347.5" y="-292" font-family="Arial" font-size="10.00" fill="#0d0e73">0.26%</text>
<text text-anchor="middle" x="347.5" y="-281" font-family="Arial" font-size="10.00" fill="#0d0e73">48600×</text>
</g>
</g>
</svg>
