<?xml version="1.0" encoding="UTF-8" standalone="no"?>
<!DOCTYPE svg PUBLIC "-//W3C//DTD SVG 1.1//EN"
 "http://www.w3.org/Graphics/SVG/1.1/DTD/svg11.dtd">
<!-- Generated by graphviz version 2.43.0 (0)
 -->
<!-- Title: %3 Pages: 1 -->
<svg width="520pt" height="936pt"
 viewBox="0.00 0.00 519.50 936.00" xmlns="http://www.w3.org/2000/svg" xmlns:xlink="http://www.w3.org/1999/xlink">
<g id="graph0" class="graph" transform="scale(1 1) rotate(0) translate(4 932)">
<title>%3</title>
<g id="a_graph0"><a xlink:title=" ">
<polygon fill="#e8cadb" stroke="transparent" points="-4,4 -4,-932 515.5,-932 515.5,4 -4,4"/>
</a>
</g>
<!-- (below main) -->
<g id="node1" class="node">
<title>(below main)</title>
<polygon fill="#ff0000" stroke="#ff0000" points="243,-825 171,-825 171,-762 243,-762 243,-825"/>
<text text-anchor="middle" x="207" y="-813" font-family="Arial" font-size="10.00" fill="#ffffff">miniRT</text>
<text text-anchor="middle" x="207" y="-802" font-family="Arial" font-size="10.00" fill="#ffffff">(below main)</text>
<text text-anchor="middle" x="207" y="-791" font-family="Arial" font-size="10.00" fill="#ffffff">99.99%</text>
<text text-anchor="middle" x="207" y="-780" font-family="Arial" font-size="10.00" fill="#ffffff">(0.00%)</text>
<text text-anchor="middle" x="207" y="-769" font-family="Arial" font-size="10.00" fill="#ffffff">2×</text>
</g>
<!-- main -->
<g id="node2" class="node">
<title>main</title>
<polygon fill="#ff0000" stroke="#ff0000" points="232,-722 182,-722 182,-659 232,-659 232,-722"/>
<text text-anchor="middle" x="207" y="-710" font-family="Arial" font-size="10.00" fill="#ffffff">miniRT</text>
<text text-anchor="middle" x="207" y="-699" font-family="Arial" font-size="10.00" fill="#ffffff">main</text>
<text text-anchor="middle" x="207" y="-688" font-family="Arial" font-size="10.00" fill="#ffffff">99.99%</text>
<text text-anchor="middle" x="207" y="-677" font-family="Arial" font-size="10.00" fill="#ffffff">(0.00%)</text>
<text text-anchor="middle" x="207" y="-666" font-family="Arial" font-size="10.00" fill="#ffffff">1×</text>
</g>
<!-- (below main)&#45;&gt;main -->
<g id="edge1" class="edge">
<title>(below main)&#45;&gt;main</title>
<path fill="none" stroke="#ff0000" stroke-width="4" d="M207,-761.92C207,-752.61 207,-742.23 207,-732.36"/>
<polygon fill="#ff0000" stroke="#ff0000" stroke-width="4" points="210.5,-732.32 207,-722.32 203.5,-732.32 210.5,-732.32"/>
<text text-anchor="middle" x="224" y="-745" font-family="Arial" font-size="10.00" fill="#ff0000">99.99%</text>
<text text-anchor="middle" x="224" y="-734" font-family="Arial" font-size="10.00" fill="#ff0000">1×</text>
</g>
<!-- __init__ -->
<g id="node8" class="node">
<title>__init__</title>
<polygon fill="#0d2a7b" stroke="#0d2a7b" points="200,-619 150,-619 150,-556 200,-556 200,-619"/>
<text text-anchor="middle" x="175" y="-607" font-family="Arial" font-size="10.00" fill="#ffffff">miniRT</text>
<text text-anchor="middle" x="175" y="-596" font-family="Arial" font-size="10.00" fill="#ffffff">__init__</text>
<text text-anchor="middle" x="175" y="-585" font-family="Arial" font-size="10.00" fill="#ffffff">6.72%</text>
<text text-anchor="middle" x="175" y="-574" font-family="Arial" font-size="10.00" fill="#ffffff">(0.00%)</text>
<text text-anchor="middle" x="175" y="-563" font-family="Arial" font-size="10.00" fill="#ffffff">1×</text>
</g>
<!-- main&#45;&gt;__init__ -->
<g id="edge13" class="edge">
<title>main&#45;&gt;__init__</title>
<path fill="none" stroke="#0d2a7b" stroke-width="0.5" d="M197.31,-658.92C193.71,-647.56 189.6,-634.59 185.9,-622.9"/>
<polygon fill="#0d2a7b" stroke="#0d2a7b" stroke-width="0.5" points="186.99,-622.29 184.77,-619.32 184.65,-623.03 186.99,-622.29"/>
<text text-anchor="middle" x="208" y="-642" font-family="Arial" font-size="10.00" fill="#0d2a7b">6.72%</text>
<text text-anchor="middle" x="208" y="-631" font-family="Arial" font-size="10.00" fill="#0d2a7b">1×</text>
</g>
<!-- start_rays -->
<g id="node15" class="node">
<title>start_rays</title>
<polygon fill="#f44602" stroke="#f44602" points="279,-619 219,-619 219,-556 279,-556 279,-619"/>
<text text-anchor="middle" x="249" y="-607" font-family="Arial" font-size="10.00" fill="#ffffff">miniRT</text>
<text text-anchor="middle" x="249" y="-596" font-family="Arial" font-size="10.00" fill="#ffffff">start_rays</text>
<text text-anchor="middle" x="249" y="-585" font-family="Arial" font-size="10.00" fill="#ffffff">93.01%</text>
<text text-anchor="middle" x="249" y="-574" font-family="Arial" font-size="10.00" fill="#ffffff">(0.90%)</text>
<text text-anchor="middle" x="249" y="-563" font-family="Arial" font-size="10.00" fill="#ffffff">1×</text>
</g>
<!-- main&#45;&gt;start_rays -->
<g id="edge14" class="edge">
<title>main&#45;&gt;start_rays</title>
<path fill="none" stroke="#f44602" stroke-width="3.72" d="M220.24,-658.9C221.52,-655.9 222.79,-652.89 224,-650 226.94,-642.97 230.03,-635.47 232.99,-628.22"/>
<polygon fill="#f44602" stroke="#f44602" stroke-width="3.72" points="236.15,-629.37 236.66,-619.21 229.93,-626.83 236.15,-629.37"/>
<text text-anchor="middle" x="251" y="-642" font-family="Arial" font-size="10.00" fill="#f44602">93.01%</text>
<text text-anchor="middle" x="251" y="-631" font-family="Arial" font-size="10.00" fill="#f44602">1×</text>
</g>
<!-- 0x0000000000020290 -->
<g id="node3" class="node">
<title>0x0000000000020290</title>
<polygon fill="#ff0000" stroke="#ff0000" points="262.5,-928 151.5,-928 151.5,-865 262.5,-865 262.5,-928"/>
<text text-anchor="middle" x="207" y="-916" font-family="Arial" font-size="10.00" fill="#ffffff">ld&#45;linux&#45;x86&#45;64.so.2</text>
<text text-anchor="middle" x="207" y="-905" font-family="Arial" font-size="10.00" fill="#ffffff">0x0000000000020290</text>
<text text-anchor="middle" x="207" y="-894" font-family="Arial" font-size="10.00" fill="#ffffff">100.00%</text>
<text text-anchor="middle" x="207" y="-883" font-family="Arial" font-size="10.00" fill="#ffffff">(0.00%)</text>
<text text-anchor="middle" x="207" y="-872" font-family="Arial" font-size="10.00" fill="#ffffff">0×</text>
</g>
<!-- 0x0000000000020290&#45;&gt;(below main) -->
<g id="edge2" class="edge">
<title>0x0000000000020290&#45;&gt;(below main)</title>
<path fill="none" stroke="#ff0000" stroke-width="4" d="M207,-864.92C207,-855.61 207,-845.23 207,-835.36"/>
<polygon fill="#ff0000" stroke="#ff0000" stroke-width="4" points="210.5,-835.32 207,-825.32 203.5,-835.32 210.5,-835.32"/>
<text text-anchor="middle" x="224" y="-848" font-family="Arial" font-size="10.00" fill="#ff0000">99.99%</text>
<text text-anchor="middle" x="224" y="-837" font-family="Arial" font-size="10.00" fill="#ff0000">1×</text>
</g>
<!-- IntersectRaySphere -->
<g id="node4" class="node">
<title>IntersectRaySphere</title>
<polygon fill="#dbd305" stroke="#dbd305" points="405,-372 301,-372 301,-309 405,-309 405,-372"/>
<text text-anchor="middle" x="353" y="-360" font-family="Arial" font-size="10.00" fill="#ffffff">miniRT</text>
<text text-anchor="middle" x="353" y="-349" font-family="Arial" font-size="10.00" fill="#ffffff">IntersectRaySphere</text>
<text text-anchor="middle" x="353" y="-338" font-family="Arial" font-size="10.00" fill="#ffffff">75.90%</text>
<text text-anchor="middle" x="353" y="-327" font-family="Arial" font-size="10.00" fill="#ffffff">(18.08%)</text>
<text text-anchor="middle" x="353" y="-316" font-family="Arial" font-size="10.00" fill="#ffffff">31104000×</text>
</g>
<!-- dot_product -->
<g id="node5" class="node">
<title>dot_product</title>
<polygon fill="#0b9f6d" stroke="#0b9f6d" points="283,-269 215,-269 215,-206 283,-206 283,-269"/>
<text text-anchor="middle" x="249" y="-257" font-family="Arial" font-size="10.00" fill="#ffffff">miniRT</text>
<text text-anchor="middle" x="249" y="-246" font-family="Arial" font-size="10.00" fill="#ffffff">dot_product</text>
<text text-anchor="middle" x="249" y="-235" font-family="Arial" font-size="10.00" fill="#ffffff">33.48%</text>
<text text-anchor="middle" x="249" y="-224" font-family="Arial" font-size="10.00" fill="#ffffff">(17.05%)</text>
<text text-anchor="middle" x="249" y="-213" font-family="Arial" font-size="10.00" fill="#ffffff">64281601×</text>
</g>
<!-- IntersectRaySphere&#45;&gt;dot_product -->
<g id="edge3" class="edge">
<title>IntersectRaySphere&#45;&gt;dot_product</title>
<path fill="none" stroke="#0b9d72" stroke-width="1.3" d="M300.7,-312.11C298.45,-311.04 296.21,-310 294,-309 284,-304.47 278.65,-307.88 271,-300 264.26,-293.06 259.57,-283.92 256.31,-274.81"/>
<polygon fill="#0b9d72" stroke="#0b9d72" stroke-width="1.3" points="258.13,-273.96 254.46,-269.16 254.34,-275.2 258.13,-273.96"/>
<text text-anchor="middle" x="295.5" y="-292" font-family="Arial" font-size="10.00" fill="#0b9d72">32.40%</text>
<text text-anchor="middle" x="295.5" y="-281" font-family="Arial" font-size="10.00" fill="#0b9d72">62208000×</text>
</g>
<!-- mcount -->
<g id="node6" class="node">
<title>mcount</title>
<polygon fill="#0ba165" stroke="#0ba165" points="280,-166 210,-166 210,-103 280,-103 280,-166"/>
<text text-anchor="middle" x="245" y="-154" font-family="Arial" font-size="10.00" fill="#ffffff">libc.so.6</text>
<text text-anchor="middle" x="245" y="-143" font-family="Arial" font-size="10.00" fill="#ffffff">mcount</text>
<text text-anchor="middle" x="245" y="-132" font-family="Arial" font-size="10.00" fill="#ffffff">34.99%</text>
<text text-anchor="middle" x="245" y="-121" font-family="Arial" font-size="10.00" fill="#ffffff">(27.22%)</text>
<text text-anchor="middle" x="245" y="-110" font-family="Arial" font-size="10.00" fill="#ffffff">136860451×</text>
</g>
<!-- IntersectRaySphere&#45;&gt;mcount -->
<g id="edge4" class="edge">
<title>IntersectRaySphere&#45;&gt;mcount</title>
<path fill="none" stroke="#0d307d" stroke-width="0.5" d="M337.63,-308.76C332,-298.6 325.22,-287.48 318,-278 314.57,-273.5 311.54,-274.05 309,-269 290,-231.28 316.17,-211.55 295,-175 291.82,-169.51 287.55,-164.49 282.85,-160.02"/>
<polygon fill="#0d307d" stroke="#0d307d" stroke-width="0.5" points="283.6,-159.05 280.19,-157.59 281.95,-160.85 283.6,-159.05"/>
<text text-anchor="middle" x="333.5" y="-240.5" font-family="Arial" font-size="10.00" fill="#0d307d">7.95%</text>
<text text-anchor="middle" x="333.5" y="-229.5" font-family="Arial" font-size="10.00" fill="#0d307d">31104000×</text>
</g>
<!-- sub_vectors -->
<g id="node7" class="node">
<title>sub_vectors</title>
<polygon fill="#0c6389" stroke="#0c6389" points="432,-269 362,-269 362,-206 432,-206 432,-269"/>
<text text-anchor="middle" x="397" y="-257" font-family="Arial" font-size="10.00" fill="#ffffff">miniRT</text>
<text text-anchor="middle" x="397" y="-246" font-family="Arial" font-size="10.00" fill="#ffffff">sub_vectors</text>
<text text-anchor="middle" x="397" y="-235" font-family="Arial" font-size="10.00" fill="#ffffff">17.38%</text>
<text text-anchor="middle" x="397" y="-224" font-family="Arial" font-size="10.00" fill="#ffffff">(9.43%)</text>
<text text-anchor="middle" x="397" y="-213" font-family="Arial" font-size="10.00" fill="#ffffff">31104000×</text>
</g>
<!-- IntersectRaySphere&#45;&gt;sub_vectors -->
<g id="edge5" class="edge">
<title>IntersectRaySphere&#45;&gt;sub_vectors</title>
<path fill="none" stroke="#0c6389" stroke-width="0.7" d="M366.32,-308.92C371.23,-297.66 376.82,-284.81 381.88,-273.21"/>
<polygon fill="#0c6389" stroke="#0c6389" stroke-width="0.7" points="383.24,-273.76 383.57,-269.32 380.55,-272.59 383.24,-273.76"/>
<text text-anchor="middle" x="402.5" y="-292" font-family="Arial" font-size="10.00" fill="#0c6389">17.38%</text>
<text text-anchor="middle" x="402.5" y="-281" font-family="Arial" font-size="10.00" fill="#0c6389">31104000×</text>
</g>
<!-- dot_product&#45;&gt;mcount -->
<g id="edge12" class="edge">
<title>dot_product&#45;&gt;mcount</title>
<path fill="none" stroke="#0c5e88" stroke-width="0.66" d="M247.79,-205.92C247.35,-194.75 246.84,-182.04 246.39,-170.51"/>
<polygon fill="#0c5e88" stroke="#0c5e88" stroke-width="0.66" points="247.82,-170.36 246.22,-166.32 244.95,-170.48 247.82,-170.36"/>
<text text-anchor="middle" x="272.5" y="-189" font-family="Arial" font-size="10.00" fill="#0c5e88">16.44%</text>
<text text-anchor="middle" x="272.5" y="-178" font-family="Arial" font-size="10.00" fill="#0c5e88">64281601×</text>
</g>
<!-- __mcount_internal -->
<g id="node10" class="node">
<title>__mcount_internal</title>
<polygon fill="#0d307d" stroke="#0d307d" points="293,-63 197,-63 197,0 293,0 293,-63"/>
<text text-anchor="middle" x="245" y="-51" font-family="Arial" font-size="10.00" fill="#ffffff">libc.so.6</text>
<text text-anchor="middle" x="245" y="-40" font-family="Arial" font-size="10.00" fill="#ffffff">__mcount_internal</text>
<text text-anchor="middle" x="245" y="-29" font-family="Arial" font-size="10.00" fill="#ffffff">7.78%</text>
<text text-anchor="middle" x="245" y="-18" font-family="Arial" font-size="10.00" fill="#ffffff">(7.78%)</text>
<text text-anchor="middle" x="245" y="-7" font-family="Arial" font-size="10.00" fill="#ffffff">136860451×</text>
</g>
<!-- mcount&#45;&gt;__mcount_internal -->
<g id="edge15" class="edge">
<title>mcount&#45;&gt;__mcount_internal</title>
<path fill="none" stroke="#0d307d" stroke-width="0.5" d="M245,-102.92C245,-91.56 245,-78.59 245,-66.9"/>
<polygon fill="#0d307d" stroke="#0d307d" stroke-width="0.5" points="246.23,-66.82 245,-63.32 243.78,-66.82 246.23,-66.82"/>
<text text-anchor="middle" x="272" y="-86" font-family="Arial" font-size="10.00" fill="#0d307d">7.78%</text>
<text text-anchor="middle" x="272" y="-75" font-family="Arial" font-size="10.00" fill="#0d307d">136860451×</text>
</g>
<!-- sub_vectors&#45;&gt;mcount -->
<g id="edge19" class="edge">
<title>sub_vectors&#45;&gt;mcount</title>
<path fill="none" stroke="#0d307d" stroke-width="0.5" d="M361.74,-210.84C359.46,-209.2 357.2,-207.57 355,-206 335.54,-192.08 331.05,-188.04 311,-175 302.23,-169.29 292.64,-163.38 283.56,-157.92"/>
<polygon fill="#0d307d" stroke="#0d307d" stroke-width="0.5" points="283.87,-156.68 280.24,-155.93 282.61,-158.78 283.87,-156.68"/>
<text text-anchor="middle" x="366.5" y="-189" font-family="Arial" font-size="10.00" fill="#0d307d">7.95%</text>
<text text-anchor="middle" x="366.5" y="-178" font-family="Arial" font-size="10.00" fill="#0d307d">31104000×</text>
</g>
<!-- cal_fov -->
<g id="node9" class="node">
<title>cal_fov</title>
<polygon fill="#0d2a7b" stroke="#0d2a7b" points="190,-516 140,-516 140,-453 190,-453 190,-516"/>
<text text-anchor="middle" x="165" y="-504" font-family="Arial" font-size="10.00" fill="#ffffff">miniRT</text>
<text text-anchor="middle" x="165" y="-493" font-family="Arial" font-size="10.00" fill="#ffffff">cal_fov</text>
<text text-anchor="middle" x="165" y="-482" font-family="Arial" font-size="10.00" fill="#ffffff">6.72%</text>
<text text-anchor="middle" x="165" y="-471" font-family="Arial" font-size="10.00" fill="#ffffff">(0.71%)</text>
<text text-anchor="middle" x="165" y="-460" font-family="Arial" font-size="10.00" fill="#ffffff">1×</text>
</g>
<!-- __init__&#45;&gt;cal_fov -->
<g id="edge6" class="edge">
<title>__init__&#45;&gt;cal_fov</title>
<path fill="none" stroke="#0d2a7b" stroke-width="0.5" d="M171.97,-555.92C170.85,-544.56 169.56,-531.59 168.41,-519.9"/>
<polygon fill="#0d2a7b" stroke="#0d2a7b" stroke-width="0.5" points="169.62,-519.68 168.05,-516.32 167.18,-519.93 169.62,-519.68"/>
<text text-anchor="middle" x="185" y="-539" font-family="Arial" font-size="10.00" fill="#0d2a7b">6.72%</text>
<text text-anchor="middle" x="185" y="-528" font-family="Arial" font-size="10.00" fill="#0d2a7b">1×</text>
</g>
<!-- cal_rays -->
<g id="node13" class="node">
<title>cal_rays</title>
<polygon fill="#0d277a" stroke="#0d277a" points="158.5,-372 105.5,-372 105.5,-309 158.5,-309 158.5,-372"/>
<text text-anchor="middle" x="132" y="-360" font-family="Arial" font-size="10.00" fill="#ffffff">miniRT</text>
<text text-anchor="middle" x="132" y="-349" font-family="Arial" font-size="10.00" fill="#ffffff">cal_rays</text>
<text text-anchor="middle" x="132" y="-338" font-family="Arial" font-size="10.00" fill="#ffffff">6.01%</text>
<text text-anchor="middle" x="132" y="-327" font-family="Arial" font-size="10.00" fill="#ffffff">(2.65%)</text>
<text text-anchor="middle" x="132" y="-316" font-family="Arial" font-size="10.00" fill="#ffffff">1×</text>
</g>
<!-- cal_fov&#45;&gt;cal_rays -->
<g id="edge9" class="edge">
<title>cal_fov&#45;&gt;cal_rays</title>
<path fill="none" stroke="#0d277a" stroke-width="0.5" d="M157.84,-452.69C152.59,-430.08 145.45,-399.36 140,-375.95"/>
<polygon fill="#0d277a" stroke="#0d277a" stroke-width="0.5" points="141.13,-375.38 139.15,-372.25 138.75,-375.94 141.13,-375.38"/>
<text text-anchor="middle" x="170" y="-415.5" font-family="Arial" font-size="10.00" fill="#0d277a">6.01%</text>
<text text-anchor="middle" x="170" y="-404.5" font-family="Arial" font-size="10.00" fill="#0d277a">1×</text>
</g>
<!-- _replace_sized_pixel_on_render -->
<g id="node11" class="node">
<title>_replace_sized_pixel_on_render</title>
<polygon fill="#0d1675" stroke="#0d1675" points="511.5,-444 356.5,-444 356.5,-381 511.5,-381 511.5,-444"/>
<text text-anchor="middle" x="434" y="-432" font-family="Arial" font-size="10.00" fill="#ffffff">miniRT</text>
<text text-anchor="middle" x="434" y="-421" font-family="Arial" font-size="10.00" fill="#ffffff">_replace_sized_pixel_on_render</text>
<text text-anchor="middle" x="434" y="-410" font-family="Arial" font-size="10.00" fill="#ffffff">2.14%</text>
<text text-anchor="middle" x="434" y="-399" font-family="Arial" font-size="10.00" fill="#ffffff">(1.61%)</text>
<text text-anchor="middle" x="434" y="-388" font-family="Arial" font-size="10.00" fill="#ffffff">2073600×</text>
</g>
<!-- _replace_sized_pixel_on_render&#45;&gt;mcount -->
<g id="edge7" class="edge">
<title>_replace_sized_pixel_on_render&#45;&gt;mcount</title>
<path fill="none" stroke="#0d0f73" stroke-width="0.5" d="M442.99,-380.89C453.51,-338.84 466.08,-262.06 437,-206 408.79,-151.62 331.42,-138.52 283.95,-135.75"/>
<polygon fill="#0d0f73" stroke="#0d0f73" stroke-width="0.5" points="283.86,-134.52 280.3,-135.56 283.73,-136.97 283.86,-134.52"/>
<text text-anchor="middle" x="475.5" y="-292" font-family="Arial" font-size="10.00" fill="#0d0f73">0.53%</text>
<text text-anchor="middle" x="475.5" y="-281" font-family="Arial" font-size="10.00" fill="#0d0f73">2073600×</text>
</g>
<!-- add_vectors -->
<g id="node12" class="node">
<title>add_vectors</title>
<polygon fill="#0d1676" stroke="#0d1676" points="70,-269 0,-269 0,-206 70,-206 70,-269"/>
<text text-anchor="middle" x="35" y="-257" font-family="Arial" font-size="10.00" fill="#ffffff">miniRT</text>
<text text-anchor="middle" x="35" y="-246" font-family="Arial" font-size="10.00" fill="#ffffff">add_vectors</text>
<text text-anchor="middle" x="35" y="-235" font-family="Arial" font-size="10.00" fill="#ffffff">2.32%</text>
<text text-anchor="middle" x="35" y="-224" font-family="Arial" font-size="10.00" fill="#ffffff">(1.26%)</text>
<text text-anchor="middle" x="35" y="-213" font-family="Arial" font-size="10.00" fill="#ffffff">4147200×</text>
</g>
<!-- add_vectors&#45;&gt;mcount -->
<g id="edge8" class="edge">
<title>add_vectors&#45;&gt;mcount</title>
<path fill="none" stroke="#0d1174" stroke-width="0.5" d="M57.89,-205.74C67.6,-194.61 79.74,-182.85 93,-175 128.06,-154.25 173.98,-144.26 206.13,-139.55"/>
<polygon fill="#0d1174" stroke="#0d1174" stroke-width="0.5" points="206.69,-140.71 209.98,-139 206.35,-138.28 206.69,-140.71"/>
<text text-anchor="middle" x="114.5" y="-189" font-family="Arial" font-size="10.00" fill="#0d1174">1.06%</text>
<text text-anchor="middle" x="114.5" y="-178" font-family="Arial" font-size="10.00" fill="#0d1174">4147200×</text>
</g>
<!-- cal_rays&#45;&gt;add_vectors -->
<g id="edge10" class="edge">
<title>cal_rays&#45;&gt;add_vectors</title>
<path fill="none" stroke="#0d1676" stroke-width="0.5" d="M105.23,-317.16C99.08,-311.71 92.68,-305.79 87,-300 78.39,-291.23 69.56,-281.23 61.68,-271.88"/>
<polygon fill="#0d1676" stroke="#0d1676" stroke-width="0.5" points="62.45,-270.9 59.27,-269 60.58,-272.47 62.45,-270.9"/>
<text text-anchor="middle" x="108.5" y="-292" font-family="Arial" font-size="10.00" fill="#0d1676">2.32%</text>
<text text-anchor="middle" x="108.5" y="-281" font-family="Arial" font-size="10.00" fill="#0d1676">4147200×</text>
</g>
<!-- scalar_multiplication -->
<g id="node14" class="node">
<title>scalar_multiplication</title>
<polygon fill="#0d1174" stroke="#0d1174" points="184.5,-269 79.5,-269 79.5,-206 184.5,-206 184.5,-269"/>
<text text-anchor="middle" x="132" y="-257" font-family="Arial" font-size="10.00" fill="#ffffff">miniRT</text>
<text text-anchor="middle" x="132" y="-246" font-family="Arial" font-size="10.00" fill="#ffffff">scalar_multiplication</text>
<text text-anchor="middle" x="132" y="-235" font-family="Arial" font-size="10.00" fill="#ffffff">1.04%</text>
<text text-anchor="middle" x="132" y="-224" font-family="Arial" font-size="10.00" fill="#ffffff">(0.51%)</text>
<text text-anchor="middle" x="132" y="-213" font-family="Arial" font-size="10.00" fill="#ffffff">2074680×</text>
</g>
<!-- cal_rays&#45;&gt;scalar_multiplication -->
<g id="edge11" class="edge">
<title>cal_rays&#45;&gt;scalar_multiplication</title>
<path fill="none" stroke="#0d1174" stroke-width="0.5" d="M132,-308.92C132,-297.56 132,-284.59 132,-272.9"/>
<polygon fill="#0d1174" stroke="#0d1174" stroke-width="0.5" points="133.23,-272.82 132,-269.32 130.78,-272.82 133.23,-272.82"/>
<text text-anchor="middle" x="153.5" y="-292" font-family="Arial" font-size="10.00" fill="#0d1174">1.04%</text>
<text text-anchor="middle" x="153.5" y="-281" font-family="Arial" font-size="10.00" fill="#0d1174">2074680×</text>
</g>
<!-- scalar_multiplication&#45;&gt;mcount -->
<g id="edge16" class="edge">
<title>scalar_multiplication&#45;&gt;mcount</title>
<path fill="none" stroke="#0d0f73" stroke-width="0.5" d="M134.92,-205.69C137.29,-194.94 141.51,-183.46 149,-175 163.8,-158.3 186.75,-148.51 206.49,-142.86"/>
<polygon fill="#0d0f73" stroke="#0d0f73" stroke-width="0.5" points="206.84,-144.03 209.89,-141.92 206.19,-141.67 206.84,-144.03"/>
<text text-anchor="middle" x="170.5" y="-189" font-family="Arial" font-size="10.00" fill="#0d0f73">0.53%</text>
<text text-anchor="middle" x="170.5" y="-178" font-family="Arial" font-size="10.00" fill="#0d0f73">2074680×</text>
</g>
<!-- start_rays&#45;&gt;_replace_sized_pixel_on_render -->
<g id="edge17" class="edge">
<title>start_rays&#45;&gt;_replace_sized_pixel_on_render</title>
<path fill="none" stroke="#0d1675" stroke-width="0.5" d="M279.17,-560.32C284.15,-555.91 289.24,-551.35 294,-547 330.73,-513.4 371.86,-473.95 399.98,-446.7"/>
<polygon fill="#0d1675" stroke="#0d1675" stroke-width="0.5" points="401,-447.41 402.66,-444.1 399.29,-445.65 401,-447.41"/>
<text text-anchor="middle" x="337.5" y="-539" font-family="Arial" font-size="10.00" fill="#0d1675">2.14%</text>
<text text-anchor="middle" x="337.5" y="-528" font-family="Arial" font-size="10.00" fill="#0d1675">2073600×</text>
</g>
<!-- traceray -->
<g id="node16" class="node">
<title>traceray</title>
<polygon fill="#f06202" stroke="#f06202" points="278.5,-516 219.5,-516 219.5,-453 278.5,-453 278.5,-516"/>
<text text-anchor="middle" x="249" y="-504" font-family="Arial" font-size="10.00" fill="#ffffff">miniRT</text>
<text text-anchor="middle" x="249" y="-493" font-family="Arial" font-size="10.00" fill="#ffffff">traceray</text>
<text text-anchor="middle" x="249" y="-482" font-family="Arial" font-size="10.00" fill="#ffffff">89.97%</text>
<text text-anchor="middle" x="249" y="-471" font-family="Arial" font-size="10.00" fill="#ffffff">(12.46%)</text>
<text text-anchor="middle" x="249" y="-460" font-family="Arial" font-size="10.00" fill="#ffffff">2073600×</text>
</g>
<!-- start_rays&#45;&gt;traceray -->
<g id="edge18" class="edge">
<title>start_rays&#45;&gt;traceray</title>
<path fill="none" stroke="#f06202" stroke-width="3.6" d="M249,-555.92C249,-546.52 249,-536.01 249,-526.05"/>
<polygon fill="#f06202" stroke="#f06202" stroke-width="3.6" points="252.33,-525.82 249,-516.32 245.68,-525.82 252.33,-525.82"/>
<text text-anchor="middle" x="270.5" y="-539" font-family="Arial" font-size="10.00" fill="#f06202">89.97%</text>
<text text-anchor="middle" x="270.5" y="-528" font-family="Arial" font-size="10.00" fill="#f06202">2073600×</text>
</g>
<!-- traceray&#45;&gt;IntersectRaySphere -->
<g id="edge20" class="edge">
<title>traceray&#45;&gt;IntersectRaySphere</title>
<path fill="none" stroke="#dbd305" stroke-width="3.04" d="M261.13,-452.77C270.54,-431.28 285,-402.65 303,-381 303.72,-380.14 304.45,-379.28 305.21,-378.44"/>
<polygon fill="#dbd305" stroke="#dbd305" stroke-width="3.04" points="307.48,-380.47 311.33,-372.09 303.1,-376.24 307.48,-380.47"/>
<text text-anchor="middle" x="327.5" y="-415.5" font-family="Arial" font-size="10.00" fill="#dbd305">75.90%</text>
<text text-anchor="middle" x="327.5" y="-404.5" font-family="Arial" font-size="10.00" fill="#dbd305">31104000×</text>
</g>
<!-- traceray&#45;&gt;dot_product -->
<g id="edge21" class="edge">
<title>traceray&#45;&gt;dot_product</title>
<path fill="none" stroke="#0d1174" stroke-width="0.5" d="M249,-452.97C249,-407.08 249,-320.64 249,-272.7"/>
<polygon fill="#0d1174" stroke="#0d1174" stroke-width="0.5" points="250.23,-272.53 249,-269.03 247.78,-272.53 250.23,-272.53"/>
<text text-anchor="middle" x="270.5" y="-343.5" font-family="Arial" font-size="10.00" fill="#0d1174">1.08%</text>
<text text-anchor="middle" x="270.5" y="-332.5" font-family="Arial" font-size="10.00" fill="#0d1174">2073600×</text>
</g>
<!-- traceray&#45;&gt;mcount -->
<g id="edge22" class="edge">
<title>traceray&#45;&gt;mcount</title>
<path fill="none" stroke="#0d0f73" stroke-width="0.5" d="M236.7,-452.99C217.64,-401.31 185.56,-293.63 210,-206 213.49,-193.49 219.21,-180.55 225.03,-169.22"/>
<polygon fill="#0d0f73" stroke="#0d0f73" stroke-width="0.5" points="226.14,-169.74 226.67,-166.07 223.97,-168.61 226.14,-169.74"/>
<text text-anchor="middle" x="223.5" y="-292" font-family="Arial" font-size="10.00" fill="#0d0f73">0.53%</text>
<text text-anchor="middle" x="223.5" y="-281" font-family="Arial" font-size="10.00" fill="#0d0f73">2073600×</text>
</g>
</g>
</svg>
