<?xml version="1.0" encoding="UTF-8" standalone="no"?>
<!DOCTYPE svg PUBLIC "-//W3C//DTD SVG 1.1//EN"
 "http://www.w3.org/Graphics/SVG/1.1/DTD/svg11.dtd">
<!-- Generated by graphviz version 2.43.0 (0)
 -->
<!-- Title: %3 Pages: 1 -->
<svg width="520pt" height="977pt"
 viewBox="0.00 0.00 519.50 977.00" xmlns="http://www.w3.org/2000/svg" xmlns:xlink="http://www.w3.org/1999/xlink">
<g id="graph0" class="graph" transform="scale(1 1) rotate(0) translate(4 973)">
<title>%3</title>
<g id="a_graph0"><a xlink:title=" ">
<polygon fill="#e8cadb" stroke="transparent" points="-4,4 -4,-973 515.5,-973 515.5,4 -4,4"/>
</a>
</g>
<!-- (below main) -->
<g id="node1" class="node">
<title>(below main)</title>
<polygon fill="#ff0000" stroke="#ff0000" points="244,-866 172,-866 172,-803 244,-803 244,-866"/>
<text text-anchor="middle" x="208" y="-854" font-family="Arial" font-size="10.00" fill="#ffffff">miniRT</text>
<text text-anchor="middle" x="208" y="-843" font-family="Arial" font-size="10.00" fill="#ffffff">(below main)</text>
<text text-anchor="middle" x="208" y="-832" font-family="Arial" font-size="10.00" fill="#ffffff">100.00%</text>
<text text-anchor="middle" x="208" y="-821" font-family="Arial" font-size="10.00" fill="#ffffff">(0.00%)</text>
<text text-anchor="middle" x="208" y="-810" font-family="Arial" font-size="10.00" fill="#ffffff">2×</text>
</g>
<!-- main -->
<g id="node2" class="node">
<title>main</title>
<polygon fill="#ff0000" stroke="#ff0000" points="235.5,-763 180.5,-763 180.5,-700 235.5,-700 235.5,-763"/>
<text text-anchor="middle" x="208" y="-751" font-family="Arial" font-size="10.00" fill="#ffffff">miniRT</text>
<text text-anchor="middle" x="208" y="-740" font-family="Arial" font-size="10.00" fill="#ffffff">main</text>
<text text-anchor="middle" x="208" y="-729" font-family="Arial" font-size="10.00" fill="#ffffff">100.00%</text>
<text text-anchor="middle" x="208" y="-718" font-family="Arial" font-size="10.00" fill="#ffffff">(0.00%)</text>
<text text-anchor="middle" x="208" y="-707" font-family="Arial" font-size="10.00" fill="#ffffff">1×</text>
</g>
<!-- (below main)&#45;&gt;main -->
<g id="edge1" class="edge">
<title>(below main)&#45;&gt;main</title>
<path fill="none" stroke="#ff0000" stroke-width="4" d="M208,-802.92C208,-793.61 208,-783.23 208,-773.36"/>
<polygon fill="#ff0000" stroke="#ff0000" stroke-width="4" points="211.5,-773.32 208,-763.32 204.5,-773.32 211.5,-773.32"/>
<text text-anchor="middle" x="227.5" y="-786" font-family="Arial" font-size="10.00" fill="#ff0000">100.00%</text>
<text text-anchor="middle" x="227.5" y="-775" font-family="Arial" font-size="10.00" fill="#ff0000">1×</text>
</g>
<!-- __init__ -->
<g id="node8" class="node">
<title>__init__</title>
<polygon fill="#0d247a" stroke="#0d247a" points="194,-588 144,-588 144,-525 194,-525 194,-588"/>
<text text-anchor="middle" x="169" y="-576" font-family="Arial" font-size="10.00" fill="#ffffff">miniRT</text>
<text text-anchor="middle" x="169" y="-565" font-family="Arial" font-size="10.00" fill="#ffffff">__init__</text>
<text text-anchor="middle" x="169" y="-554" font-family="Arial" font-size="10.00" fill="#ffffff">5.43%</text>
<text text-anchor="middle" x="169" y="-543" font-family="Arial" font-size="10.00" fill="#ffffff">(0.00%)</text>
<text text-anchor="middle" x="169" y="-532" font-family="Arial" font-size="10.00" fill="#ffffff">1×</text>
</g>
<!-- main&#45;&gt;__init__ -->
<g id="edge12" class="edge">
<title>main&#45;&gt;__init__</title>
<path fill="none" stroke="#0d247a" stroke-width="0.5" d="M197.54,-699.99C196.63,-696.97 195.77,-693.93 195,-691 186.3,-657.65 179.07,-618.94 174.46,-591.82"/>
<polygon fill="#0d247a" stroke="#0d247a" stroke-width="0.5" points="175.65,-591.48 173.86,-588.23 173.23,-591.89 175.65,-591.48"/>
<text text-anchor="middle" x="209" y="-683" font-family="Arial" font-size="10.00" fill="#0d247a">5.43%</text>
<text text-anchor="middle" x="209" y="-672" font-family="Arial" font-size="10.00" fill="#0d247a">1×</text>
</g>
<!-- start_rays -->
<g id="node14" class="node">
<title>start_rays</title>
<polygon fill="#f63901" stroke="#f63901" points="279,-660 219,-660 219,-597 279,-597 279,-660"/>
<text text-anchor="middle" x="249" y="-648" font-family="Arial" font-size="10.00" fill="#ffffff">miniRT</text>
<text text-anchor="middle" x="249" y="-637" font-family="Arial" font-size="10.00" fill="#ffffff">start_rays</text>
<text text-anchor="middle" x="249" y="-626" font-family="Arial" font-size="10.00" fill="#ffffff">94.32%</text>
<text text-anchor="middle" x="249" y="-615" font-family="Arial" font-size="10.00" fill="#ffffff">(0.86%)</text>
<text text-anchor="middle" x="249" y="-604" font-family="Arial" font-size="10.00" fill="#ffffff">1×</text>
</g>
<!-- main&#45;&gt;start_rays -->
<g id="edge13" class="edge">
<title>main&#45;&gt;start_rays</title>
<path fill="none" stroke="#f63901" stroke-width="3.77" d="M220.41,-699.92C224.31,-690.32 228.67,-679.57 232.79,-669.43"/>
<polygon fill="#f63901" stroke="#f63901" stroke-width="3.77" points="235.99,-670.59 236.49,-660.32 229.69,-668.03 235.99,-670.59"/>
<text text-anchor="middle" x="250" y="-683" font-family="Arial" font-size="10.00" fill="#f63901">94.32%</text>
<text text-anchor="middle" x="250" y="-672" font-family="Arial" font-size="10.00" fill="#f63901">1×</text>
</g>
<!-- 0x0000000000020290 -->
<g id="node3" class="node">
<title>0x0000000000020290</title>
<polygon fill="#ff0000" stroke="#ff0000" points="263.5,-969 152.5,-969 152.5,-906 263.5,-906 263.5,-969"/>
<text text-anchor="middle" x="208" y="-957" font-family="Arial" font-size="10.00" fill="#ffffff">ld&#45;linux&#45;x86&#45;64.so.2</text>
<text text-anchor="middle" x="208" y="-946" font-family="Arial" font-size="10.00" fill="#ffffff">0x0000000000020290</text>
<text text-anchor="middle" x="208" y="-935" font-family="Arial" font-size="10.00" fill="#ffffff">100.00%</text>
<text text-anchor="middle" x="208" y="-924" font-family="Arial" font-size="10.00" fill="#ffffff">(0.00%)</text>
<text text-anchor="middle" x="208" y="-913" font-family="Arial" font-size="10.00" fill="#ffffff">0×</text>
</g>
<!-- 0x0000000000020290&#45;&gt;(below main) -->
<g id="edge2" class="edge">
<title>0x0000000000020290&#45;&gt;(below main)</title>
<path fill="none" stroke="#ff0000" stroke-width="4" d="M208,-905.92C208,-896.61 208,-886.23 208,-876.36"/>
<polygon fill="#ff0000" stroke="#ff0000" stroke-width="4" points="211.5,-876.32 208,-866.32 204.5,-876.32 211.5,-876.32"/>
<text text-anchor="middle" x="227.5" y="-889" font-family="Arial" font-size="10.00" fill="#ff0000">100.00%</text>
<text text-anchor="middle" x="227.5" y="-878" font-family="Arial" font-size="10.00" fill="#ff0000">1×</text>
</g>
<!-- IntersectRaySphere -->
<g id="node4" class="node">
<title>IntersectRaySphere</title>
<polygon fill="#dec505" stroke="#dec505" points="405,-372 301,-372 301,-309 405,-309 405,-372"/>
<text text-anchor="middle" x="353" y="-360" font-family="Arial" font-size="10.00" fill="#ffffff">miniRT</text>
<text text-anchor="middle" x="353" y="-349" font-family="Arial" font-size="10.00" fill="#ffffff">IntersectRaySphere</text>
<text text-anchor="middle" x="353" y="-338" font-family="Arial" font-size="10.00" fill="#ffffff">77.81%</text>
<text text-anchor="middle" x="353" y="-327" font-family="Arial" font-size="10.00" fill="#ffffff">(25.74%)</text>
<text text-anchor="middle" x="353" y="-316" font-family="Arial" font-size="10.00" fill="#ffffff">33177600×</text>
</g>
<!-- dot_product -->
<g id="node5" class="node">
<title>dot_product</title>
<polygon fill="#0c9788" stroke="#0c9788" points="283,-269 215,-269 215,-206 283,-206 283,-269"/>
<text text-anchor="middle" x="249" y="-257" font-family="Arial" font-size="10.00" fill="#ffffff">miniRT</text>
<text text-anchor="middle" x="249" y="-246" font-family="Arial" font-size="10.00" fill="#ffffff">dot_product</text>
<text text-anchor="middle" x="249" y="-235" font-family="Arial" font-size="10.00" fill="#ffffff">27.75%</text>
<text text-anchor="middle" x="249" y="-224" font-family="Arial" font-size="10.00" fill="#ffffff">(11.46%)</text>
<text text-anchor="middle" x="249" y="-213" font-family="Arial" font-size="10.00" fill="#ffffff">68428801×</text>
</g>
<!-- IntersectRaySphere&#45;&gt;dot_product -->
<g id="edge3" class="edge">
<title>IntersectRaySphere&#45;&gt;dot_product</title>
<path fill="none" stroke="#0c968b" stroke-width="1.08" d="M300.7,-312.11C298.45,-311.04 296.21,-310 294,-309 284,-304.47 278.65,-307.88 271,-300 264.13,-292.93 259.4,-283.57 256.13,-274.3"/>
<polygon fill="#0c968b" stroke="#0c968b" stroke-width="1.08" points="257.8,-273.55 254.46,-269.16 254.34,-274.67 257.8,-273.55"/>
<text text-anchor="middle" x="295.5" y="-292" font-family="Arial" font-size="10.00" fill="#0c968b">26.91%</text>
<text text-anchor="middle" x="295.5" y="-281" font-family="Arial" font-size="10.00" fill="#0c968b">66355200×</text>
</g>
<!-- mcount -->
<g id="node6" class="node">
<title>mcount</title>
<polygon fill="#0ba067" stroke="#0ba067" points="280,-166 210,-166 210,-103 280,-103 280,-166"/>
<text text-anchor="middle" x="245" y="-154" font-family="Arial" font-size="10.00" fill="#ffffff">libc.so.6</text>
<text text-anchor="middle" x="245" y="-143" font-family="Arial" font-size="10.00" fill="#ffffff">mcount</text>
<text text-anchor="middle" x="245" y="-132" font-family="Arial" font-size="10.00" fill="#ffffff">34.55%</text>
<text text-anchor="middle" x="245" y="-121" font-family="Arial" font-size="10.00" fill="#ffffff">(26.87%)</text>
<text text-anchor="middle" x="245" y="-110" font-family="Arial" font-size="10.00" fill="#ffffff">145155917×</text>
</g>
<!-- IntersectRaySphere&#45;&gt;mcount -->
<g id="edge4" class="edge">
<title>IntersectRaySphere&#45;&gt;mcount</title>
<path fill="none" stroke="#0d307d" stroke-width="0.5" d="M337.63,-308.76C332,-298.6 325.22,-287.48 318,-278 314.57,-273.5 311.54,-274.05 309,-269 290,-231.28 316.17,-211.55 295,-175 291.82,-169.51 287.55,-164.49 282.85,-160.02"/>
<polygon fill="#0d307d" stroke="#0d307d" stroke-width="0.5" points="283.6,-159.05 280.19,-157.59 281.95,-160.85 283.6,-159.05"/>
<text text-anchor="middle" x="333.5" y="-240.5" font-family="Arial" font-size="10.00" fill="#0d307d">7.90%</text>
<text text-anchor="middle" x="333.5" y="-229.5" font-family="Arial" font-size="10.00" fill="#0d307d">33177600×</text>
</g>
<!-- sub_vectors -->
<g id="node7" class="node">
<title>sub_vectors</title>
<polygon fill="#0c6289" stroke="#0c6289" points="432,-269 362,-269 362,-206 432,-206 432,-269"/>
<text text-anchor="middle" x="397" y="-257" font-family="Arial" font-size="10.00" fill="#ffffff">miniRT</text>
<text text-anchor="middle" x="397" y="-246" font-family="Arial" font-size="10.00" fill="#ffffff">sub_vectors</text>
<text text-anchor="middle" x="397" y="-235" font-family="Arial" font-size="10.00" fill="#ffffff">17.25%</text>
<text text-anchor="middle" x="397" y="-224" font-family="Arial" font-size="10.00" fill="#ffffff">(9.36%)</text>
<text text-anchor="middle" x="397" y="-213" font-family="Arial" font-size="10.00" fill="#ffffff">33177600×</text>
</g>
<!-- IntersectRaySphere&#45;&gt;sub_vectors -->
<g id="edge5" class="edge">
<title>IntersectRaySphere&#45;&gt;sub_vectors</title>
<path fill="none" stroke="#0c6289" stroke-width="0.69" d="M366.32,-308.92C371.23,-297.66 376.82,-284.81 381.88,-273.21"/>
<polygon fill="#0c6289" stroke="#0c6289" stroke-width="0.69" points="383.24,-273.76 383.57,-269.32 380.55,-272.59 383.24,-273.76"/>
<text text-anchor="middle" x="402.5" y="-292" font-family="Arial" font-size="10.00" fill="#0c6289">17.25%</text>
<text text-anchor="middle" x="402.5" y="-281" font-family="Arial" font-size="10.00" fill="#0c6289">33177600×</text>
</g>
<!-- dot_product&#45;&gt;mcount -->
<g id="edge11" class="edge">
<title>dot_product&#45;&gt;mcount</title>
<path fill="none" stroke="#0c5d88" stroke-width="0.65" d="M247.79,-205.92C247.35,-194.75 246.84,-182.04 246.39,-170.51"/>
<polygon fill="#0c5d88" stroke="#0c5d88" stroke-width="0.65" points="247.78,-170.26 246.22,-166.32 244.98,-170.37 247.78,-170.26"/>
<text text-anchor="middle" x="272.5" y="-189" font-family="Arial" font-size="10.00" fill="#0c5d88">16.29%</text>
<text text-anchor="middle" x="272.5" y="-178" font-family="Arial" font-size="10.00" fill="#0c5d88">68428801×</text>
</g>
<!-- __mcount_internal -->
<g id="node10" class="node">
<title>__mcount_internal</title>
<polygon fill="#0d2f7d" stroke="#0d2f7d" points="293,-63 197,-63 197,0 293,0 293,-63"/>
<text text-anchor="middle" x="245" y="-51" font-family="Arial" font-size="10.00" fill="#ffffff">libc.so.6</text>
<text text-anchor="middle" x="245" y="-40" font-family="Arial" font-size="10.00" fill="#ffffff">__mcount_internal</text>
<text text-anchor="middle" x="245" y="-29" font-family="Arial" font-size="10.00" fill="#ffffff">7.68%</text>
<text text-anchor="middle" x="245" y="-18" font-family="Arial" font-size="10.00" fill="#ffffff">(7.68%)</text>
<text text-anchor="middle" x="245" y="-7" font-family="Arial" font-size="10.00" fill="#ffffff">145155917×</text>
</g>
<!-- mcount&#45;&gt;__mcount_internal -->
<g id="edge14" class="edge">
<title>mcount&#45;&gt;__mcount_internal</title>
<path fill="none" stroke="#0d2f7d" stroke-width="0.5" d="M245,-102.92C245,-91.56 245,-78.59 245,-66.9"/>
<polygon fill="#0d2f7d" stroke="#0d2f7d" stroke-width="0.5" points="246.23,-66.82 245,-63.32 243.78,-66.82 246.23,-66.82"/>
<text text-anchor="middle" x="272" y="-86" font-family="Arial" font-size="10.00" fill="#0d2f7d">7.68%</text>
<text text-anchor="middle" x="272" y="-75" font-family="Arial" font-size="10.00" fill="#0d2f7d">145155917×</text>
</g>
<!-- sub_vectors&#45;&gt;mcount -->
<g id="edge18" class="edge">
<title>sub_vectors&#45;&gt;mcount</title>
<path fill="none" stroke="#0d307d" stroke-width="0.5" d="M361.74,-210.84C359.46,-209.2 357.2,-207.57 355,-206 335.54,-192.08 331.05,-188.04 311,-175 302.23,-169.29 292.64,-163.38 283.56,-157.92"/>
<polygon fill="#0d307d" stroke="#0d307d" stroke-width="0.5" points="283.87,-156.68 280.24,-155.93 282.61,-158.78 283.87,-156.68"/>
<text text-anchor="middle" x="366.5" y="-189" font-family="Arial" font-size="10.00" fill="#0d307d">7.90%</text>
<text text-anchor="middle" x="366.5" y="-178" font-family="Arial" font-size="10.00" fill="#0d307d">33177600×</text>
</g>
<!-- cal_rays -->
<g id="node9" class="node">
<title>cal_rays</title>
<polygon fill="#0d2379" stroke="#0d2379" points="158.5,-372 105.5,-372 105.5,-309 158.5,-309 158.5,-372"/>
<text text-anchor="middle" x="132" y="-360" font-family="Arial" font-size="10.00" fill="#ffffff">miniRT</text>
<text text-anchor="middle" x="132" y="-349" font-family="Arial" font-size="10.00" fill="#ffffff">cal_rays</text>
<text text-anchor="middle" x="132" y="-338" font-family="Arial" font-size="10.00" fill="#ffffff">5.08%</text>
<text text-anchor="middle" x="132" y="-327" font-family="Arial" font-size="10.00" fill="#ffffff">(1.96%)</text>
<text text-anchor="middle" x="132" y="-316" font-family="Arial" font-size="10.00" fill="#ffffff">1×</text>
</g>
<!-- __init__&#45;&gt;cal_rays -->
<g id="edge6" class="edge">
<title>__init__&#45;&gt;cal_rays</title>
<path fill="none" stroke="#0d2379" stroke-width="0.5" d="M163.7,-524.84C156.88,-485.43 145.09,-417.19 137.97,-376"/>
<polygon fill="#0d2379" stroke="#0d2379" stroke-width="0.5" points="139.09,-375.34 137.29,-372.1 136.68,-375.76 139.09,-375.34"/>
<text text-anchor="middle" x="176" y="-487.5" font-family="Arial" font-size="10.00" fill="#0d2379">5.08%</text>
<text text-anchor="middle" x="176" y="-476.5" font-family="Arial" font-size="10.00" fill="#0d2379">1×</text>
</g>
<!-- add_vectors -->
<g id="node12" class="node">
<title>add_vectors</title>
<polygon fill="#0d1676" stroke="#0d1676" points="70,-269 0,-269 0,-206 70,-206 70,-269"/>
<text text-anchor="middle" x="35" y="-257" font-family="Arial" font-size="10.00" fill="#ffffff">miniRT</text>
<text text-anchor="middle" x="35" y="-246" font-family="Arial" font-size="10.00" fill="#ffffff">add_vectors</text>
<text text-anchor="middle" x="35" y="-235" font-family="Arial" font-size="10.00" fill="#ffffff">2.16%</text>
<text text-anchor="middle" x="35" y="-224" font-family="Arial" font-size="10.00" fill="#ffffff">(1.17%)</text>
<text text-anchor="middle" x="35" y="-213" font-family="Arial" font-size="10.00" fill="#ffffff">4147200×</text>
</g>
<!-- cal_rays&#45;&gt;add_vectors -->
<g id="edge9" class="edge">
<title>cal_rays&#45;&gt;add_vectors</title>
<path fill="none" stroke="#0d1676" stroke-width="0.5" d="M105.23,-317.16C99.08,-311.71 92.68,-305.79 87,-300 78.39,-291.23 69.56,-281.23 61.68,-271.88"/>
<polygon fill="#0d1676" stroke="#0d1676" stroke-width="0.5" points="62.45,-270.9 59.27,-269 60.58,-272.47 62.45,-270.9"/>
<text text-anchor="middle" x="108.5" y="-292" font-family="Arial" font-size="10.00" fill="#0d1676">2.16%</text>
<text text-anchor="middle" x="108.5" y="-281" font-family="Arial" font-size="10.00" fill="#0d1676">4147200×</text>
</g>
<!-- scalar_multiplication -->
<g id="node13" class="node">
<title>scalar_multiplication</title>
<polygon fill="#0d1174" stroke="#0d1174" points="184.5,-269 79.5,-269 79.5,-206 184.5,-206 184.5,-269"/>
<text text-anchor="middle" x="132" y="-257" font-family="Arial" font-size="10.00" fill="#ffffff">miniRT</text>
<text text-anchor="middle" x="132" y="-246" font-family="Arial" font-size="10.00" fill="#ffffff">scalar_multiplication</text>
<text text-anchor="middle" x="132" y="-235" font-family="Arial" font-size="10.00" fill="#ffffff">0.97%</text>
<text text-anchor="middle" x="132" y="-224" font-family="Arial" font-size="10.00" fill="#ffffff">(0.48%)</text>
<text text-anchor="middle" x="132" y="-213" font-family="Arial" font-size="10.00" fill="#ffffff">2074680×</text>
</g>
<!-- cal_rays&#45;&gt;scalar_multiplication -->
<g id="edge10" class="edge">
<title>cal_rays&#45;&gt;scalar_multiplication</title>
<path fill="none" stroke="#0d1174" stroke-width="0.5" d="M132,-308.92C132,-297.56 132,-284.59 132,-272.9"/>
<polygon fill="#0d1174" stroke="#0d1174" stroke-width="0.5" points="133.23,-272.82 132,-269.32 130.78,-272.82 133.23,-272.82"/>
<text text-anchor="middle" x="153.5" y="-292" font-family="Arial" font-size="10.00" fill="#0d1174">0.97%</text>
<text text-anchor="middle" x="153.5" y="-281" font-family="Arial" font-size="10.00" fill="#0d1174">2074680×</text>
</g>
<!-- _replace_sized_pixel_on_render -->
<g id="node11" class="node">
<title>_replace_sized_pixel_on_render</title>
<polygon fill="#0d1575" stroke="#0d1575" points="511.5,-444 356.5,-444 356.5,-381 511.5,-381 511.5,-444"/>
<text text-anchor="middle" x="434" y="-432" font-family="Arial" font-size="10.00" fill="#ffffff">miniRT</text>
<text text-anchor="middle" x="434" y="-421" font-family="Arial" font-size="10.00" fill="#ffffff">_replace_sized_pixel_on_render</text>
<text text-anchor="middle" x="434" y="-410" font-family="Arial" font-size="10.00" fill="#ffffff">1.99%</text>
<text text-anchor="middle" x="434" y="-399" font-family="Arial" font-size="10.00" fill="#ffffff">(1.50%)</text>
<text text-anchor="middle" x="434" y="-388" font-family="Arial" font-size="10.00" fill="#ffffff">2073600×</text>
</g>
<!-- _replace_sized_pixel_on_render&#45;&gt;mcount -->
<g id="edge7" class="edge">
<title>_replace_sized_pixel_on_render&#45;&gt;mcount</title>
<path fill="none" stroke="#0d0f73" stroke-width="0.5" d="M442.99,-380.89C453.51,-338.84 466.08,-262.06 437,-206 408.79,-151.62 331.42,-138.52 283.95,-135.75"/>
<polygon fill="#0d0f73" stroke="#0d0f73" stroke-width="0.5" points="283.86,-134.52 280.3,-135.56 283.73,-136.97 283.86,-134.52"/>
<text text-anchor="middle" x="475.5" y="-292" font-family="Arial" font-size="10.00" fill="#0d0f73">0.49%</text>
<text text-anchor="middle" x="475.5" y="-281" font-family="Arial" font-size="10.00" fill="#0d0f73">2073600×</text>
</g>
<!-- add_vectors&#45;&gt;mcount -->
<g id="edge8" class="edge">
<title>add_vectors&#45;&gt;mcount</title>
<path fill="none" stroke="#0d1174" stroke-width="0.5" d="M57.89,-205.74C67.6,-194.61 79.74,-182.85 93,-175 128.06,-154.25 173.98,-144.26 206.13,-139.55"/>
<polygon fill="#0d1174" stroke="#0d1174" stroke-width="0.5" points="206.69,-140.71 209.98,-139 206.35,-138.28 206.69,-140.71"/>
<text text-anchor="middle" x="114.5" y="-189" font-family="Arial" font-size="10.00" fill="#0d1174">0.99%</text>
<text text-anchor="middle" x="114.5" y="-178" font-family="Arial" font-size="10.00" fill="#0d1174">4147200×</text>
</g>
<!-- scalar_multiplication&#45;&gt;mcount -->
<g id="edge15" class="edge">
<title>scalar_multiplication&#45;&gt;mcount</title>
<path fill="none" stroke="#0d0f73" stroke-width="0.5" d="M134.92,-205.69C137.29,-194.94 141.51,-183.46 149,-175 163.8,-158.3 186.75,-148.51 206.49,-142.86"/>
<polygon fill="#0d0f73" stroke="#0d0f73" stroke-width="0.5" points="206.84,-144.03 209.89,-141.92 206.19,-141.67 206.84,-144.03"/>
<text text-anchor="middle" x="170.5" y="-189" font-family="Arial" font-size="10.00" fill="#0d0f73">0.49%</text>
<text text-anchor="middle" x="170.5" y="-178" font-family="Arial" font-size="10.00" fill="#0d0f73">2074680×</text>
</g>
<!-- start_rays&#45;&gt;_replace_sized_pixel_on_render -->
<g id="edge16" class="edge">
<title>start_rays&#45;&gt;_replace_sized_pixel_on_render</title>
<path fill="none" stroke="#0d1575" stroke-width="0.5" d="M279.21,-602.28C284.29,-597.68 289.4,-592.81 294,-588 338,-542 383.05,-483.38 409.76,-447.15"/>
<polygon fill="#0d1575" stroke="#0d1575" stroke-width="0.5" points="410.88,-447.69 411.97,-444.15 408.91,-446.24 410.88,-447.69"/>
<text text-anchor="middle" x="370.5" y="-559.5" font-family="Arial" font-size="10.00" fill="#0d1575">1.99%</text>
<text text-anchor="middle" x="370.5" y="-548.5" font-family="Arial" font-size="10.00" fill="#0d1575">2073600×</text>
</g>
<!-- traceray -->
<g id="node15" class="node">
<title>traceray</title>
<polygon fill="#f25402" stroke="#f25402" points="278.5,-516 219.5,-516 219.5,-453 278.5,-453 278.5,-516"/>
<text text-anchor="middle" x="249" y="-504" font-family="Arial" font-size="10.00" fill="#ffffff">miniRT</text>
<text text-anchor="middle" x="249" y="-493" font-family="Arial" font-size="10.00" fill="#ffffff">traceray</text>
<text text-anchor="middle" x="249" y="-482" font-family="Arial" font-size="10.00" fill="#ffffff">91.47%</text>
<text text-anchor="middle" x="249" y="-471" font-family="Arial" font-size="10.00" fill="#ffffff">(12.33%)</text>
<text text-anchor="middle" x="249" y="-460" font-family="Arial" font-size="10.00" fill="#ffffff">2073600×</text>
</g>
<!-- start_rays&#45;&gt;traceray -->
<g id="edge17" class="edge">
<title>start_rays&#45;&gt;traceray</title>
<path fill="none" stroke="#f25402" stroke-width="3.66" d="M249,-596.69C249,-575.94 249,-548.37 249,-525.87"/>
<polygon fill="#f25402" stroke="#f25402" stroke-width="3.66" points="252.36,-525.85 249,-516.25 245.64,-525.85 252.36,-525.85"/>
<text text-anchor="middle" x="270.5" y="-559.5" font-family="Arial" font-size="10.00" fill="#f25402">91.47%</text>
<text text-anchor="middle" x="270.5" y="-548.5" font-family="Arial" font-size="10.00" fill="#f25402">2073600×</text>
</g>
<!-- traceray&#45;&gt;IntersectRaySphere -->
<g id="edge19" class="edge">
<title>traceray&#45;&gt;IntersectRaySphere</title>
<path fill="none" stroke="#dec505" stroke-width="3.11" d="M261.13,-452.77C270.54,-431.28 285,-402.65 303,-381 303.72,-380.14 304.45,-379.28 305.21,-378.44"/>
<polygon fill="#dec505" stroke="#dec505" stroke-width="3.11" points="307.44,-380.56 311.33,-372.09 303,-376.29 307.44,-380.56"/>
<text text-anchor="middle" x="327.5" y="-415.5" font-family="Arial" font-size="10.00" fill="#dec505">77.81%</text>
<text text-anchor="middle" x="327.5" y="-404.5" font-family="Arial" font-size="10.00" fill="#dec505">33177600×</text>
</g>
<!-- traceray&#45;&gt;dot_product -->
<g id="edge20" class="edge">
<title>traceray&#45;&gt;dot_product</title>
<path fill="none" stroke="#0d1074" stroke-width="0.5" d="M249,-452.97C249,-407.08 249,-320.64 249,-272.7"/>
<polygon fill="#0d1074" stroke="#0d1074" stroke-width="0.5" points="250.23,-272.53 249,-269.03 247.78,-272.53 250.23,-272.53"/>
<text text-anchor="middle" x="270.5" y="-343.5" font-family="Arial" font-size="10.00" fill="#0d1074">0.84%</text>
<text text-anchor="middle" x="270.5" y="-332.5" font-family="Arial" font-size="10.00" fill="#0d1074">2073600×</text>
</g>
<!-- traceray&#45;&gt;mcount -->
<g id="edge21" class="edge">
<title>traceray&#45;&gt;mcount</title>
<path fill="none" stroke="#0d0f73" stroke-width="0.5" d="M236.7,-452.99C217.64,-401.31 185.56,-293.63 210,-206 213.49,-193.49 219.21,-180.55 225.03,-169.22"/>
<polygon fill="#0d0f73" stroke="#0d0f73" stroke-width="0.5" points="226.14,-169.74 226.67,-166.07 223.97,-168.61 226.14,-169.74"/>
<text text-anchor="middle" x="223.5" y="-292" font-family="Arial" font-size="10.00" fill="#0d0f73">0.49%</text>
<text text-anchor="middle" x="223.5" y="-281" font-family="Arial" font-size="10.00" fill="#0d0f73">2073600×</text>
</g>
</g>
</svg>
