<?xml version="1.0" encoding="UTF-8" standalone="no"?>
<!DOCTYPE svg PUBLIC "-//W3C//DTD SVG 1.1//EN"
 "http://www.w3.org/Graphics/SVG/1.1/DTD/svg11.dtd">
<!-- Generated by graphviz version 2.43.0 (0)
 -->
<!-- Title: %3 Pages: 1 -->
<svg width="534pt" height="936pt"
 viewBox="0.00 0.00 534.00 936.00" xmlns="http://www.w3.org/2000/svg" xmlns:xlink="http://www.w3.org/1999/xlink">
<g id="graph0" class="graph" transform="scale(1 1) rotate(0) translate(4 932)">
<title>%3</title>
<g id="a_graph0"><a xlink:title=" ">
<polygon fill="white" stroke="transparent" points="-4,4 -4,-932 530,-932 530,4 -4,4"/>
</a>
</g>
<!-- (below main) -->
<g id="node1" class="node">
<title>(below main)</title>
<polygon fill="#ff0100" stroke="#ff0100" points="208,-825 136,-825 136,-762 208,-762 208,-825"/>
<text text-anchor="middle" x="172" y="-813" font-family="Arial" font-size="10.00" fill="#ffffff">libc.so.6</text>
<text text-anchor="middle" x="172" y="-802" font-family="Arial" font-size="10.00" fill="#ffffff">(below main)</text>
<text text-anchor="middle" x="172" y="-791" font-family="Arial" font-size="10.00" fill="#ffffff">99.90%</text>
<text text-anchor="middle" x="172" y="-780" font-family="Arial" font-size="10.00" fill="#ffffff">(0.00%)</text>
<text text-anchor="middle" x="172" y="-769" font-family="Arial" font-size="10.00" fill="#ffffff">2×</text>
</g>
<!-- main -->
<g id="node2" class="node">
<title>main</title>
<polygon fill="#ff0100" stroke="#ff0100" points="197,-722 147,-722 147,-659 197,-659 197,-722"/>
<text text-anchor="middle" x="172" y="-710" font-family="Arial" font-size="10.00" fill="#ffffff">miniRT</text>
<text text-anchor="middle" x="172" y="-699" font-family="Arial" font-size="10.00" fill="#ffffff">main</text>
<text text-anchor="middle" x="172" y="-688" font-family="Arial" font-size="10.00" fill="#ffffff">99.90%</text>
<text text-anchor="middle" x="172" y="-677" font-family="Arial" font-size="10.00" fill="#ffffff">(0.00%)</text>
<text text-anchor="middle" x="172" y="-666" font-family="Arial" font-size="10.00" fill="#ffffff">1×</text>
</g>
<!-- (below main)&#45;&gt;main -->
<g id="edge1" class="edge">
<title>(below main)&#45;&gt;main</title>
<path fill="none" stroke="#ff0100" stroke-width="4" d="M172,-761.92C172,-752.61 172,-742.23 172,-732.36"/>
<polygon fill="#ff0100" stroke="#ff0100" stroke-width="4" points="175.5,-732.32 172,-722.32 168.5,-732.32 175.5,-732.32"/>
<text text-anchor="middle" x="189" y="-745" font-family="Arial" font-size="10.00" fill="#ff0100">99.90%</text>
<text text-anchor="middle" x="189" y="-734" font-family="Arial" font-size="10.00" fill="#ff0100">1×</text>
</g>
<!-- __init__ -->
<g id="node8" class="node">
<title>__init__</title>
<polygon fill="#0ba847" stroke="#0ba847" points="109,-516 59,-516 59,-453 109,-453 109,-516"/>
<text text-anchor="middle" x="84" y="-504" font-family="Arial" font-size="10.00" fill="#ffffff">miniRT</text>
<text text-anchor="middle" x="84" y="-493" font-family="Arial" font-size="10.00" fill="#ffffff">__init__</text>
<text text-anchor="middle" x="84" y="-482" font-family="Arial" font-size="10.00" fill="#ffffff">40.39%</text>
<text text-anchor="middle" x="84" y="-471" font-family="Arial" font-size="10.00" fill="#ffffff">(0.00%)</text>
<text text-anchor="middle" x="84" y="-460" font-family="Arial" font-size="10.00" fill="#ffffff">1×</text>
</g>
<!-- main&#45;&gt;__init__ -->
<g id="edge15" class="edge">
<title>main&#45;&gt;__init__</title>
<path fill="none" stroke="#0ba847" stroke-width="1.62" d="M146.63,-675.54C127.32,-663.38 102.07,-643.82 90,-619 75.39,-588.97 75.31,-550.49 78.05,-522.57"/>
<polygon fill="#0ba847" stroke="#0ba847" stroke-width="1.62" points="80.29,-522.67 78.75,-516.07 75.83,-522.19 80.29,-522.67"/>
<text text-anchor="middle" x="107" y="-590.5" font-family="Arial" font-size="10.00" fill="#0ba847">40.39%</text>
<text text-anchor="middle" x="107" y="-579.5" font-family="Arial" font-size="10.00" fill="#0ba847">1×</text>
</g>
<!-- _create_window -->
<g id="node14" class="node">
<title>_create_window</title>
<polygon fill="#0d1575" stroke="#0d1575" points="215.5,-619 128.5,-619 128.5,-556 215.5,-556 215.5,-619"/>
<text text-anchor="middle" x="172" y="-607" font-family="Arial" font-size="10.00" fill="#ffffff">miniRT</text>
<text text-anchor="middle" x="172" y="-596" font-family="Arial" font-size="10.00" fill="#ffffff">_create_window</text>
<text text-anchor="middle" x="172" y="-585" font-family="Arial" font-size="10.00" fill="#ffffff">1.87%</text>
<text text-anchor="middle" x="172" y="-574" font-family="Arial" font-size="10.00" fill="#ffffff">(0.00%)</text>
<text text-anchor="middle" x="172" y="-563" font-family="Arial" font-size="10.00" fill="#ffffff">1×</text>
</g>
<!-- main&#45;&gt;_create_window -->
<g id="edge16" class="edge">
<title>main&#45;&gt;_create_window</title>
<path fill="none" stroke="#0d1575" stroke-width="0.5" d="M172,-658.92C172,-647.56 172,-634.59 172,-622.9"/>
<polygon fill="#0d1575" stroke="#0d1575" stroke-width="0.5" points="173.23,-622.82 172,-619.32 170.78,-622.82 173.23,-622.82"/>
<text text-anchor="middle" x="186" y="-642" font-family="Arial" font-size="10.00" fill="#0d1575">1.87%</text>
<text text-anchor="middle" x="186" y="-631" font-family="Arial" font-size="10.00" fill="#0d1575">1×</text>
</g>
<!-- start_rays -->
<g id="node18" class="node">
<title>start_rays</title>
<polygon fill="#40c009" stroke="#40c009" points="312,-619 252,-619 252,-556 312,-556 312,-619"/>
<text text-anchor="middle" x="282" y="-607" font-family="Arial" font-size="10.00" fill="#ffffff">miniRT</text>
<text text-anchor="middle" x="282" y="-596" font-family="Arial" font-size="10.00" fill="#ffffff">start_rays</text>
<text text-anchor="middle" x="282" y="-585" font-family="Arial" font-size="10.00" fill="#ffffff">57.59%</text>
<text text-anchor="middle" x="282" y="-574" font-family="Arial" font-size="10.00" fill="#ffffff">(0.40%)</text>
<text text-anchor="middle" x="282" y="-563" font-family="Arial" font-size="10.00" fill="#ffffff">1×</text>
</g>
<!-- main&#45;&gt;start_rays -->
<g id="edge17" class="edge">
<title>main&#45;&gt;start_rays</title>
<path fill="none" stroke="#40c009" stroke-width="2.3" d="M197.24,-666.33C211.7,-653.05 230.09,-636.16 246.04,-621.52"/>
<polygon fill="#40c009" stroke="#40c009" stroke-width="2.3" points="248,-623.33 251.8,-616.23 244.4,-619.41 248,-623.33"/>
<text text-anchor="middle" x="254" y="-642" font-family="Arial" font-size="10.00" fill="#40c009">57.59%</text>
<text text-anchor="middle" x="254" y="-631" font-family="Arial" font-size="10.00" fill="#40c009">1×</text>
</g>
<!-- 0x000000000001f540 -->
<g id="node3" class="node">
<title>0x000000000001f540</title>
<polygon fill="#ff0000" stroke="#ff0000" points="226.5,-928 117.5,-928 117.5,-865 226.5,-865 226.5,-928"/>
<text text-anchor="middle" x="172" y="-916" font-family="Arial" font-size="10.00" fill="#ffffff">ld&#45;linux&#45;x86&#45;64.so.2</text>
<text text-anchor="middle" x="172" y="-905" font-family="Arial" font-size="10.00" fill="#ffffff">0x000000000001f540</text>
<text text-anchor="middle" x="172" y="-894" font-family="Arial" font-size="10.00" fill="#ffffff">100.00%</text>
<text text-anchor="middle" x="172" y="-883" font-family="Arial" font-size="10.00" fill="#ffffff">(0.00%)</text>
<text text-anchor="middle" x="172" y="-872" font-family="Arial" font-size="10.00" fill="#ffffff">0×</text>
</g>
<!-- 0x000000000001f540&#45;&gt;(below main) -->
<g id="edge2" class="edge">
<title>0x000000000001f540&#45;&gt;(below main)</title>
<path fill="none" stroke="#ff0100" stroke-width="4" d="M172,-864.92C172,-855.61 172,-845.23 172,-835.36"/>
<polygon fill="#ff0100" stroke="#ff0100" stroke-width="4" points="175.5,-835.32 172,-825.32 168.5,-835.32 175.5,-835.32"/>
<text text-anchor="middle" x="189" y="-848" font-family="Arial" font-size="10.00" fill="#ff0100">99.90%</text>
<text text-anchor="middle" x="189" y="-837" font-family="Arial" font-size="10.00" fill="#ff0100">1×</text>
</g>
<!-- IntersectRaySphere -->
<g id="node4" class="node">
<title>IntersectRaySphere</title>
<polygon fill="#0aaf28" stroke="#0aaf28" points="415,-372 311,-372 311,-309 415,-309 415,-372"/>
<text text-anchor="middle" x="363" y="-360" font-family="Arial" font-size="10.00" fill="#ffffff">miniRT</text>
<text text-anchor="middle" x="363" y="-349" font-family="Arial" font-size="10.00" fill="#ffffff">IntersectRaySphere</text>
<text text-anchor="middle" x="363" y="-338" font-family="Arial" font-size="10.00" fill="#ffffff">45.47%</text>
<text text-anchor="middle" x="363" y="-327" font-family="Arial" font-size="10.00" fill="#ffffff">(10.33%)</text>
<text text-anchor="middle" x="363" y="-316" font-family="Arial" font-size="10.00" fill="#ffffff">777600×</text>
</g>
<!-- dot_product -->
<g id="node5" class="node">
<title>dot_product</title>
<polygon fill="#0c8590" stroke="#0c8590" points="333,-269 265,-269 265,-206 333,-206 333,-269"/>
<text text-anchor="middle" x="299" y="-257" font-family="Arial" font-size="10.00" fill="#ffffff">miniRT</text>
<text text-anchor="middle" x="299" y="-246" font-family="Arial" font-size="10.00" fill="#ffffff">dot_product</text>
<text text-anchor="middle" x="299" y="-235" font-family="Arial" font-size="10.00" fill="#ffffff">22.80%</text>
<text text-anchor="middle" x="299" y="-224" font-family="Arial" font-size="10.00" fill="#ffffff">(11.19%)</text>
<text text-anchor="middle" x="299" y="-213" font-family="Arial" font-size="10.00" fill="#ffffff">2332801×</text>
</g>
<!-- IntersectRaySphere&#45;&gt;dot_product -->
<g id="edge3" class="edge">
<title>IntersectRaySphere&#45;&gt;dot_product</title>
<path fill="none" stroke="#0c8590" stroke-width="0.91" d="M310.74,-312.33C306.94,-308.65 303.59,-304.55 301,-300 296.58,-292.25 294.83,-283.01 294.48,-274.07"/>
<polygon fill="#0c8590" stroke="#0c8590" stroke-width="0.91" points="296.16,-273.93 294.43,-269.15 292.8,-273.97 296.16,-273.93"/>
<text text-anchor="middle" x="322.5" y="-292" font-family="Arial" font-size="10.00" fill="#0c8590">22.80%</text>
<text text-anchor="middle" x="322.5" y="-281" font-family="Arial" font-size="10.00" fill="#0c8590">2332800×</text>
</g>
<!-- mcount -->
<g id="node6" class="node">
<title>mcount</title>
<polygon fill="#0b9c77" stroke="#0b9c77" points="327.5,-166 268.5,-166 268.5,-103 327.5,-103 327.5,-166"/>
<text text-anchor="middle" x="298" y="-154" font-family="Arial" font-size="10.00" fill="#ffffff">libc.so.6</text>
<text text-anchor="middle" x="298" y="-143" font-family="Arial" font-size="10.00" fill="#ffffff">mcount</text>
<text text-anchor="middle" x="298" y="-132" font-family="Arial" font-size="10.00" fill="#ffffff">31.48%</text>
<text text-anchor="middle" x="298" y="-121" font-family="Arial" font-size="10.00" fill="#ffffff">(24.48%)</text>
<text text-anchor="middle" x="298" y="-110" font-family="Arial" font-size="10.00" fill="#ffffff">6320837×</text>
</g>
<!-- IntersectRaySphere&#45;&gt;mcount -->
<g id="edge4" class="edge">
<title>IntersectRaySphere&#45;&gt;mcount</title>
<path fill="none" stroke="#0d1d78" stroke-width="0.5" d="M359.64,-308.8C354.53,-262.83 345.07,-180.85 342,-175 339.02,-169.32 334.88,-164.07 330.32,-159.36"/>
<polygon fill="#0d1d78" stroke="#0d1d78" stroke-width="0.5" points="331.09,-158.4 327.75,-156.81 329.36,-160.14 331.09,-158.4"/>
<text text-anchor="middle" x="374" y="-240.5" font-family="Arial" font-size="10.00" fill="#0d1d78">3.87%</text>
<text text-anchor="middle" x="374" y="-229.5" font-family="Arial" font-size="10.00" fill="#0d1d78">777600×</text>
</g>
<!-- sub_vectors -->
<g id="node7" class="node">
<title>sub_vectors</title>
<polygon fill="#0d337e" stroke="#0d337e" points="468,-269 398,-269 398,-206 468,-206 468,-269"/>
<text text-anchor="middle" x="433" y="-257" font-family="Arial" font-size="10.00" fill="#ffffff">miniRT</text>
<text text-anchor="middle" x="433" y="-246" font-family="Arial" font-size="10.00" fill="#ffffff">sub_vectors</text>
<text text-anchor="middle" x="433" y="-235" font-family="Arial" font-size="10.00" fill="#ffffff">8.46%</text>
<text text-anchor="middle" x="433" y="-224" font-family="Arial" font-size="10.00" fill="#ffffff">(4.59%)</text>
<text text-anchor="middle" x="433" y="-213" font-family="Arial" font-size="10.00" fill="#ffffff">777600×</text>
</g>
<!-- IntersectRaySphere&#45;&gt;sub_vectors -->
<g id="edge5" class="edge">
<title>IntersectRaySphere&#45;&gt;sub_vectors</title>
<path fill="none" stroke="#0d337e" stroke-width="0.5" d="M384.19,-308.92C392.21,-297.36 401.37,-284.14 409.57,-272.3"/>
<polygon fill="#0d337e" stroke="#0d337e" stroke-width="0.5" points="410.65,-272.9 411.64,-269.32 408.64,-271.5 410.65,-272.9"/>
<text text-anchor="middle" x="423" y="-292" font-family="Arial" font-size="10.00" fill="#0d337e">8.46%</text>
<text text-anchor="middle" x="423" y="-281" font-family="Arial" font-size="10.00" fill="#0d337e">777600×</text>
</g>
<!-- dot_product&#45;&gt;mcount -->
<g id="edge14" class="edge">
<title>dot_product&#45;&gt;mcount</title>
<path fill="none" stroke="#0d4382" stroke-width="0.5" d="M298.7,-205.92C298.58,-194.56 298.46,-181.59 298.34,-169.9"/>
<polygon fill="#0d4382" stroke="#0d4382" stroke-width="0.5" points="299.56,-169.81 298.31,-166.32 297.11,-169.83 299.56,-169.81"/>
<text text-anchor="middle" x="319.5" y="-189" font-family="Arial" font-size="10.00" fill="#0d4382">11.62%</text>
<text text-anchor="middle" x="319.5" y="-178" font-family="Arial" font-size="10.00" fill="#0d4382">2332801×</text>
</g>
<!-- __mcount_internal -->
<g id="node11" class="node">
<title>__mcount_internal</title>
<polygon fill="#0d2c7c" stroke="#0d2c7c" points="346,-63 250,-63 250,0 346,0 346,-63"/>
<text text-anchor="middle" x="298" y="-51" font-family="Arial" font-size="10.00" fill="#ffffff">libc.so.6</text>
<text text-anchor="middle" x="298" y="-40" font-family="Arial" font-size="10.00" fill="#ffffff">__mcount_internal</text>
<text text-anchor="middle" x="298" y="-29" font-family="Arial" font-size="10.00" fill="#ffffff">6.99%</text>
<text text-anchor="middle" x="298" y="-18" font-family="Arial" font-size="10.00" fill="#ffffff">(6.99%)</text>
<text text-anchor="middle" x="298" y="-7" font-family="Arial" font-size="10.00" fill="#ffffff">6320837×</text>
</g>
<!-- mcount&#45;&gt;__mcount_internal -->
<g id="edge18" class="edge">
<title>mcount&#45;&gt;__mcount_internal</title>
<path fill="none" stroke="#0d2c7c" stroke-width="0.5" d="M298,-102.92C298,-91.56 298,-78.59 298,-66.9"/>
<polygon fill="#0d2c7c" stroke="#0d2c7c" stroke-width="0.5" points="299.23,-66.82 298,-63.32 296.78,-66.82 299.23,-66.82"/>
<text text-anchor="middle" x="319.5" y="-86" font-family="Arial" font-size="10.00" fill="#0d2c7c">6.99%</text>
<text text-anchor="middle" x="319.5" y="-75" font-family="Arial" font-size="10.00" fill="#0d2c7c">6320837×</text>
</g>
<!-- sub_vectors&#45;&gt;mcount -->
<g id="edge22" class="edge">
<title>sub_vectors&#45;&gt;mcount</title>
<path fill="none" stroke="#0d1d78" stroke-width="0.5" d="M397.75,-206.32C385.4,-196.09 371.29,-184.78 358,-175 349.41,-168.68 339.87,-162.17 330.96,-156.31"/>
<polygon fill="#0d1d78" stroke="#0d1d78" stroke-width="0.5" points="331.32,-155.08 327.72,-154.19 329.97,-157.13 331.32,-155.08"/>
<text text-anchor="middle" x="404" y="-189" font-family="Arial" font-size="10.00" fill="#0d1d78">3.87%</text>
<text text-anchor="middle" x="404" y="-178" font-family="Arial" font-size="10.00" fill="#0d1d78">777600×</text>
</g>
<!-- cal_fov -->
<g id="node9" class="node">
<title>cal_fov</title>
<polygon fill="#0d1876" stroke="#0d1876" points="50,-372 0,-372 0,-309 50,-309 50,-372"/>
<text text-anchor="middle" x="25" y="-360" font-family="Arial" font-size="10.00" fill="#ffffff">miniRT</text>
<text text-anchor="middle" x="25" y="-349" font-family="Arial" font-size="10.00" fill="#ffffff">cal_fov</text>
<text text-anchor="middle" x="25" y="-338" font-family="Arial" font-size="10.00" fill="#ffffff">2.72%</text>
<text text-anchor="middle" x="25" y="-327" font-family="Arial" font-size="10.00" fill="#ffffff">(2.72%)</text>
<text text-anchor="middle" x="25" y="-316" font-family="Arial" font-size="10.00" fill="#ffffff">1×</text>
</g>
<!-- __init__&#45;&gt;cal_fov -->
<g id="edge6" class="edge">
<title>__init__&#45;&gt;cal_fov</title>
<path fill="none" stroke="#0d1876" stroke-width="0.5" d="M59.84,-452.66C58.08,-449.81 56.43,-446.9 55,-444 44.28,-422.32 36.7,-396.11 31.84,-375.63"/>
<polygon fill="#0d1876" stroke="#0d1876" stroke-width="0.5" points="33.01,-375.26 31.02,-372.14 30.62,-375.82 33.01,-375.26"/>
<text text-anchor="middle" x="69" y="-415.5" font-family="Arial" font-size="10.00" fill="#0d1876">2.72%</text>
<text text-anchor="middle" x="69" y="-404.5" font-family="Arial" font-size="10.00" fill="#0d1876">1×</text>
</g>
<!-- cal_rays -->
<g id="node10" class="node">
<title>cal_rays</title>
<polygon fill="#0ba557" stroke="#0ba557" points="115,-372 59,-372 59,-309 115,-309 115,-372"/>
<text text-anchor="middle" x="87" y="-360" font-family="Arial" font-size="10.00" fill="#ffffff">miniRT</text>
<text text-anchor="middle" x="87" y="-349" font-family="Arial" font-size="10.00" fill="#ffffff">cal_rays</text>
<text text-anchor="middle" x="87" y="-338" font-family="Arial" font-size="10.00" fill="#ffffff">37.62%</text>
<text text-anchor="middle" x="87" y="-327" font-family="Arial" font-size="10.00" fill="#ffffff">(13.06%)</text>
<text text-anchor="middle" x="87" y="-316" font-family="Arial" font-size="10.00" fill="#ffffff">1×</text>
</g>
<!-- __init__&#45;&gt;cal_rays -->
<g id="edge7" class="edge">
<title>__init__&#45;&gt;cal_rays</title>
<path fill="none" stroke="#0ba557" stroke-width="1.5" d="M84.65,-452.69C85.11,-430.92 85.73,-401.63 86.22,-378.58"/>
<polygon fill="#0ba557" stroke="#0ba557" stroke-width="1.5" points="88.36,-378.4 86.35,-372.25 84.09,-378.31 88.36,-378.4"/>
<text text-anchor="middle" x="104" y="-415.5" font-family="Arial" font-size="10.00" fill="#0ba557">37.62%</text>
<text text-anchor="middle" x="104" y="-404.5" font-family="Arial" font-size="10.00" fill="#0ba557">1×</text>
</g>
<!-- add_vectors -->
<g id="node16" class="node">
<title>add_vectors</title>
<polygon fill="#0c6189" stroke="#0c6189" points="122,-269 52,-269 52,-206 122,-206 122,-269"/>
<text text-anchor="middle" x="87" y="-257" font-family="Arial" font-size="10.00" fill="#ffffff">miniRT</text>
<text text-anchor="middle" x="87" y="-246" font-family="Arial" font-size="10.00" fill="#ffffff">add_vectors</text>
<text text-anchor="middle" x="87" y="-235" font-family="Arial" font-size="10.00" fill="#ffffff">16.92%</text>
<text text-anchor="middle" x="87" y="-224" font-family="Arial" font-size="10.00" fill="#ffffff">(9.18%)</text>
<text text-anchor="middle" x="87" y="-213" font-family="Arial" font-size="10.00" fill="#ffffff">1555200×</text>
</g>
<!-- cal_rays&#45;&gt;add_vectors -->
<g id="edge12" class="edge">
<title>cal_rays&#45;&gt;add_vectors</title>
<path fill="none" stroke="#0c6189" stroke-width="0.68" d="M87,-308.92C87,-297.75 87,-285.04 87,-273.51"/>
<polygon fill="#0c6189" stroke="#0c6189" stroke-width="0.68" points="88.44,-273.42 87,-269.32 85.57,-273.42 88.44,-273.42"/>
<text text-anchor="middle" x="108.5" y="-292" font-family="Arial" font-size="10.00" fill="#0c6189">16.92%</text>
<text text-anchor="middle" x="108.5" y="-281" font-family="Arial" font-size="10.00" fill="#0c6189">1555200×</text>
</g>
<!-- scalar_multiplication -->
<g id="node17" class="node">
<title>scalar_multiplication</title>
<polygon fill="#0d2f7d" stroke="#0d2f7d" points="236.5,-269 131.5,-269 131.5,-206 236.5,-206 236.5,-269"/>
<text text-anchor="middle" x="184" y="-257" font-family="Arial" font-size="10.00" fill="#ffffff">miniRT</text>
<text text-anchor="middle" x="184" y="-246" font-family="Arial" font-size="10.00" fill="#ffffff">scalar_multiplication</text>
<text text-anchor="middle" x="184" y="-235" font-family="Arial" font-size="10.00" fill="#ffffff">7.61%</text>
<text text-anchor="middle" x="184" y="-224" font-family="Arial" font-size="10.00" fill="#ffffff">(3.73%)</text>
<text text-anchor="middle" x="184" y="-213" font-family="Arial" font-size="10.00" fill="#ffffff">778320×</text>
</g>
<!-- cal_rays&#45;&gt;scalar_multiplication -->
<g id="edge13" class="edge">
<title>cal_rays&#45;&gt;scalar_multiplication</title>
<path fill="none" stroke="#0d2f7d" stroke-width="0.5" d="M115.27,-313.02C116.86,-311.65 118.44,-310.3 120,-309 125.12,-304.73 127.15,-304.57 132,-300 141.03,-291.48 150.06,-281.47 157.99,-272.03"/>
<polygon fill="#0d2f7d" stroke="#0d2f7d" stroke-width="0.5" points="159.12,-272.59 160.42,-269.12 157.24,-271.02 159.12,-272.59"/>
<text text-anchor="middle" x="171" y="-292" font-family="Arial" font-size="10.00" fill="#0d2f7d">7.61%</text>
<text text-anchor="middle" x="171" y="-281" font-family="Arial" font-size="10.00" fill="#0d2f7d">778320×</text>
</g>
<!-- _create_base_render -->
<g id="node12" class="node">
<title>_create_base_render</title>
<polygon fill="#0d1575" stroke="#0d1575" points="225.5,-516 118.5,-516 118.5,-453 225.5,-453 225.5,-516"/>
<text text-anchor="middle" x="172" y="-504" font-family="Arial" font-size="10.00" fill="#ffffff">miniRT</text>
<text text-anchor="middle" x="172" y="-493" font-family="Arial" font-size="10.00" fill="#ffffff">_create_base_render</text>
<text text-anchor="middle" x="172" y="-482" font-family="Arial" font-size="10.00" fill="#ffffff">1.87%</text>
<text text-anchor="middle" x="172" y="-471" font-family="Arial" font-size="10.00" fill="#ffffff">(0.00%)</text>
<text text-anchor="middle" x="172" y="-460" font-family="Arial" font-size="10.00" fill="#ffffff">1×</text>
</g>
<!-- _erase_fill_render -->
<g id="node13" class="node">
<title>_erase_fill_render</title>
<polygon fill="#0d1575" stroke="#0d1575" points="217.5,-372 124.5,-372 124.5,-309 217.5,-309 217.5,-372"/>
<text text-anchor="middle" x="171" y="-360" font-family="Arial" font-size="10.00" fill="#ffffff">miniRT</text>
<text text-anchor="middle" x="171" y="-349" font-family="Arial" font-size="10.00" fill="#ffffff">_erase_fill_render</text>
<text text-anchor="middle" x="171" y="-338" font-family="Arial" font-size="10.00" fill="#ffffff">1.86%</text>
<text text-anchor="middle" x="171" y="-327" font-family="Arial" font-size="10.00" fill="#ffffff">(1.86%)</text>
<text text-anchor="middle" x="171" y="-316" font-family="Arial" font-size="10.00" fill="#ffffff">1×</text>
</g>
<!-- _create_base_render&#45;&gt;_erase_fill_render -->
<g id="edge8" class="edge">
<title>_create_base_render&#45;&gt;_erase_fill_render</title>
<path fill="none" stroke="#0d1575" stroke-width="0.5" d="M171.78,-452.69C171.62,-430.08 171.41,-399.36 171.24,-375.95"/>
<polygon fill="#0d1575" stroke="#0d1575" stroke-width="0.5" points="172.47,-375.74 171.22,-372.25 170.02,-375.76 172.47,-375.74"/>
<text text-anchor="middle" x="186" y="-415.5" font-family="Arial" font-size="10.00" fill="#0d1575">1.86%</text>
<text text-anchor="middle" x="186" y="-404.5" font-family="Arial" font-size="10.00" fill="#0d1575">1×</text>
</g>
<!-- _create_window&#45;&gt;_create_base_render -->
<g id="edge9" class="edge">
<title>_create_window&#45;&gt;_create_base_render</title>
<path fill="none" stroke="#0d1575" stroke-width="0.5" d="M172,-555.92C172,-544.56 172,-531.59 172,-519.9"/>
<polygon fill="#0d1575" stroke="#0d1575" stroke-width="0.5" points="173.23,-519.82 172,-516.32 170.78,-519.82 173.23,-519.82"/>
<text text-anchor="middle" x="186" y="-539" font-family="Arial" font-size="10.00" fill="#0d1575">1.87%</text>
<text text-anchor="middle" x="186" y="-528" font-family="Arial" font-size="10.00" fill="#0d1575">1×</text>
</g>
<!-- _replace_sized_pixel_on_render -->
<g id="node15" class="node">
<title>_replace_sized_pixel_on_render</title>
<polygon fill="#0d257a" stroke="#0d257a" points="359.5,-444 204.5,-444 204.5,-381 359.5,-381 359.5,-444"/>
<text text-anchor="middle" x="282" y="-432" font-family="Arial" font-size="10.00" fill="#ffffff">miniRT</text>
<text text-anchor="middle" x="282" y="-421" font-family="Arial" font-size="10.00" fill="#ffffff">_replace_sized_pixel_on_render</text>
<text text-anchor="middle" x="282" y="-410" font-family="Arial" font-size="10.00" fill="#ffffff">5.63%</text>
<text text-anchor="middle" x="282" y="-399" font-family="Arial" font-size="10.00" fill="#ffffff">(5.39%)</text>
<text text-anchor="middle" x="282" y="-388" font-family="Arial" font-size="10.00" fill="#ffffff">48600×</text>
</g>
<!-- _replace_sized_pixel_on_render&#45;&gt;mcount -->
<g id="edge10" class="edge">
<title>_replace_sized_pixel_on_render&#45;&gt;mcount</title>
<path fill="none" stroke="#0d0e73" stroke-width="0.5" d="M271.94,-380.7C260.2,-340.07 244.26,-266.6 260,-206 263.29,-193.33 269.3,-180.44 275.58,-169.21"/>
<polygon fill="#0d0e73" stroke="#0d0e73" stroke-width="0.5" points="276.7,-169.74 277.36,-166.09 274.57,-168.53 276.7,-169.74"/>
<text text-anchor="middle" x="272.5" y="-292" font-family="Arial" font-size="10.00" fill="#0d0e73">0.24%</text>
<text text-anchor="middle" x="272.5" y="-281" font-family="Arial" font-size="10.00" fill="#0d0e73">48600×</text>
</g>
<!-- add_vectors&#45;&gt;mcount -->
<g id="edge11" class="edge">
<title>add_vectors&#45;&gt;mcount</title>
<path fill="none" stroke="#0d2f7d" stroke-width="0.5" d="M111.85,-205.81C122.27,-194.68 135.19,-182.91 149,-175 185.37,-154.16 233.01,-144.04 264.52,-139.32"/>
<polygon fill="#0d2f7d" stroke="#0d2f7d" stroke-width="0.5" points="264.99,-140.48 268.28,-138.77 264.64,-138.06 264.99,-140.48"/>
<text text-anchor="middle" x="170.5" y="-189" font-family="Arial" font-size="10.00" fill="#0d2f7d">7.74%</text>
<text text-anchor="middle" x="170.5" y="-178" font-family="Arial" font-size="10.00" fill="#0d2f7d">1555200×</text>
</g>
<!-- scalar_multiplication&#45;&gt;mcount -->
<g id="edge19" class="edge">
<title>scalar_multiplication&#45;&gt;mcount</title>
<path fill="none" stroke="#0d1d78" stroke-width="0.5" d="M189.61,-205.98C192.88,-195.13 198,-183.51 206,-175 221.51,-158.49 245.07,-148.56 264.46,-142.78"/>
<polygon fill="#0d1d78" stroke="#0d1d78" stroke-width="0.5" points="265.26,-143.82 268.28,-141.68 264.58,-141.47 265.26,-143.82"/>
<text text-anchor="middle" x="225" y="-189" font-family="Arial" font-size="10.00" fill="#0d1d78">3.88%</text>
<text text-anchor="middle" x="225" y="-178" font-family="Arial" font-size="10.00" fill="#0d1d78">778320×</text>
</g>
<!-- start_rays&#45;&gt;_replace_sized_pixel_on_render -->
<g id="edge20" class="edge">
<title>start_rays&#45;&gt;_replace_sized_pixel_on_render</title>
<path fill="none" stroke="#0d257a" stroke-width="0.5" d="M282,-555.97C282,-525.68 282,-479.33 282,-447.79"/>
<polygon fill="#0d257a" stroke="#0d257a" stroke-width="0.5" points="283.23,-447.52 282,-444.02 280.78,-447.52 283.23,-447.52"/>
<text text-anchor="middle" x="298.5" y="-539" font-family="Arial" font-size="10.00" fill="#0d257a">5.63%</text>
<text text-anchor="middle" x="298.5" y="-528" font-family="Arial" font-size="10.00" fill="#0d257a">48600×</text>
</g>
<!-- traceray -->
<g id="node19" class="node">
<title>traceray</title>
<polygon fill="#14b809" stroke="#14b809" points="400,-516 348,-516 348,-453 400,-453 400,-516"/>
<text text-anchor="middle" x="374" y="-504" font-family="Arial" font-size="10.00" fill="#ffffff">miniRT</text>
<text text-anchor="middle" x="374" y="-493" font-family="Arial" font-size="10.00" fill="#ffffff">traceray</text>
<text text-anchor="middle" x="374" y="-482" font-family="Arial" font-size="10.00" fill="#ffffff">51.56%</text>
<text text-anchor="middle" x="374" y="-471" font-family="Arial" font-size="10.00" fill="#ffffff">(5.85%)</text>
<text text-anchor="middle" x="374" y="-460" font-family="Arial" font-size="10.00" fill="#ffffff">48600×</text>
</g>
<!-- start_rays&#45;&gt;traceray -->
<g id="edge21" class="edge">
<title>start_rays&#45;&gt;traceray</title>
<path fill="none" stroke="#14b809" stroke-width="2.06" d="M309.85,-555.92C320.22,-544.55 332.04,-531.56 342.69,-519.87"/>
<polygon fill="#14b809" stroke="#14b809" stroke-width="2.06" points="344.83,-521.27 347.82,-514.25 341.1,-517.87 344.83,-521.27"/>
<text text-anchor="middle" x="353" y="-539" font-family="Arial" font-size="10.00" fill="#14b809">51.56%</text>
<text text-anchor="middle" x="353" y="-528" font-family="Arial" font-size="10.00" fill="#14b809">48600×</text>
</g>
<!-- traceray&#45;&gt;IntersectRaySphere -->
<g id="edge23" class="edge">
<title>traceray&#45;&gt;IntersectRaySphere</title>
<path fill="none" stroke="#0aaf28" stroke-width="1.82" d="M371.61,-452.69C369.94,-431.1 367.7,-402.13 365.92,-379.17"/>
<polygon fill="#0aaf28" stroke="#0aaf28" stroke-width="1.82" points="368.24,-378.75 365.38,-372.25 363.56,-379.11 368.24,-378.75"/>
<text text-anchor="middle" x="389" y="-415.5" font-family="Arial" font-size="10.00" fill="#0aaf28">45.47%</text>
<text text-anchor="middle" x="389" y="-404.5" font-family="Arial" font-size="10.00" fill="#0aaf28">777600×</text>
</g>
<!-- traceray&#45;&gt;mcount -->
<g id="edge24" class="edge">
<title>traceray&#45;&gt;mcount</title>
<path fill="none" stroke="#0d0e73" stroke-width="0.5" d="M400.31,-457.44C403.86,-453.16 407.22,-448.61 410,-444 466.47,-350.28 525.33,-302.1 473,-206 445.57,-155.64 373.81,-141.19 331.18,-137.08"/>
<polygon fill="#0d0e73" stroke="#0d0e73" stroke-width="0.5" points="331.25,-135.86 327.66,-136.76 331.03,-138.3 331.25,-135.86"/>
<text text-anchor="middle" x="509.5" y="-292" font-family="Arial" font-size="10.00" fill="#0d0e73">0.24%</text>
<text text-anchor="middle" x="509.5" y="-281" font-family="Arial" font-size="10.00" fill="#0d0e73">48600×</text>
</g>
</g>
</svg>
