<?xml version="1.0" encoding="UTF-8" standalone="no"?>
<!DOCTYPE svg PUBLIC "-//W3C//DTD SVG 1.1//EN"
 "http://www.w3.org/Graphics/SVG/1.1/DTD/svg11.dtd">
<!-- Generated by graphviz version 2.43.0 (0)
 -->
<!-- Title: %3 Pages: 1 -->
<svg width="588pt" height="1410pt"
 viewBox="0.00 0.00 588.00 1410.00" xmlns="http://www.w3.org/2000/svg" xmlns:xlink="http://www.w3.org/1999/xlink">
<g id="graph0" class="graph" transform="scale(1 1) rotate(0) translate(4 1406)">
<title>%3</title>
<g id="a_graph0"><a xlink:title=" ">
<polygon fill="#e8cadb" stroke="transparent" points="-4,4 -4,-1406 584,-1406 584,4 -4,4"/>
</a>
</g>
<!-- (below main) -->
<g id="node1" class="node">
<title>(below main)</title>
<polygon fill="#ff0000" stroke="#ff0000" points="154,-1299 82,-1299 82,-1236 154,-1236 154,-1299"/>
<text text-anchor="middle" x="118" y="-1287" font-family="Arial" font-size="10.00" fill="#ffffff">libc.so.6</text>
<text text-anchor="middle" x="118" y="-1276" font-family="Arial" font-size="10.00" fill="#ffffff">(below main)</text>
<text text-anchor="middle" x="118" y="-1265" font-family="Arial" font-size="10.00" fill="#ffffff">100.00%</text>
<text text-anchor="middle" x="118" y="-1254" font-family="Arial" font-size="10.00" fill="#ffffff">(0.00%)</text>
<text text-anchor="middle" x="118" y="-1243" font-family="Arial" font-size="10.00" fill="#ffffff">2×</text>
</g>
<!-- main -->
<g id="node2" class="node">
<title>main</title>
<polygon fill="#ff0000" stroke="#ff0000" points="145.5,-1196 90.5,-1196 90.5,-1133 145.5,-1133 145.5,-1196"/>
<text text-anchor="middle" x="118" y="-1184" font-family="Arial" font-size="10.00" fill="#ffffff">miniRT</text>
<text text-anchor="middle" x="118" y="-1173" font-family="Arial" font-size="10.00" fill="#ffffff">main</text>
<text text-anchor="middle" x="118" y="-1162" font-family="Arial" font-size="10.00" fill="#ffffff">100.00%</text>
<text text-anchor="middle" x="118" y="-1151" font-family="Arial" font-size="10.00" fill="#ffffff">(0.00%)</text>
<text text-anchor="middle" x="118" y="-1140" font-family="Arial" font-size="10.00" fill="#ffffff">1×</text>
</g>
<!-- (below main)&#45;&gt;main -->
<g id="edge1" class="edge">
<title>(below main)&#45;&gt;main</title>
<path fill="none" stroke="#ff0000" stroke-width="4" d="M118,-1235.92C118,-1226.61 118,-1216.23 118,-1206.36"/>
<polygon fill="#ff0000" stroke="#ff0000" stroke-width="4" points="121.5,-1206.32 118,-1196.32 114.5,-1206.32 121.5,-1206.32"/>
<text text-anchor="middle" x="137.5" y="-1219" font-family="Arial" font-size="10.00" fill="#ff0000">100.00%</text>
<text text-anchor="middle" x="137.5" y="-1208" font-family="Arial" font-size="10.00" fill="#ff0000">1×</text>
</g>
<!-- _main_loop -->
<g id="node9" class="node">
<title>_main_loop</title>
<polygon fill="#f73801" stroke="#f73801" points="126,-1093 60,-1093 60,-1030 126,-1030 126,-1093"/>
<text text-anchor="middle" x="93" y="-1081" font-family="Arial" font-size="10.00" fill="#ffffff">miniRT</text>
<text text-anchor="middle" x="93" y="-1070" font-family="Arial" font-size="10.00" fill="#ffffff">_main_loop</text>
<text text-anchor="middle" x="93" y="-1059" font-family="Arial" font-size="10.00" fill="#ffffff">94.47%</text>
<text text-anchor="middle" x="93" y="-1048" font-family="Arial" font-size="10.00" fill="#ffffff">(0.00%)</text>
<text text-anchor="middle" x="93" y="-1037" font-family="Arial" font-size="10.00" fill="#ffffff">1×</text>
</g>
<!-- main&#45;&gt;_main_loop -->
<g id="edge13" class="edge">
<title>main&#45;&gt;_main_loop</title>
<path fill="none" stroke="#f73801" stroke-width="3.78" d="M103.8,-1132.74C102.75,-1129.82 101.79,-1126.88 101,-1124 99.18,-1117.37 97.77,-1110.23 96.68,-1103.23"/>
<polygon fill="#f73801" stroke="#f73801" stroke-width="3.78" points="99.98,-1102.32 95.3,-1093.17 93.26,-1103.25 99.98,-1102.32"/>
<text text-anchor="middle" x="118" y="-1116" font-family="Arial" font-size="10.00" fill="#f73801">94.47%</text>
<text text-anchor="middle" x="118" y="-1105" font-family="Arial" font-size="10.00" fill="#f73801">1×</text>
</g>
<!-- start_rays -->
<g id="node14" class="node">
<title>start_rays</title>
<polygon fill="#fb1b01" stroke="#fb1b01" points="164,-475 104,-475 104,-412 164,-412 164,-475"/>
<text text-anchor="middle" x="134" y="-463" font-family="Arial" font-size="10.00" fill="#ffffff">miniRT</text>
<text text-anchor="middle" x="134" y="-452" font-family="Arial" font-size="10.00" fill="#ffffff">start_rays</text>
<text text-anchor="middle" x="134" y="-441" font-family="Arial" font-size="10.00" fill="#ffffff">97.35%</text>
<text text-anchor="middle" x="134" y="-430" font-family="Arial" font-size="10.00" fill="#ffffff">(1.46%)</text>
<text text-anchor="middle" x="134" y="-419" font-family="Arial" font-size="10.00" fill="#ffffff">20×</text>
</g>
<!-- main&#45;&gt;start_rays -->
<g id="edge14" class="edge">
<title>main&#45;&gt;start_rays</title>
<path fill="none" stroke="#0d2379" stroke-width="0.5" d="M130.44,-1132.66C131.39,-1129.76 132.26,-1126.84 133,-1124 139.94,-1097.26 142,-1090.12 142,-1062.5 142,-1062.5 142,-1062.5 142,-545.5 142,-523.4 140.07,-498.67 138.11,-479.21"/>
<polygon fill="#0d2379" stroke="#0d2379" stroke-width="0.5" points="139.3,-478.75 137.72,-475.39 136.86,-479 139.3,-478.75"/>
<text text-anchor="middle" x="156" y="-807" font-family="Arial" font-size="10.00" fill="#0d2379">5.09%</text>
<text text-anchor="middle" x="156" y="-796" font-family="Arial" font-size="10.00" fill="#0d2379">1×</text>
</g>
<!-- 0x0000000000020290 -->
<g id="node3" class="node">
<title>0x0000000000020290</title>
<polygon fill="#ff0000" stroke="#ff0000" points="173.5,-1402 62.5,-1402 62.5,-1339 173.5,-1339 173.5,-1402"/>
<text text-anchor="middle" x="118" y="-1390" font-family="Arial" font-size="10.00" fill="#ffffff">ld&#45;linux&#45;x86&#45;64.so.2</text>
<text text-anchor="middle" x="118" y="-1379" font-family="Arial" font-size="10.00" fill="#ffffff">0x0000000000020290</text>
<text text-anchor="middle" x="118" y="-1368" font-family="Arial" font-size="10.00" fill="#ffffff">100.00%</text>
<text text-anchor="middle" x="118" y="-1357" font-family="Arial" font-size="10.00" fill="#ffffff">(0.00%)</text>
<text text-anchor="middle" x="118" y="-1346" font-family="Arial" font-size="10.00" fill="#ffffff">0×</text>
</g>
<!-- 0x0000000000020290&#45;&gt;(below main) -->
<g id="edge2" class="edge">
<title>0x0000000000020290&#45;&gt;(below main)</title>
<path fill="none" stroke="#ff0000" stroke-width="4" d="M118,-1338.92C118,-1329.61 118,-1319.23 118,-1309.36"/>
<polygon fill="#ff0000" stroke="#ff0000" stroke-width="4" points="121.5,-1309.32 118,-1299.32 114.5,-1309.32 121.5,-1309.32"/>
<text text-anchor="middle" x="137.5" y="-1322" font-family="Arial" font-size="10.00" fill="#ff0000">100.00%</text>
<text text-anchor="middle" x="137.5" y="-1311" font-family="Arial" font-size="10.00" fill="#ff0000">1×</text>
</g>
<!-- IntersectRaySphere -->
<g id="node4" class="node">
<title>IntersectRaySphere</title>
<polygon fill="#95cf07" stroke="#95cf07" points="260,-166 156,-166 156,-103 260,-103 260,-166"/>
<text text-anchor="middle" x="208" y="-154" font-family="Arial" font-size="10.00" fill="#ffffff">miniRT</text>
<text text-anchor="middle" x="208" y="-143" font-family="Arial" font-size="10.00" fill="#ffffff">IntersectRaySphere</text>
<text text-anchor="middle" x="208" y="-132" font-family="Arial" font-size="10.00" fill="#ffffff">67.80%</text>
<text text-anchor="middle" x="208" y="-121" font-family="Arial" font-size="10.00" fill="#ffffff">(28.68%)</text>
<text text-anchor="middle" x="208" y="-110" font-family="Arial" font-size="10.00" fill="#ffffff">602307028×</text>
</g>
<!-- dot_product -->
<g id="node5" class="node">
<title>dot_product</title>
<polygon fill="#0c9590" stroke="#0c9590" points="186.5,-63 111.5,-63 111.5,0 186.5,0 186.5,-63"/>
<text text-anchor="middle" x="149" y="-51" font-family="Arial" font-size="10.00" fill="#ffffff">miniRT</text>
<text text-anchor="middle" x="149" y="-40" font-family="Arial" font-size="10.00" fill="#ffffff">dot_product</text>
<text text-anchor="middle" x="149" y="-29" font-family="Arial" font-size="10.00" fill="#ffffff">25.83%</text>
<text text-anchor="middle" x="149" y="-18" font-family="Arial" font-size="10.00" fill="#ffffff">(25.83%)</text>
<text text-anchor="middle" x="149" y="-7" font-family="Arial" font-size="10.00" fill="#ffffff">1258111548×</text>
</g>
<!-- IntersectRaySphere&#45;&gt;dot_product -->
<g id="edge3" class="edge">
<title>IntersectRaySphere&#45;&gt;dot_product</title>
<path fill="none" stroke="#0c9293" stroke-width="0.99" d="M158.15,-102.81C155.8,-100.06 153.72,-97.13 152,-94 147.78,-86.32 145.95,-77.25 145.42,-68.47"/>
<polygon fill="#0c9293" stroke="#0c9293" stroke-width="0.99" points="147.16,-68 145.25,-63.06 143.66,-68.11 147.16,-68"/>
<text text-anchor="middle" x="181.5" y="-86" font-family="Arial" font-size="10.00" fill="#0c9293">24.73%</text>
<text text-anchor="middle" x="181.5" y="-75" font-family="Arial" font-size="10.00" fill="#0c9293">1204614056×</text>
</g>
<!-- sub_vectors -->
<g id="node6" class="node">
<title>sub_vectors</title>
<polygon fill="#0c5586" stroke="#0c5586" points="388,-63 318,-63 318,0 388,0 388,-63"/>
<text text-anchor="middle" x="353" y="-51" font-family="Arial" font-size="10.00" fill="#ffffff">miniRT</text>
<text text-anchor="middle" x="353" y="-40" font-family="Arial" font-size="10.00" fill="#ffffff">sub_vectors</text>
<text text-anchor="middle" x="353" y="-29" font-family="Arial" font-size="10.00" fill="#ffffff">14.90%</text>
<text text-anchor="middle" x="353" y="-18" font-family="Arial" font-size="10.00" fill="#ffffff">(14.90%)</text>
<text text-anchor="middle" x="353" y="-7" font-family="Arial" font-size="10.00" fill="#ffffff">628994402×</text>
</g>
<!-- IntersectRaySphere&#45;&gt;sub_vectors -->
<g id="edge4" class="edge">
<title>IntersectRaySphere&#45;&gt;sub_vectors</title>
<path fill="none" stroke="#0c5185" stroke-width="0.57" d="M210.38,-102.95C212.67,-91.97 216.98,-80.27 225,-72 248.16,-48.14 285.37,-38.61 313.72,-34.85"/>
<polygon fill="#0c5185" stroke="#0c5185" stroke-width="0.57" points="314.23,-36.13 317.84,-34.33 313.9,-33.49 314.23,-36.13"/>
<text text-anchor="middle" x="252" y="-86" font-family="Arial" font-size="10.00" fill="#0c5185">14.27%</text>
<text text-anchor="middle" x="252" y="-75" font-family="Arial" font-size="10.00" fill="#0c5185">602307028×</text>
</g>
<!-- _get_key_press -->
<g id="node7" class="node">
<title>_get_key_press</title>
<polygon fill="#f63901" stroke="#f63901" points="107,-784 21,-784 21,-721 107,-721 107,-784"/>
<text text-anchor="middle" x="64" y="-772" font-family="Arial" font-size="10.00" fill="#ffffff">miniRT</text>
<text text-anchor="middle" x="64" y="-761" font-family="Arial" font-size="10.00" fill="#ffffff">_get_key_press</text>
<text text-anchor="middle" x="64" y="-750" font-family="Arial" font-size="10.00" fill="#ffffff">94.34%</text>
<text text-anchor="middle" x="64" y="-739" font-family="Arial" font-size="10.00" fill="#ffffff">(0.00%)</text>
<text text-anchor="middle" x="64" y="-728" font-family="Arial" font-size="10.00" fill="#ffffff">20×</text>
</g>
<!-- looped -->
<g id="node8" class="node">
<title>looped</title>
<polygon fill="#f63901" stroke="#f63901" points="89,-681 39,-681 39,-618 89,-618 89,-681"/>
<text text-anchor="middle" x="64" y="-669" font-family="Arial" font-size="10.00" fill="#ffffff">miniRT</text>
<text text-anchor="middle" x="64" y="-658" font-family="Arial" font-size="10.00" fill="#ffffff">looped</text>
<text text-anchor="middle" x="64" y="-647" font-family="Arial" font-size="10.00" fill="#ffffff">94.34%</text>
<text text-anchor="middle" x="64" y="-636" font-family="Arial" font-size="10.00" fill="#ffffff">(0.00%)</text>
<text text-anchor="middle" x="64" y="-625" font-family="Arial" font-size="10.00" fill="#ffffff">42710×</text>
</g>
<!-- _get_key_press&#45;&gt;looped -->
<g id="edge5" class="edge">
<title>_get_key_press&#45;&gt;looped</title>
<path fill="none" stroke="#f63901" stroke-width="3.77" d="M64,-720.92C64,-711.52 64,-701.01 64,-691.05"/>
<polygon fill="#f63901" stroke="#f63901" stroke-width="3.77" points="67.4,-691.02 64,-681.32 60.61,-691.02 67.4,-691.02"/>
<text text-anchor="middle" x="81" y="-704" font-family="Arial" font-size="10.00" fill="#f63901">94.34%</text>
<text text-anchor="middle" x="81" y="-693" font-family="Arial" font-size="10.00" fill="#f63901">20×</text>
</g>
<!-- event_key_press -->
<g id="node12" class="node">
<title>event_key_press</title>
<polygon fill="#f63901" stroke="#f63901" points="109.5,-578 18.5,-578 18.5,-515 109.5,-515 109.5,-578"/>
<text text-anchor="middle" x="64" y="-566" font-family="Arial" font-size="10.00" fill="#ffffff">miniRT</text>
<text text-anchor="middle" x="64" y="-555" font-family="Arial" font-size="10.00" fill="#ffffff">event_key_press</text>
<text text-anchor="middle" x="64" y="-544" font-family="Arial" font-size="10.00" fill="#ffffff">94.34%</text>
<text text-anchor="middle" x="64" y="-533" font-family="Arial" font-size="10.00" fill="#ffffff">(0.00%)</text>
<text text-anchor="middle" x="64" y="-522" font-family="Arial" font-size="10.00" fill="#ffffff">42710×</text>
</g>
<!-- looped&#45;&gt;event_key_press -->
<g id="edge12" class="edge">
<title>looped&#45;&gt;event_key_press</title>
<path fill="none" stroke="#f63901" stroke-width="3.77" d="M64,-617.92C64,-608.52 64,-598.01 64,-588.05"/>
<polygon fill="#f63901" stroke="#f63901" stroke-width="3.77" points="67.4,-588.02 64,-578.32 60.61,-588.02 67.4,-588.02"/>
<text text-anchor="middle" x="81" y="-601" font-family="Arial" font-size="10.00" fill="#f63901">94.34%</text>
<text text-anchor="middle" x="81" y="-590" font-family="Arial" font-size="10.00" fill="#f63901">42710×</text>
</g>
<!-- mlx_loop -->
<g id="node10" class="node">
<title>mlx_loop</title>
<polygon fill="#f73801" stroke="#f73801" points="104,-990 48,-990 48,-927 104,-927 104,-990"/>
<text text-anchor="middle" x="76" y="-978" font-family="Arial" font-size="10.00" fill="#ffffff">miniRT</text>
<text text-anchor="middle" x="76" y="-967" font-family="Arial" font-size="10.00" fill="#ffffff">mlx_loop</text>
<text text-anchor="middle" x="76" y="-956" font-family="Arial" font-size="10.00" fill="#ffffff">94.47%</text>
<text text-anchor="middle" x="76" y="-945" font-family="Arial" font-size="10.00" fill="#ffffff">(0.00%)</text>
<text text-anchor="middle" x="76" y="-934" font-family="Arial" font-size="10.00" fill="#ffffff">1×</text>
</g>
<!-- _main_loop&#45;&gt;mlx_loop -->
<g id="edge6" class="edge">
<title>_main_loop&#45;&gt;mlx_loop</title>
<path fill="none" stroke="#f73801" stroke-width="3.78" d="M87.85,-1029.92C86.27,-1020.52 84.5,-1010.01 82.82,-1000.05"/>
<polygon fill="#f73801" stroke="#f73801" stroke-width="3.78" points="86.15,-999.32 81.19,-990.32 79.45,-1000.45 86.15,-999.32"/>
<text text-anchor="middle" x="104" y="-1013" font-family="Arial" font-size="10.00" fill="#f73801">94.47%</text>
<text text-anchor="middle" x="104" y="-1002" font-family="Arial" font-size="10.00" fill="#f73801">1×</text>
</g>
<!-- mlx_int_param_KeyPress -->
<g id="node17" class="node">
<title>mlx_int_param_KeyPress</title>
<polygon fill="#f63901" stroke="#f63901" points="128,-887 0,-887 0,-824 128,-824 128,-887"/>
<text text-anchor="middle" x="64" y="-875" font-family="Arial" font-size="10.00" fill="#ffffff">miniRT</text>
<text text-anchor="middle" x="64" y="-864" font-family="Arial" font-size="10.00" fill="#ffffff">mlx_int_param_KeyPress</text>
<text text-anchor="middle" x="64" y="-853" font-family="Arial" font-size="10.00" fill="#ffffff">94.34%</text>
<text text-anchor="middle" x="64" y="-842" font-family="Arial" font-size="10.00" fill="#ffffff">(0.00%)</text>
<text text-anchor="middle" x="64" y="-831" font-family="Arial" font-size="10.00" fill="#ffffff">20×</text>
</g>
<!-- mlx_loop&#45;&gt;mlx_int_param_KeyPress -->
<g id="edge16" class="edge">
<title>mlx_loop&#45;&gt;mlx_int_param_KeyPress</title>
<path fill="none" stroke="#f63901" stroke-width="3.77" d="M72.37,-926.92C71.25,-917.52 70,-907.01 68.82,-897.05"/>
<polygon fill="#f63901" stroke="#f63901" stroke-width="3.77" points="72.18,-896.55 67.66,-887.32 65.44,-897.35 72.18,-896.55"/>
<text text-anchor="middle" x="89" y="-910" font-family="Arial" font-size="10.00" fill="#f63901">94.34%</text>
<text text-anchor="middle" x="89" y="-899" font-family="Arial" font-size="10.00" fill="#f63901">20×</text>
</g>
<!-- _replace_sized_pixel_on_render -->
<g id="node11" class="node">
<title>_replace_sized_pixel_on_render</title>
<polygon fill="#0d1776" stroke="#0d1776" points="166.5,-372 11.5,-372 11.5,-309 166.5,-309 166.5,-372"/>
<text text-anchor="middle" x="89" y="-360" font-family="Arial" font-size="10.00" fill="#ffffff">miniRT</text>
<text text-anchor="middle" x="89" y="-349" font-family="Arial" font-size="10.00" fill="#ffffff">_replace_sized_pixel_on_render</text>
<text text-anchor="middle" x="89" y="-338" font-family="Arial" font-size="10.00" fill="#ffffff">2.54%</text>
<text text-anchor="middle" x="89" y="-327" font-family="Arial" font-size="10.00" fill="#ffffff">(2.54%)</text>
<text text-anchor="middle" x="89" y="-316" font-family="Arial" font-size="10.00" fill="#ffffff">40153801×</text>
</g>
<!-- reset_rays -->
<g id="node13" class="node">
<title>reset_rays</title>
<polygon fill="#0d1575" stroke="#0d1575" points="87,-475 25,-475 25,-412 87,-412 87,-475"/>
<text text-anchor="middle" x="56" y="-463" font-family="Arial" font-size="10.00" fill="#ffffff">miniRT</text>
<text text-anchor="middle" x="56" y="-452" font-family="Arial" font-size="10.00" fill="#ffffff">reset_rays</text>
<text text-anchor="middle" x="56" y="-441" font-family="Arial" font-size="10.00" fill="#ffffff">2.08%</text>
<text text-anchor="middle" x="56" y="-430" font-family="Arial" font-size="10.00" fill="#ffffff">(2.08%)</text>
<text text-anchor="middle" x="56" y="-419" font-family="Arial" font-size="10.00" fill="#ffffff">19×</text>
</g>
<!-- event_key_press&#45;&gt;reset_rays -->
<g id="edge7" class="edge">
<title>event_key_press&#45;&gt;reset_rays</title>
<path fill="none" stroke="#0d1575" stroke-width="0.5" d="M59.89,-514.9C59.56,-511.9 59.25,-508.89 59,-506 58.23,-497.24 57.65,-487.76 57.21,-478.93"/>
<polygon fill="#0d1575" stroke="#0d1575" stroke-width="0.5" points="58.42,-478.63 57.03,-475.19 55.97,-478.74 58.42,-478.63"/>
<text text-anchor="middle" x="73" y="-498" font-family="Arial" font-size="10.00" fill="#0d1575">2.08%</text>
<text text-anchor="middle" x="73" y="-487" font-family="Arial" font-size="10.00" fill="#0d1575">19×</text>
</g>
<!-- event_key_press&#45;&gt;start_rays -->
<g id="edge8" class="edge">
<title>event_key_press&#45;&gt;start_rays</title>
<path fill="none" stroke="#f34d02" stroke-width="3.69" d="M81.16,-514.88C87.12,-504.83 94.06,-493.74 101,-484 101.26,-483.64 101.52,-483.27 101.78,-482.91"/>
<polygon fill="#f34d02" stroke="#f34d02" stroke-width="3.69" points="104.5,-484.88 107.59,-475.19 99.14,-480.84 104.5,-484.88"/>
<text text-anchor="middle" x="118" y="-498" font-family="Arial" font-size="10.00" fill="#f34d02">92.25%</text>
<text text-anchor="middle" x="118" y="-487" font-family="Arial" font-size="10.00" fill="#f34d02">19×</text>
</g>
<!-- start_rays&#45;&gt;_replace_sized_pixel_on_render -->
<g id="edge20" class="edge">
<title>start_rays&#45;&gt;_replace_sized_pixel_on_render</title>
<path fill="none" stroke="#0d1776" stroke-width="0.5" d="M120.38,-411.92C115.27,-400.46 109.43,-387.36 104.19,-375.6"/>
<polygon fill="#0d1776" stroke="#0d1776" stroke-width="0.5" points="105.28,-375.02 102.73,-372.32 103.04,-376.02 105.28,-375.02"/>
<text text-anchor="middle" x="140.5" y="-395" font-family="Arial" font-size="10.00" fill="#0d1776">2.54%</text>
<text text-anchor="middle" x="140.5" y="-384" font-family="Arial" font-size="10.00" fill="#0d1776">40153801×</text>
</g>
<!-- traceray -->
<g id="node19" class="node">
<title>traceray</title>
<polygon fill="#f54202" stroke="#f54202" points="240.5,-372 175.5,-372 175.5,-309 240.5,-309 240.5,-372"/>
<text text-anchor="middle" x="208" y="-360" font-family="Arial" font-size="10.00" fill="#ffffff">miniRT</text>
<text text-anchor="middle" x="208" y="-349" font-family="Arial" font-size="10.00" fill="#ffffff">traceray</text>
<text text-anchor="middle" x="208" y="-338" font-family="Arial" font-size="10.00" fill="#ffffff">93.35%</text>
<text text-anchor="middle" x="208" y="-327" font-family="Arial" font-size="10.00" fill="#ffffff">(20.43%)</text>
<text text-anchor="middle" x="208" y="-316" font-family="Arial" font-size="10.00" fill="#ffffff">40153802×</text>
</g>
<!-- start_rays&#45;&gt;traceray -->
<g id="edge21" class="edge">
<title>start_rays&#45;&gt;traceray</title>
<path fill="none" stroke="#f54202" stroke-width="3.73" d="M160.26,-411.71C162.58,-408.8 164.86,-405.86 167,-403 172.36,-395.83 177.84,-388 182.99,-380.4"/>
<polygon fill="#f54202" stroke="#f54202" stroke-width="3.73" points="185.84,-382.24 188.41,-372.29 180.2,-378.47 185.84,-382.24"/>
<text text-anchor="middle" x="206.5" y="-395" font-family="Arial" font-size="10.00" fill="#f54202">93.35%</text>
<text text-anchor="middle" x="206.5" y="-384" font-family="Arial" font-size="10.00" fill="#f54202">40153802×</text>
</g>
<!-- get_rgb_norm_light_intensity -->
<g id="node15" class="node">
<title>get_rgb_norm_light_intensity</title>
<polygon fill="#0d1475" stroke="#0d1475" points="439.5,-166 298.5,-166 298.5,-103 439.5,-103 439.5,-166"/>
<text text-anchor="middle" x="369" y="-154" font-family="Arial" font-size="10.00" fill="#ffffff">miniRT</text>
<text text-anchor="middle" x="369" y="-143" font-family="Arial" font-size="10.00" fill="#ffffff">get_rgb_norm_light_intensity</text>
<text text-anchor="middle" x="369" y="-132" font-family="Arial" font-size="10.00" fill="#ffffff">1.65%</text>
<text text-anchor="middle" x="369" y="-121" font-family="Arial" font-size="10.00" fill="#ffffff">(0.69%)</text>
<text text-anchor="middle" x="369" y="-110" font-family="Arial" font-size="10.00" fill="#ffffff">13343687×</text>
</g>
<!-- get_rgb_norm_light_intensity&#45;&gt;dot_product -->
<g id="edge9" class="edge">
<title>get_rgb_norm_light_intensity&#45;&gt;dot_product</title>
<path fill="none" stroke="#0d0e73" stroke-width="0.5" d="M315.03,-102.9C310.55,-100 306.15,-97.01 302,-94 290.02,-85.31 289.91,-79.23 277,-72 249.81,-56.78 216.02,-46.67 189.99,-40.49"/>
<polygon fill="#0d0e73" stroke="#0d0e73" stroke-width="0.5" points="190.22,-39.29 186.53,-39.68 189.66,-41.67 190.22,-39.29"/>
<text text-anchor="middle" x="326.5" y="-86" font-family="Arial" font-size="10.00" fill="#0d0e73">0.27%</text>
<text text-anchor="middle" x="326.5" y="-75" font-family="Arial" font-size="10.00" fill="#0d0e73">13343687×</text>
</g>
<!-- get_rgb_norm_light_intensity&#45;&gt;sub_vectors -->
<g id="edge11" class="edge">
<title>get_rgb_norm_light_intensity&#45;&gt;sub_vectors</title>
<path fill="none" stroke="#0d0e73" stroke-width="0.5" d="M357.98,-102.66C357.21,-99.76 356.53,-96.84 356,-94 354.38,-85.26 353.5,-75.72 353.04,-66.81"/>
<polygon fill="#0d0e73" stroke="#0d0e73" stroke-width="0.5" points="354.25,-66.47 352.87,-63.03 351.8,-66.58 354.25,-66.47"/>
<text text-anchor="middle" x="380.5" y="-86" font-family="Arial" font-size="10.00" fill="#0d0e73">0.32%</text>
<text text-anchor="middle" x="380.5" y="-75" font-family="Arial" font-size="10.00" fill="#0d0e73">13343687×</text>
</g>
<!-- norm_vectors -->
<g id="node16" class="node">
<title>norm_vectors</title>
<polygon fill="#0d0f73" stroke="#0d0f73" points="526,-63 450,-63 450,0 526,0 526,-63"/>
<text text-anchor="middle" x="488" y="-51" font-family="Arial" font-size="10.00" fill="#ffffff">miniRT</text>
<text text-anchor="middle" x="488" y="-40" font-family="Arial" font-size="10.00" fill="#ffffff">norm_vectors</text>
<text text-anchor="middle" x="488" y="-29" font-family="Arial" font-size="10.00" fill="#ffffff">0.51%</text>
<text text-anchor="middle" x="488" y="-18" font-family="Arial" font-size="10.00" fill="#ffffff">(0.51%)</text>
<text text-anchor="middle" x="488" y="-7" font-family="Arial" font-size="10.00" fill="#ffffff">26687377×</text>
</g>
<!-- get_rgb_norm_light_intensity&#45;&gt;norm_vectors -->
<g id="edge10" class="edge">
<title>get_rgb_norm_light_intensity&#45;&gt;norm_vectors</title>
<path fill="none" stroke="#0d0e73" stroke-width="0.5" d="M405.03,-102.92C418.88,-91.17 434.75,-77.69 448.88,-65.7"/>
<polygon fill="#0d0e73" stroke="#0d0e73" stroke-width="0.5" points="449.81,-66.52 451.68,-63.32 448.22,-64.65 449.81,-66.52"/>
<text text-anchor="middle" x="463.5" y="-86" font-family="Arial" font-size="10.00" fill="#0d0e73">0.25%</text>
<text text-anchor="middle" x="463.5" y="-75" font-family="Arial" font-size="10.00" fill="#0d0e73">13343687×</text>
</g>
<!-- mlx_int_param_KeyPress&#45;&gt;_get_key_press -->
<g id="edge15" class="edge">
<title>mlx_int_param_KeyPress&#45;&gt;_get_key_press</title>
<path fill="none" stroke="#f63901" stroke-width="3.77" d="M64,-823.92C64,-814.52 64,-804.01 64,-794.05"/>
<polygon fill="#f63901" stroke="#f63901" stroke-width="3.77" points="67.4,-794.02 64,-784.32 60.61,-794.02 67.4,-794.02"/>
<text text-anchor="middle" x="81" y="-807" font-family="Arial" font-size="10.00" fill="#f63901">94.34%</text>
<text text-anchor="middle" x="81" y="-796" font-family="Arial" font-size="10.00" fill="#f63901">20×</text>
</g>
<!-- send_light_sphere -->
<g id="node18" class="node">
<title>send_light_sphere</title>
<polygon fill="#0d1c77" stroke="#0d1c77" points="499.5,-269 404.5,-269 404.5,-206 499.5,-206 499.5,-269"/>
<text text-anchor="middle" x="452" y="-257" font-family="Arial" font-size="10.00" fill="#ffffff">miniRT</text>
<text text-anchor="middle" x="452" y="-246" font-family="Arial" font-size="10.00" fill="#ffffff">send_light_sphere</text>
<text text-anchor="middle" x="452" y="-235" font-family="Arial" font-size="10.00" fill="#ffffff">3.69%</text>
<text text-anchor="middle" x="452" y="-224" font-family="Arial" font-size="10.00" fill="#ffffff">(1.05%)</text>
<text text-anchor="middle" x="452" y="-213" font-family="Arial" font-size="10.00" fill="#ffffff">13343687×</text>
</g>
<!-- send_light_sphere&#45;&gt;sub_vectors -->
<g id="edge19" class="edge">
<title>send_light_sphere&#45;&gt;sub_vectors</title>
<path fill="none" stroke="#0d0e73" stroke-width="0.5" d="M464.03,-205.72C464.83,-202.8 465.51,-199.87 466,-197 470.71,-169.62 482.08,-94.65 466,-72 463.69,-68.74 423.32,-55.13 391.49,-44.78"/>
<polygon fill="#0d0e73" stroke="#0d0e73" stroke-width="0.5" points="391.75,-43.58 388.04,-43.67 390.99,-45.91 391.75,-43.58"/>
<text text-anchor="middle" x="498.5" y="-137.5" font-family="Arial" font-size="10.00" fill="#0d0e73">0.32%</text>
<text text-anchor="middle" x="498.5" y="-126.5" font-family="Arial" font-size="10.00" fill="#0d0e73">13343687×</text>
</g>
<!-- send_light_sphere&#45;&gt;get_rgb_norm_light_intensity -->
<g id="edge17" class="edge">
<title>send_light_sphere&#45;&gt;get_rgb_norm_light_intensity</title>
<path fill="none" stroke="#0d1475" stroke-width="0.5" d="M426.38,-205.91C423.88,-202.91 421.39,-199.9 419,-197 411.54,-187.95 403.51,-178.12 396.12,-169.02"/>
<polygon fill="#0d1475" stroke="#0d1475" stroke-width="0.5" points="397,-168.17 393.84,-166.22 395.1,-169.71 397,-168.17"/>
<text text-anchor="middle" x="443.5" y="-189" font-family="Arial" font-size="10.00" fill="#0d1475">1.65%</text>
<text text-anchor="middle" x="443.5" y="-178" font-family="Arial" font-size="10.00" fill="#0d1475">13343687×</text>
</g>
<!-- send_light_sphere&#45;&gt;norm_vectors -->
<g id="edge18" class="edge">
<title>send_light_sphere&#45;&gt;norm_vectors</title>
<path fill="none" stroke="#0d0e73" stroke-width="0.5" d="M495.5,-205.95C507.71,-194.91 519.43,-181.33 526,-166 540,-133.33 525.25,-93.99 510.23,-66.51"/>
<polygon fill="#0d0e73" stroke="#0d0e73" stroke-width="0.5" points="511.18,-65.68 508.4,-63.22 509.03,-66.87 511.18,-65.68"/>
<text text-anchor="middle" x="555.5" y="-137.5" font-family="Arial" font-size="10.00" fill="#0d0e73">0.25%</text>
<text text-anchor="middle" x="555.5" y="-126.5" font-family="Arial" font-size="10.00" fill="#0d0e73">13343687×</text>
</g>
<!-- traceray&#45;&gt;IntersectRaySphere -->
<g id="edge22" class="edge">
<title>traceray&#45;&gt;IntersectRaySphere</title>
<path fill="none" stroke="#95cf07" stroke-width="2.71" d="M208,-308.96C208,-273.21 208,-213.91 208,-174.77"/>
<polygon fill="#95cf07" stroke="#95cf07" stroke-width="2.71" points="210.87,-174.45 208,-166.25 205.13,-174.45 210.87,-174.45"/>
<text text-anchor="middle" x="235" y="-240.5" font-family="Arial" font-size="10.00" fill="#95cf07">67.80%</text>
<text text-anchor="middle" x="235" y="-229.5" font-family="Arial" font-size="10.00" fill="#95cf07">602307028×</text>
</g>
<!-- traceray&#45;&gt;dot_product -->
<g id="edge23" class="edge">
<title>traceray&#45;&gt;dot_product</title>
<path fill="none" stroke="#0d1074" stroke-width="0.5" d="M194.36,-308.94C180.02,-274.88 158.51,-217.77 151,-166 146.38,-134.18 145.56,-126.11 144,-94 143.53,-84.23 143.38,-81.76 144,-72 144.11,-70.28 144.24,-68.52 144.4,-66.74"/>
<polygon fill="#0d1074" stroke="#0d1074" stroke-width="0.5" points="145.63,-66.68 144.74,-63.09 143.19,-66.45 145.63,-66.68"/>
<text text-anchor="middle" x="181.5" y="-189" font-family="Arial" font-size="10.00" fill="#0d1074">0.82%</text>
<text text-anchor="middle" x="181.5" y="-178" font-family="Arial" font-size="10.00" fill="#0d1074">40153802×</text>
</g>
<!-- traceray&#45;&gt;send_light_sphere -->
<g id="edge24" class="edge">
<title>traceray&#45;&gt;send_light_sphere</title>
<path fill="none" stroke="#0d1c77" stroke-width="0.5" d="M240.65,-325.98C281.74,-308.98 352.76,-279.58 401.02,-259.6"/>
<polygon fill="#0d1c77" stroke="#0d1c77" stroke-width="0.5" points="401.69,-260.65 404.46,-258.18 400.76,-258.39 401.69,-260.65"/>
<text text-anchor="middle" x="375.5" y="-292" font-family="Arial" font-size="10.00" fill="#0d1c77">3.69%</text>
<text text-anchor="middle" x="375.5" y="-281" font-family="Arial" font-size="10.00" fill="#0d1c77">13343687×</text>
</g>
</g>
</svg>
