<?xml version="1.0" encoding="UTF-8" standalone="no"?>
<!DOCTYPE svg PUBLIC "-//W3C//DTD SVG 1.1//EN"
 "http://www.w3.org/Graphics/SVG/1.1/DTD/svg11.dtd">
<!-- Generated by graphviz version 2.43.0 (0)
 -->
<!-- Title: BVH Pages: 1 -->
<svg width="4857pt" height="404pt"
 viewBox="0.00 0.00 4857.38 404.00" xmlns="http://www.w3.org/2000/svg" xmlns:xlink="http://www.w3.org/1999/xlink">
<g id="graph0" class="graph" transform="scale(1 1) rotate(0) translate(4 400)">
<title>BVH</title>
<polygon fill="white" stroke="transparent" points="-4,4 -4,-400 4853.38,-400 4853.38,4 -4,4"/>
<!-- 0x558ea69d27f0 -->
<g id="node1" class="node">
<title>0x558ea69d27f0</title>
<ellipse fill="none" stroke="black" cx="2678.19" cy="-378" rx="38.19" ry="18"/>
<text text-anchor="middle" x="2678.19" y="-374.3" font-family="Times,serif" font-size="14.00">ROOT</text>
</g>
<!-- 0x558ea69d17f0 -->
<g id="node2" class="node">
<title>0x558ea69d17f0</title>
<ellipse fill="none" stroke="black" cx="2051.19" cy="-306" rx="61.99" ry="18"/>
<text text-anchor="middle" x="2051.19" y="-302.3" font-family="Times,serif" font-size="14.00">INTERNAL</text>
</g>
<!-- 0x558ea69d27f0&#45;&gt;0x558ea69d17f0 -->
<g id="edge1" class="edge">
<title>0x558ea69d27f0&#45;&gt;0x558ea69d17f0</title>
<path fill="none" stroke="black" d="M2641.3,-372.88C2538.84,-361.44 2249.63,-329.15 2117.96,-314.46"/>
<polygon fill="black" stroke="black" points="2118.32,-310.97 2108,-313.34 2117.55,-317.93 2118.32,-310.97"/>
</g>
<!-- 0x558ea69d26f0 -->
<g id="node19" class="node">
<title>0x558ea69d26f0</title>
<ellipse fill="none" stroke="black" cx="3294.19" cy="-306" rx="61.99" ry="18"/>
<text text-anchor="middle" x="3294.19" y="-302.3" font-family="Times,serif" font-size="14.00">INTERNAL</text>
</g>
<!-- 0x558ea69d27f0&#45;&gt;0x558ea69d26f0 -->
<g id="edge18" class="edge">
<title>0x558ea69d27f0&#45;&gt;0x558ea69d26f0</title>
<path fill="none" stroke="black" d="M2715.33,-372.78C2816.51,-361.28 3098.04,-329.29 3227.5,-314.58"/>
<polygon fill="black" stroke="black" points="3228.14,-318.03 3237.68,-313.42 3227.35,-311.07 3228.14,-318.03"/>
</g>
<!-- 0x558ea69d0ff0 -->
<g id="node3" class="node">
<title>0x558ea69d0ff0</title>
<ellipse fill="none" stroke="black" cx="1077.19" cy="-234" rx="61.99" ry="18"/>
<text text-anchor="middle" x="1077.19" y="-230.3" font-family="Times,serif" font-size="14.00">INTERNAL</text>
</g>
<!-- 0x558ea69d17f0&#45;&gt;0x558ea69d0ff0 -->
<g id="edge2" class="edge">
<title>0x558ea69d17f0&#45;&gt;0x558ea69d0ff0</title>
<path fill="none" stroke="black" d="M1992.09,-300.75C1821.59,-288.5 1329.35,-253.12 1146.58,-239.99"/>
<polygon fill="black" stroke="black" points="1146.78,-236.49 1136.55,-239.27 1146.27,-243.47 1146.78,-236.49"/>
</g>
<!-- 0x558ea69d16f0 -->
<g id="node12" class="node">
<title>0x558ea69d16f0</title>
<ellipse fill="none" stroke="black" cx="2051.19" cy="-234" rx="61.99" ry="18"/>
<text text-anchor="middle" x="2051.19" y="-230.3" font-family="Times,serif" font-size="14.00">INTERNAL</text>
</g>
<!-- 0x558ea69d17f0&#45;&gt;0x558ea69d16f0 -->
<g id="edge11" class="edge">
<title>0x558ea69d17f0&#45;&gt;0x558ea69d16f0</title>
<path fill="none" stroke="black" d="M2051.19,-287.7C2051.19,-279.98 2051.19,-270.71 2051.19,-262.11"/>
<polygon fill="black" stroke="black" points="2054.69,-262.1 2051.19,-252.1 2047.69,-262.1 2054.69,-262.1"/>
</g>
<!-- 0x558ea69d0bf0 -->
<g id="node4" class="node">
<title>0x558ea69d0bf0</title>
<ellipse fill="none" stroke="black" cx="567.19" cy="-162" rx="61.99" ry="18"/>
<text text-anchor="middle" x="567.19" y="-158.3" font-family="Times,serif" font-size="14.00">INTERNAL</text>
</g>
<!-- 0x558ea69d0ff0&#45;&gt;0x558ea69d0bf0 -->
<g id="edge3" class="edge">
<title>0x558ea69d0ff0&#45;&gt;0x558ea69d0bf0</title>
<path fill="none" stroke="black" d="M1022.61,-225.51C927.83,-212.5 733.27,-185.8 631.87,-171.88"/>
<polygon fill="black" stroke="black" points="632.14,-168.38 621.76,-170.49 631.19,-175.32 632.14,-168.38"/>
</g>
<!-- 0x558ea69d0ef0 -->
<g id="node9" class="node">
<title>0x558ea69d0ef0</title>
<ellipse fill="none" stroke="black" cx="1077.19" cy="-162" rx="61.99" ry="18"/>
<text text-anchor="middle" x="1077.19" y="-158.3" font-family="Times,serif" font-size="14.00">INTERNAL</text>
</g>
<!-- 0x558ea69d0ff0&#45;&gt;0x558ea69d0ef0 -->
<g id="edge8" class="edge">
<title>0x558ea69d0ff0&#45;&gt;0x558ea69d0ef0</title>
<path fill="none" stroke="black" d="M1077.19,-215.7C1077.19,-207.98 1077.19,-198.71 1077.19,-190.11"/>
<polygon fill="black" stroke="black" points="1080.69,-190.1 1077.19,-180.1 1073.69,-190.1 1080.69,-190.1"/>
</g>
<!-- 0x558ea69d09f0 -->
<g id="node5" class="node">
<title>0x558ea69d09f0</title>
<ellipse fill="none" stroke="black" cx="326.19" cy="-90" rx="61.99" ry="18"/>
<text text-anchor="middle" x="326.19" y="-86.3" font-family="Times,serif" font-size="14.00">INTERNAL</text>
</g>
<!-- 0x558ea69d0bf0&#45;&gt;0x558ea69d09f0 -->
<g id="edge4" class="edge">
<title>0x558ea69d0bf0&#45;&gt;0x558ea69d09f0</title>
<path fill="none" stroke="black" d="M524.93,-148.73C484.02,-136.84 421.9,-118.8 378.02,-106.06"/>
<polygon fill="black" stroke="black" points="378.97,-102.69 368.39,-103.26 377.02,-109.41 378.97,-102.69"/>
</g>
<!-- 0x558ea69d0af0 -->
<g id="node8" class="node">
<title>0x558ea69d0af0</title>
<ellipse fill="none" stroke="black" cx="567.19" cy="-90" rx="161.37" ry="18"/>
<text text-anchor="middle" x="567.19" y="-86.3" font-family="Times,serif" font-size="14.00">SPHERE (&#45;120.00 &#45;40.00 &#45;76.00)</text>
</g>
<!-- 0x558ea69d0bf0&#45;&gt;0x558ea69d0af0 -->
<g id="edge7" class="edge">
<title>0x558ea69d0bf0&#45;&gt;0x558ea69d0af0</title>
<path fill="none" stroke="black" d="M567.19,-143.7C567.19,-135.98 567.19,-126.71 567.19,-118.11"/>
<polygon fill="black" stroke="black" points="570.69,-118.1 567.19,-108.1 563.69,-118.1 570.69,-118.1"/>
</g>
<!-- 0x558ea69d07f0 -->
<g id="node6" class="node">
<title>0x558ea69d07f0</title>
<ellipse fill="none" stroke="black" cx="161.19" cy="-18" rx="161.37" ry="18"/>
<text text-anchor="middle" x="161.19" y="-14.3" font-family="Times,serif" font-size="14.00">SPHERE (&#45;20.40 111.00 133.00)</text>
</g>
<!-- 0x558ea69d09f0&#45;&gt;0x558ea69d07f0 -->
<g id="edge5" class="edge">
<title>0x558ea69d09f0&#45;&gt;0x558ea69d07f0</title>
<path fill="none" stroke="black" d="M292.8,-74.83C268.79,-64.65 236.06,-50.76 209.24,-39.39"/>
<polygon fill="black" stroke="black" points="210.6,-36.16 200.03,-35.48 207.87,-42.61 210.6,-36.16"/>
</g>
<!-- 0x558ea69d08f0 -->
<g id="node7" class="node">
<title>0x558ea69d08f0</title>
<ellipse fill="none" stroke="black" cx="492.19" cy="-18" rx="152.17" ry="18"/>
<text text-anchor="middle" x="492.19" y="-14.3" font-family="Times,serif" font-size="14.00">SPHERE (&#45;80.00 40.00 &#45;20.00)</text>
</g>
<!-- 0x558ea69d09f0&#45;&gt;0x558ea69d08f0 -->
<g id="edge6" class="edge">
<title>0x558ea69d09f0&#45;&gt;0x558ea69d08f0</title>
<path fill="none" stroke="black" d="M359.78,-74.83C383.93,-64.65 416.86,-50.76 443.84,-39.39"/>
<polygon fill="black" stroke="black" points="445.25,-42.59 453.11,-35.48 442.53,-36.14 445.25,-42.59"/>
</g>
<!-- 0x558ea69d0cf0 -->
<g id="node10" class="node">
<title>0x558ea69d0cf0</title>
<ellipse fill="none" stroke="black" cx="910.19" cy="-90" rx="163.57" ry="18"/>
<text text-anchor="middle" x="910.19" y="-86.3" font-family="Times,serif" font-size="14.00">SPHERE (100.00 &#45;58.50 &#45;100.00)</text>
</g>
<!-- 0x558ea69d0ef0&#45;&gt;0x558ea69d0cf0 -->
<g id="edge9" class="edge">
<title>0x558ea69d0ef0&#45;&gt;0x558ea69d0cf0</title>
<path fill="none" stroke="black" d="M1043.39,-146.83C1019.09,-136.65 985.97,-122.76 958.83,-111.39"/>
<polygon fill="black" stroke="black" points="960.08,-108.12 949.5,-107.48 957.37,-114.57 960.08,-108.12"/>
</g>
<!-- 0x558ea69d0df0 -->
<g id="node11" class="node">
<title>0x558ea69d0df0</title>
<ellipse fill="none" stroke="black" cx="1244.19" cy="-90" rx="152.17" ry="18"/>
<text text-anchor="middle" x="1244.19" y="-86.3" font-family="Times,serif" font-size="14.00">SPHERE (13.00 60.00 120.00)</text>
</g>
<!-- 0x558ea69d0ef0&#45;&gt;0x558ea69d0df0 -->
<g id="edge10" class="edge">
<title>0x558ea69d0ef0&#45;&gt;0x558ea69d0df0</title>
<path fill="none" stroke="black" d="M1110.98,-146.83C1135.28,-136.65 1168.41,-122.76 1195.54,-111.39"/>
<polygon fill="black" stroke="black" points="1197,-114.57 1204.87,-107.48 1194.29,-108.12 1197,-114.57"/>
</g>
<!-- 0x558ea69d12f0 -->
<g id="node13" class="node">
<title>0x558ea69d12f0</title>
<ellipse fill="none" stroke="black" cx="1889.19" cy="-162" rx="61.99" ry="18"/>
<text text-anchor="middle" x="1889.19" y="-158.3" font-family="Times,serif" font-size="14.00">INTERNAL</text>
</g>
<!-- 0x558ea69d16f0&#45;&gt;0x558ea69d12f0 -->
<g id="edge12" class="edge">
<title>0x558ea69d16f0&#45;&gt;0x558ea69d12f0</title>
<path fill="none" stroke="black" d="M2018.01,-218.67C1993,-207.86 1958.52,-192.96 1931.52,-181.29"/>
<polygon fill="black" stroke="black" points="1932.88,-178.07 1922.32,-177.32 1930.11,-184.49 1932.88,-178.07"/>
</g>
<!-- 0x558ea69d15f0 -->
<g id="node16" class="node">
<title>0x558ea69d15f0</title>
<ellipse fill="none" stroke="black" cx="2214.19" cy="-162" rx="61.99" ry="18"/>
<text text-anchor="middle" x="2214.19" y="-158.3" font-family="Times,serif" font-size="14.00">INTERNAL</text>
</g>
<!-- 0x558ea69d16f0&#45;&gt;0x558ea69d15f0 -->
<g id="edge15" class="edge">
<title>0x558ea69d16f0&#45;&gt;0x558ea69d15f0</title>
<path fill="none" stroke="black" d="M2084.56,-218.67C2109.73,-207.86 2144.42,-192.96 2171.59,-181.29"/>
<polygon fill="black" stroke="black" points="2173.04,-184.48 2180.85,-177.32 2170.28,-178.05 2173.04,-184.48"/>
</g>
<!-- 0x558ea69d10f0 -->
<g id="node14" class="node">
<title>0x558ea69d10f0</title>
<ellipse fill="none" stroke="black" cx="1564.19" cy="-90" rx="149.47" ry="18"/>
<text text-anchor="middle" x="1564.19" y="-86.3" font-family="Times,serif" font-size="14.00">SPHERE (&#45;20.40 38.00 30.00)</text>
</g>
<!-- 0x558ea69d12f0&#45;&gt;0x558ea69d10f0 -->
<g id="edge13" class="edge">
<title>0x558ea69d12f0&#45;&gt;0x558ea69d10f0</title>
<path fill="none" stroke="black" d="M1840.88,-150.6C1788.96,-139.41 1705.57,-121.45 1643.9,-108.17"/>
<polygon fill="black" stroke="black" points="1644.32,-104.68 1633.81,-106 1642.85,-111.52 1644.32,-104.68"/>
</g>
<!-- 0x558ea69d11f0 -->
<g id="node15" class="node">
<title>0x558ea69d11f0</title>
<ellipse fill="none" stroke="black" cx="1889.19" cy="-90" rx="157.87" ry="18"/>
<text text-anchor="middle" x="1889.19" y="-86.3" font-family="Times,serif" font-size="14.00">SPHERE (&#45;48.00 200.00 &#45;20.00)</text>
</g>
<!-- 0x558ea69d12f0&#45;&gt;0x558ea69d11f0 -->
<g id="edge14" class="edge">
<title>0x558ea69d12f0&#45;&gt;0x558ea69d11f0</title>
<path fill="none" stroke="black" d="M1889.19,-143.7C1889.19,-135.98 1889.19,-126.71 1889.19,-118.11"/>
<polygon fill="black" stroke="black" points="1892.69,-118.1 1889.19,-108.1 1885.69,-118.1 1892.69,-118.1"/>
</g>
<!-- 0x558ea69d13f0 -->
<g id="node17" class="node">
<title>0x558ea69d13f0</title>
<ellipse fill="none" stroke="black" cx="2214.19" cy="-90" rx="149.47" ry="18"/>
<text text-anchor="middle" x="2214.19" y="-86.3" font-family="Times,serif" font-size="14.00">SPHERE (38.00 70.00 &#45;17.20)</text>
</g>
<!-- 0x558ea69d15f0&#45;&gt;0x558ea69d13f0 -->
<g id="edge16" class="edge">
<title>0x558ea69d15f0&#45;&gt;0x558ea69d13f0</title>
<path fill="none" stroke="black" d="M2214.19,-143.7C2214.19,-135.98 2214.19,-126.71 2214.19,-118.11"/>
<polygon fill="black" stroke="black" points="2217.69,-118.1 2214.19,-108.1 2210.69,-118.1 2217.69,-118.1"/>
</g>
<!-- 0x558ea69d14f0 -->
<g id="node18" class="node">
<title>0x558ea69d14f0</title>
<ellipse fill="none" stroke="black" cx="2528.19" cy="-90" rx="146.47" ry="18"/>
<text text-anchor="middle" x="2528.19" y="-86.3" font-family="Times,serif" font-size="14.00">SPHERE (27.00 &#45;5.00 &#45;18.00)</text>
</g>
<!-- 0x558ea69d15f0&#45;&gt;0x558ea69d14f0 -->
<g id="edge17" class="edge">
<title>0x558ea69d15f0&#45;&gt;0x558ea69d14f0</title>
<path fill="none" stroke="black" d="M2261.53,-150.44C2311.66,-139.27 2391.57,-121.46 2450.86,-108.24"/>
<polygon fill="black" stroke="black" points="2451.93,-111.59 2460.93,-105.99 2450.41,-104.75 2451.93,-111.59"/>
</g>
<!-- 0x558ea69d1ef0 -->
<g id="node20" class="node">
<title>0x558ea69d1ef0</title>
<ellipse fill="none" stroke="black" cx="3294.19" cy="-234" rx="61.99" ry="18"/>
<text text-anchor="middle" x="3294.19" y="-230.3" font-family="Times,serif" font-size="14.00">INTERNAL</text>
</g>
<!-- 0x558ea69d26f0&#45;&gt;0x558ea69d1ef0 -->
<g id="edge19" class="edge">
<title>0x558ea69d26f0&#45;&gt;0x558ea69d1ef0</title>
<path fill="none" stroke="black" d="M3294.19,-287.7C3294.19,-279.98 3294.19,-270.71 3294.19,-262.11"/>
<polygon fill="black" stroke="black" points="3297.69,-262.1 3294.19,-252.1 3290.69,-262.1 3297.69,-262.1"/>
</g>
<!-- 0x558ea69d25f0 -->
<g id="node27" class="node">
<title>0x558ea69d25f0</title>
<ellipse fill="none" stroke="black" cx="4192.19" cy="-234" rx="61.99" ry="18"/>
<text text-anchor="middle" x="4192.19" y="-230.3" font-family="Times,serif" font-size="14.00">INTERNAL</text>
</g>
<!-- 0x558ea69d26f0&#45;&gt;0x558ea69d25f0 -->
<g id="edge26" class="edge">
<title>0x558ea69d26f0&#45;&gt;0x558ea69d25f0</title>
<path fill="none" stroke="black" d="M3353.11,-300.41C3512.66,-287.97 3952.53,-253.68 4123.22,-240.38"/>
<polygon fill="black" stroke="black" points="4123.64,-243.85 4133.34,-239.59 4123.1,-236.87 4123.64,-243.85"/>
</g>
<!-- 0x558ea69d1af0 -->
<g id="node21" class="node">
<title>0x558ea69d1af0</title>
<ellipse fill="none" stroke="black" cx="3143.19" cy="-162" rx="61.99" ry="18"/>
<text text-anchor="middle" x="3143.19" y="-158.3" font-family="Times,serif" font-size="14.00">INTERNAL</text>
</g>
<!-- 0x558ea69d1ef0&#45;&gt;0x558ea69d1af0 -->
<g id="edge20" class="edge">
<title>0x558ea69d1ef0&#45;&gt;0x558ea69d1af0</title>
<path fill="none" stroke="black" d="M3262.53,-218.33C3239.6,-207.7 3208.42,-193.24 3183.68,-181.77"/>
<polygon fill="black" stroke="black" points="3185.08,-178.57 3174.54,-177.53 3182.14,-184.92 3185.08,-178.57"/>
</g>
<!-- 0x558ea69d1df0 -->
<g id="node24" class="node">
<title>0x558ea69d1df0</title>
<ellipse fill="none" stroke="black" cx="3445.19" cy="-162" rx="61.99" ry="18"/>
<text text-anchor="middle" x="3445.19" y="-158.3" font-family="Times,serif" font-size="14.00">INTERNAL</text>
</g>
<!-- 0x558ea69d1ef0&#45;&gt;0x558ea69d1df0 -->
<g id="edge23" class="edge">
<title>0x558ea69d1ef0&#45;&gt;0x558ea69d1df0</title>
<path fill="none" stroke="black" d="M3325.84,-218.33C3348.77,-207.7 3379.95,-193.24 3404.7,-181.77"/>
<polygon fill="black" stroke="black" points="3406.23,-184.92 3413.83,-177.53 3403.29,-178.57 3406.23,-184.92"/>
</g>
<!-- 0x558ea69d18f0 -->
<g id="node22" class="node">
<title>0x558ea69d18f0</title>
<ellipse fill="none" stroke="black" cx="2838.19" cy="-90" rx="146.47" ry="18"/>
<text text-anchor="middle" x="2838.19" y="-86.3" font-family="Times,serif" font-size="14.00">SPHERE (50.00 12.00 77.00)</text>
</g>
<!-- 0x558ea69d1af0&#45;&gt;0x558ea69d18f0 -->
<g id="edge21" class="edge">
<title>0x558ea69d1af0&#45;&gt;0x558ea69d18f0</title>
<path fill="none" stroke="black" d="M3096.2,-150.22C3047.65,-139.07 2971.11,-121.51 2913.98,-108.4"/>
<polygon fill="black" stroke="black" points="2914.44,-104.91 2903.91,-106.09 2912.88,-111.73 2914.44,-104.91"/>
</g>
<!-- 0x558ea69d19f0 -->
<g id="node23" class="node">
<title>0x558ea69d19f0</title>
<ellipse fill="none" stroke="black" cx="3143.19" cy="-90" rx="140.28" ry="18"/>
<text text-anchor="middle" x="3143.19" y="-86.3" font-family="Times,serif" font-size="14.00">SPHERE (10.40 0.00 30.00)</text>
</g>
<!-- 0x558ea69d1af0&#45;&gt;0x558ea69d19f0 -->
<g id="edge22" class="edge">
<title>0x558ea69d1af0&#45;&gt;0x558ea69d19f0</title>
<path fill="none" stroke="black" d="M3143.19,-143.7C3143.19,-135.98 3143.19,-126.71 3143.19,-118.11"/>
<polygon fill="black" stroke="black" points="3146.69,-118.1 3143.19,-108.1 3139.69,-118.1 3146.69,-118.1"/>
</g>
<!-- 0x558ea69d1bf0 -->
<g id="node25" class="node">
<title>0x558ea69d1bf0</title>
<ellipse fill="none" stroke="black" cx="3445.19" cy="-90" rx="143.77" ry="18"/>
<text text-anchor="middle" x="3445.19" y="-86.3" font-family="Times,serif" font-size="14.00">SPHERE (20.00 &#45;20.00 0.00)</text>
</g>
<!-- 0x558ea69d1df0&#45;&gt;0x558ea69d1bf0 -->
<g id="edge24" class="edge">
<title>0x558ea69d1df0&#45;&gt;0x558ea69d1bf0</title>
<path fill="none" stroke="black" d="M3445.19,-143.7C3445.19,-135.98 3445.19,-126.71 3445.19,-118.11"/>
<polygon fill="black" stroke="black" points="3448.69,-118.1 3445.19,-108.1 3441.69,-118.1 3448.69,-118.1"/>
</g>
<!-- 0x558ea69d1cf0 -->
<g id="node26" class="node">
<title>0x558ea69d1cf0</title>
<ellipse fill="none" stroke="black" cx="3747.19" cy="-90" rx="140.28" ry="18"/>
<text text-anchor="middle" x="3747.19" y="-86.3" font-family="Times,serif" font-size="14.00">SPHERE (10.00 20.00 0.00)</text>
</g>
<!-- 0x558ea69d1df0&#45;&gt;0x558ea69d1cf0 -->
<g id="edge25" class="edge">
<title>0x558ea69d1df0&#45;&gt;0x558ea69d1cf0</title>
<path fill="none" stroke="black" d="M3492.04,-150.14C3540.26,-138.96 3616.1,-121.39 3672.58,-108.29"/>
<polygon fill="black" stroke="black" points="3673.58,-111.65 3682.53,-105.99 3672,-104.83 3673.58,-111.65"/>
</g>
<!-- 0x558ea69d21f0 -->
<g id="node28" class="node">
<title>0x558ea69d21f0</title>
<ellipse fill="none" stroke="black" cx="4192.19" cy="-162" rx="61.99" ry="18"/>
<text text-anchor="middle" x="4192.19" y="-158.3" font-family="Times,serif" font-size="14.00">INTERNAL</text>
</g>
<!-- 0x558ea69d25f0&#45;&gt;0x558ea69d21f0 -->
<g id="edge27" class="edge">
<title>0x558ea69d25f0&#45;&gt;0x558ea69d21f0</title>
<path fill="none" stroke="black" d="M4192.19,-215.7C4192.19,-207.98 4192.19,-198.71 4192.19,-190.11"/>
<polygon fill="black" stroke="black" points="4195.69,-190.1 4192.19,-180.1 4188.69,-190.1 4195.69,-190.1"/>
</g>
<!-- 0x558ea69d24f0 -->
<g id="node31" class="node">
<title>0x558ea69d24f0</title>
<ellipse fill="none" stroke="black" cx="4630.19" cy="-162" rx="61.99" ry="18"/>
<text text-anchor="middle" x="4630.19" y="-158.3" font-family="Times,serif" font-size="14.00">INTERNAL</text>
</g>
<!-- 0x558ea69d25f0&#45;&gt;0x558ea69d24f0 -->
<g id="edge30" class="edge">
<title>0x558ea69d25f0&#45;&gt;0x558ea69d24f0</title>
<path fill="none" stroke="black" d="M4245.02,-224.56C4326.11,-211.6 4480.93,-186.85 4567.55,-173.01"/>
<polygon fill="black" stroke="black" points="4568.18,-176.45 4577.51,-171.42 4567.08,-169.54 4568.18,-176.45"/>
</g>
<!-- 0x558ea69d1ff0 -->
<g id="node29" class="node">
<title>0x558ea69d1ff0</title>
<ellipse fill="none" stroke="black" cx="4046.19" cy="-90" rx="140.28" ry="18"/>
<text text-anchor="middle" x="4046.19" y="-86.3" font-family="Times,serif" font-size="14.00">SPHERE (20.00 0.00 40.20)</text>
</g>
<!-- 0x558ea69d21f0&#45;&gt;0x558ea69d1ff0 -->
<g id="edge28" class="edge">
<title>0x558ea69d21f0&#45;&gt;0x558ea69d1ff0</title>
<path fill="none" stroke="black" d="M4161.58,-146.33C4140.78,-136.35 4112.96,-123.01 4089.84,-111.93"/>
<polygon fill="black" stroke="black" points="4091.12,-108.66 4080.59,-107.49 4088.09,-114.97 4091.12,-108.66"/>
</g>
<!-- 0x558ea69d20f0 -->
<g id="node30" class="node">
<title>0x558ea69d20f0</title>
<ellipse fill="none" stroke="black" cx="4339.19" cy="-90" rx="134.58" ry="18"/>
<text text-anchor="middle" x="4339.19" y="-86.3" font-family="Times,serif" font-size="14.00">SPHERE (10.00 0.80 0.00)</text>
</g>
<!-- 0x558ea69d21f0&#45;&gt;0x558ea69d20f0 -->
<g id="edge29" class="edge">
<title>0x558ea69d21f0&#45;&gt;0x558ea69d20f0</title>
<path fill="none" stroke="black" d="M4223,-146.33C4243.94,-136.35 4271.96,-123.01 4295.23,-111.93"/>
<polygon fill="black" stroke="black" points="4297.02,-114.95 4304.55,-107.49 4294.02,-108.63 4297.02,-114.95"/>
</g>
<!-- 0x558ea69d22f0 -->
<g id="node32" class="node">
<title>0x558ea69d22f0</title>
<ellipse fill="none" stroke="black" cx="4630.19" cy="-90" rx="138.38" ry="18"/>
<text text-anchor="middle" x="4630.19" y="-86.3" font-family="Times,serif" font-size="14.00">CYLINDER (0.00 0.00 0.00)</text>
</g>
<!-- 0x558ea69d24f0&#45;&gt;0x558ea69d22f0 -->
<g id="edge31" class="edge">
<title>0x558ea69d24f0&#45;&gt;0x558ea69d22f0</title>
<path fill="none" stroke="black" d="M4630.19,-143.7C4630.19,-135.98 4630.19,-126.71 4630.19,-118.11"/>
<polygon fill="black" stroke="black" points="4633.69,-118.1 4630.19,-108.1 4626.69,-118.1 4633.69,-118.1"/>
</g>
<!-- 0x558ea69d23f0 -->
<g id="node33" class="node">
<title>0x558ea69d23f0</title>
<ellipse fill="none" stroke="black" cx="4818.19" cy="-90" rx="31.4" ry="18"/>
<text text-anchor="middle" x="4818.19" y="-86.3" font-family="Times,serif" font-size="14.00">BOX</text>
</g>
<!-- 0x558ea69d24f0&#45;&gt;0x558ea69d23f0 -->
<g id="edge32" class="edge">
<title>0x558ea69d24f0&#45;&gt;0x558ea69d23f0</title>
<path fill="none" stroke="black" d="M4668.44,-147.76C4698.22,-137.32 4740.5,-122.21 4777.19,-108 4779.43,-107.13 4781.73,-106.22 4784.05,-105.29"/>
<polygon fill="black" stroke="black" points="4785.6,-108.44 4793.55,-101.44 4782.96,-101.96 4785.6,-108.44"/>
</g>
</g>
</svg>
