<?xml version="1.0" encoding="UTF-8" standalone="no"?>
<!DOCTYPE svg PUBLIC "-//W3C//DTD SVG 1.1//EN"
 "http://www.w3.org/Graphics/SVG/1.1/DTD/svg11.dtd">
<!-- Generated by graphviz version 2.43.0 (0)
 -->
<!-- Title: BVH Pages: 1 -->
<svg width="1991pt" height="404pt"
 viewBox="0.00 0.00 1991.19 404.00" xmlns="http://www.w3.org/2000/svg" xmlns:xlink="http://www.w3.org/1999/xlink">
<g id="graph0" class="graph" transform="scale(1 1) rotate(0) translate(4 400)">
<title>BVH</title>
<polygon fill="white" stroke="transparent" points="-4,4 -4,-400 1987.19,-400 1987.19,4 -4,4"/>
<!-- 0x559c971047f0 -->
<g id="node1" class="node">
<title>0x559c971047f0</title>
<ellipse fill="none" stroke="black" cx="1028" cy="-378" rx="38.19" ry="18"/>
<text text-anchor="middle" x="1028" y="-374.3" font-family="Times,serif" font-size="14.00">ROOT</text>
</g>
<!-- 0x559c971037f0 -->
<g id="node2" class="node">
<title>0x559c971037f0</title>
<ellipse fill="none" stroke="black" cx="794" cy="-306" rx="61.99" ry="18"/>
<text text-anchor="middle" x="794" y="-302.3" font-family="Times,serif" font-size="14.00">INTERNAL</text>
</g>
<!-- 0x559c971047f0&#45;&gt;0x559c971037f0 -->
<g id="edge1" class="edge">
<title>0x559c971047f0&#45;&gt;0x559c971037f0</title>
<path fill="none" stroke="black" d="M996.44,-367.56C957.74,-355.98 891.61,-336.2 845.5,-322.41"/>
<polygon fill="black" stroke="black" points="846.28,-318.99 835.69,-319.47 844.27,-325.69 846.28,-318.99"/>
</g>
<!-- 0x559c971046f0 -->
<g id="node19" class="node">
<title>0x559c971046f0</title>
<ellipse fill="none" stroke="black" cx="1281" cy="-306" rx="61.99" ry="18"/>
<text text-anchor="middle" x="1281" y="-302.3" font-family="Times,serif" font-size="14.00">INTERNAL</text>
</g>
<!-- 0x559c971047f0&#45;&gt;0x559c971046f0 -->
<g id="edge18" class="edge">
<title>0x559c971047f0&#45;&gt;0x559c971046f0</title>
<path fill="none" stroke="black" d="M1060.29,-368.06C1102.63,-356.35 1177.45,-335.65 1228.11,-321.63"/>
<polygon fill="black" stroke="black" points="1229.19,-324.96 1237.9,-318.92 1227.33,-318.22 1229.19,-324.96"/>
</g>
<!-- 0x559c97102ff0 -->
<g id="node3" class="node">
<title>0x559c97102ff0</title>
<ellipse fill="none" stroke="black" cx="438" cy="-234" rx="61.99" ry="18"/>
<text text-anchor="middle" x="438" y="-230.3" font-family="Times,serif" font-size="14.00">INTERNAL</text>
</g>
<!-- 0x559c971037f0&#45;&gt;0x559c97102ff0 -->
<g id="edge2" class="edge">
<title>0x559c971037f0&#45;&gt;0x559c97102ff0</title>
<path fill="none" stroke="black" d="M744.12,-295.19C679.46,-282.48 566.83,-260.33 497.69,-246.74"/>
<polygon fill="black" stroke="black" points="498.31,-243.29 487.82,-244.8 496.96,-250.16 498.31,-243.29"/>
</g>
<!-- 0x559c971036f0 -->
<g id="node12" class="node">
<title>0x559c971036f0</title>
<ellipse fill="none" stroke="black" cx="794" cy="-234" rx="61.99" ry="18"/>
<text text-anchor="middle" x="794" y="-230.3" font-family="Times,serif" font-size="14.00">INTERNAL</text>
</g>
<!-- 0x559c971037f0&#45;&gt;0x559c971036f0 -->
<g id="edge11" class="edge">
<title>0x559c971037f0&#45;&gt;0x559c971036f0</title>
<path fill="none" stroke="black" d="M794,-287.7C794,-279.98 794,-270.71 794,-262.11"/>
<polygon fill="black" stroke="black" points="797.5,-262.1 794,-252.1 790.5,-262.1 797.5,-262.1"/>
</g>
<!-- 0x559c97102bf0 -->
<g id="node4" class="node">
<title>0x559c97102bf0</title>
<ellipse fill="none" stroke="black" cx="245" cy="-162" rx="61.99" ry="18"/>
<text text-anchor="middle" x="245" y="-158.3" font-family="Times,serif" font-size="14.00">INTERNAL</text>
</g>
<!-- 0x559c97102ff0&#45;&gt;0x559c97102bf0 -->
<g id="edge3" class="edge">
<title>0x559c97102ff0&#45;&gt;0x559c97102bf0</title>
<path fill="none" stroke="black" d="M400.78,-219.5C369.68,-208.22 325.15,-192.07 291.66,-179.93"/>
<polygon fill="black" stroke="black" points="292.69,-176.57 282.09,-176.46 290.3,-183.16 292.69,-176.57"/>
</g>
<!-- 0x559c97102ef0 -->
<g id="node9" class="node">
<title>0x559c97102ef0</title>
<ellipse fill="none" stroke="black" cx="438" cy="-162" rx="61.99" ry="18"/>
<text text-anchor="middle" x="438" y="-158.3" font-family="Times,serif" font-size="14.00">INTERNAL</text>
</g>
<!-- 0x559c97102ff0&#45;&gt;0x559c97102ef0 -->
<g id="edge8" class="edge">
<title>0x559c97102ff0&#45;&gt;0x559c97102ef0</title>
<path fill="none" stroke="black" d="M438,-215.7C438,-207.98 438,-198.71 438,-190.11"/>
<polygon fill="black" stroke="black" points="441.5,-190.1 438,-180.1 434.5,-190.1 441.5,-190.1"/>
</g>
<!-- 0x559c971029f0 -->
<g id="node5" class="node">
<title>0x559c971029f0</title>
<ellipse fill="none" stroke="black" cx="113" cy="-90" rx="61.99" ry="18"/>
<text text-anchor="middle" x="113" y="-86.3" font-family="Times,serif" font-size="14.00">INTERNAL</text>
</g>
<!-- 0x559c97102bf0&#45;&gt;0x559c971029f0 -->
<g id="edge4" class="edge">
<title>0x559c97102bf0&#45;&gt;0x559c971029f0</title>
<path fill="none" stroke="black" d="M216.68,-145.98C197.41,-135.76 171.7,-122.13 150.7,-110.99"/>
<polygon fill="black" stroke="black" points="152.2,-107.83 141.72,-106.23 148.92,-114.01 152.2,-107.83"/>
</g>
<!-- 0x559c97102af0 -->
<g id="node8" class="node">
<title>0x559c97102af0</title>
<ellipse fill="none" stroke="black" cx="245" cy="-90" rx="51.99" ry="18"/>
<text text-anchor="middle" x="245" y="-86.3" font-family="Times,serif" font-size="14.00">SPHERE</text>
</g>
<!-- 0x559c97102bf0&#45;&gt;0x559c97102af0 -->
<g id="edge7" class="edge">
<title>0x559c97102bf0&#45;&gt;0x559c97102af0</title>
<path fill="none" stroke="black" d="M245,-143.7C245,-135.98 245,-126.71 245,-118.11"/>
<polygon fill="black" stroke="black" points="248.5,-118.1 245,-108.1 241.5,-118.1 248.5,-118.1"/>
</g>
<!-- 0x559c971027f0 -->
<g id="node6" class="node">
<title>0x559c971027f0</title>
<ellipse fill="none" stroke="black" cx="52" cy="-18" rx="51.99" ry="18"/>
<text text-anchor="middle" x="52" y="-14.3" font-family="Times,serif" font-size="14.00">SPHERE</text>
</g>
<!-- 0x559c971029f0&#45;&gt;0x559c971027f0 -->
<g id="edge5" class="edge">
<title>0x559c971029f0&#45;&gt;0x559c971027f0</title>
<path fill="none" stroke="black" d="M98.54,-72.41C90.94,-63.69 81.49,-52.85 73.09,-43.21"/>
<polygon fill="black" stroke="black" points="75.56,-40.71 66.35,-35.47 70.28,-45.31 75.56,-40.71"/>
</g>
<!-- 0x559c971028f0 -->
<g id="node7" class="node">
<title>0x559c971028f0</title>
<ellipse fill="none" stroke="black" cx="174" cy="-18" rx="51.99" ry="18"/>
<text text-anchor="middle" x="174" y="-14.3" font-family="Times,serif" font-size="14.00">SPHERE</text>
</g>
<!-- 0x559c971029f0&#45;&gt;0x559c971028f0 -->
<g id="edge6" class="edge">
<title>0x559c971029f0&#45;&gt;0x559c971028f0</title>
<path fill="none" stroke="black" d="M127.45,-72.41C135.05,-63.69 144.5,-52.85 152.9,-43.21"/>
<polygon fill="black" stroke="black" points="155.71,-45.31 159.64,-35.47 150.43,-40.71 155.71,-45.31"/>
</g>
<!-- 0x559c97102cf0 -->
<g id="node10" class="node">
<title>0x559c97102cf0</title>
<ellipse fill="none" stroke="black" cx="367" cy="-90" rx="51.99" ry="18"/>
<text text-anchor="middle" x="367" y="-86.3" font-family="Times,serif" font-size="14.00">SPHERE</text>
</g>
<!-- 0x559c97102ef0&#45;&gt;0x559c97102cf0 -->
<g id="edge9" class="edge">
<title>0x559c97102ef0&#45;&gt;0x559c97102cf0</title>
<path fill="none" stroke="black" d="M421.17,-144.41C412.15,-135.52 400.88,-124.41 390.96,-114.63"/>
<polygon fill="black" stroke="black" points="393.28,-112 383.7,-107.47 388.36,-116.98 393.28,-112"/>
</g>
<!-- 0x559c97102df0 -->
<g id="node11" class="node">
<title>0x559c97102df0</title>
<ellipse fill="none" stroke="black" cx="489" cy="-90" rx="51.99" ry="18"/>
<text text-anchor="middle" x="489" y="-86.3" font-family="Times,serif" font-size="14.00">SPHERE</text>
</g>
<!-- 0x559c97102ef0&#45;&gt;0x559c97102df0 -->
<g id="edge10" class="edge">
<title>0x559c97102ef0&#45;&gt;0x559c97102df0</title>
<path fill="none" stroke="black" d="M450.34,-144.05C456.48,-135.63 464.02,-125.28 470.81,-115.97"/>
<polygon fill="black" stroke="black" points="473.7,-117.93 476.76,-107.79 468.05,-113.81 473.7,-117.93"/>
</g>
<!-- 0x559c971032f0 -->
<g id="node13" class="node">
<title>0x559c971032f0</title>
<ellipse fill="none" stroke="black" cx="724" cy="-162" rx="61.99" ry="18"/>
<text text-anchor="middle" x="724" y="-158.3" font-family="Times,serif" font-size="14.00">INTERNAL</text>
</g>
<!-- 0x559c971036f0&#45;&gt;0x559c971032f0 -->
<g id="edge12" class="edge">
<title>0x559c971036f0&#45;&gt;0x559c971032f0</title>
<path fill="none" stroke="black" d="M777.41,-216.41C768.51,-207.52 757.41,-196.41 747.63,-186.63"/>
<polygon fill="black" stroke="black" points="750.01,-184.07 740.47,-179.47 745.06,-189.02 750.01,-184.07"/>
</g>
<!-- 0x559c971035f0 -->
<g id="node16" class="node">
<title>0x559c971035f0</title>
<ellipse fill="none" stroke="black" cx="865" cy="-162" rx="61.99" ry="18"/>
<text text-anchor="middle" x="865" y="-158.3" font-family="Times,serif" font-size="14.00">INTERNAL</text>
</g>
<!-- 0x559c971036f0&#45;&gt;0x559c971035f0 -->
<g id="edge15" class="edge">
<title>0x559c971036f0&#45;&gt;0x559c971035f0</title>
<path fill="none" stroke="black" d="M810.82,-216.41C819.84,-207.52 831.11,-196.41 841.03,-186.63"/>
<polygon fill="black" stroke="black" points="843.63,-188.98 848.29,-179.47 838.71,-184 843.63,-188.98"/>
</g>
<!-- 0x559c971030f0 -->
<g id="node14" class="node">
<title>0x559c971030f0</title>
<ellipse fill="none" stroke="black" cx="611" cy="-90" rx="51.99" ry="18"/>
<text text-anchor="middle" x="611" y="-86.3" font-family="Times,serif" font-size="14.00">SPHERE</text>
</g>
<!-- 0x559c971032f0&#45;&gt;0x559c971030f0 -->
<g id="edge13" class="edge">
<title>0x559c971032f0&#45;&gt;0x559c971030f0</title>
<path fill="none" stroke="black" d="M698.92,-145.46C682.75,-135.45 661.55,-122.32 644.02,-111.46"/>
<polygon fill="black" stroke="black" points="645.57,-108.3 635.23,-106.01 641.89,-114.25 645.57,-108.3"/>
</g>
<!-- 0x559c971031f0 -->
<g id="node15" class="node">
<title>0x559c971031f0</title>
<ellipse fill="none" stroke="black" cx="733" cy="-90" rx="51.99" ry="18"/>
<text text-anchor="middle" x="733" y="-86.3" font-family="Times,serif" font-size="14.00">SPHERE</text>
</g>
<!-- 0x559c971032f0&#45;&gt;0x559c971031f0 -->
<g id="edge14" class="edge">
<title>0x559c971032f0&#45;&gt;0x559c971031f0</title>
<path fill="none" stroke="black" d="M726.22,-143.7C727.21,-135.98 728.4,-126.71 729.51,-118.11"/>
<polygon fill="black" stroke="black" points="732.99,-118.47 730.8,-108.1 726.05,-117.58 732.99,-118.47"/>
</g>
<!-- 0x559c971033f0 -->
<g id="node17" class="node">
<title>0x559c971033f0</title>
<ellipse fill="none" stroke="black" cx="855" cy="-90" rx="51.99" ry="18"/>
<text text-anchor="middle" x="855" y="-86.3" font-family="Times,serif" font-size="14.00">SPHERE</text>
</g>
<!-- 0x559c971035f0&#45;&gt;0x559c971033f0 -->
<g id="edge16" class="edge">
<title>0x559c971035f0&#45;&gt;0x559c971033f0</title>
<path fill="none" stroke="black" d="M862.52,-143.7C861.42,-135.98 860.1,-126.71 858.87,-118.11"/>
<polygon fill="black" stroke="black" points="862.32,-117.51 857.44,-108.1 855.39,-118.5 862.32,-117.51"/>
</g>
<!-- 0x559c971034f0 -->
<g id="node18" class="node">
<title>0x559c971034f0</title>
<ellipse fill="none" stroke="black" cx="977" cy="-90" rx="51.99" ry="18"/>
<text text-anchor="middle" x="977" y="-86.3" font-family="Times,serif" font-size="14.00">SPHERE</text>
</g>
<!-- 0x559c971035f0&#45;&gt;0x559c971034f0 -->
<g id="edge17" class="edge">
<title>0x559c971035f0&#45;&gt;0x559c971034f0</title>
<path fill="none" stroke="black" d="M889.85,-145.46C905.88,-135.45 926.89,-122.32 944.27,-111.46"/>
<polygon fill="black" stroke="black" points="946.35,-114.28 952.98,-106.01 942.64,-108.34 946.35,-114.28"/>
</g>
<!-- 0x559c97103ef0 -->
<g id="node20" class="node">
<title>0x559c97103ef0</title>
<ellipse fill="none" stroke="black" cx="1281" cy="-234" rx="61.99" ry="18"/>
<text text-anchor="middle" x="1281" y="-230.3" font-family="Times,serif" font-size="14.00">INTERNAL</text>
</g>
<!-- 0x559c971046f0&#45;&gt;0x559c97103ef0 -->
<g id="edge19" class="edge">
<title>0x559c971046f0&#45;&gt;0x559c97103ef0</title>
<path fill="none" stroke="black" d="M1281,-287.7C1281,-279.98 1281,-270.71 1281,-262.11"/>
<polygon fill="black" stroke="black" points="1284.5,-262.1 1281,-252.1 1277.5,-262.1 1284.5,-262.1"/>
</g>
<!-- 0x559c971045f0 -->
<g id="node27" class="node">
<title>0x559c971045f0</title>
<ellipse fill="none" stroke="black" cx="1643" cy="-234" rx="61.99" ry="18"/>
<text text-anchor="middle" x="1643" y="-230.3" font-family="Times,serif" font-size="14.00">INTERNAL</text>
</g>
<!-- 0x559c971046f0&#45;&gt;0x559c971045f0 -->
<g id="edge26" class="edge">
<title>0x559c971046f0&#45;&gt;0x559c971045f0</title>
<path fill="none" stroke="black" d="M1330.95,-295.34C1396.76,-282.61 1512.39,-260.25 1582.91,-246.62"/>
<polygon fill="black" stroke="black" points="1583.82,-250.01 1592.97,-244.67 1582.49,-243.14 1583.82,-250.01"/>
</g>
<!-- 0x559c97103af0 -->
<g id="node21" class="node">
<title>0x559c97103af0</title>
<ellipse fill="none" stroke="black" cx="1211" cy="-162" rx="61.99" ry="18"/>
<text text-anchor="middle" x="1211" y="-158.3" font-family="Times,serif" font-size="14.00">INTERNAL</text>
</g>
<!-- 0x559c97103ef0&#45;&gt;0x559c97103af0 -->
<g id="edge20" class="edge">
<title>0x559c97103ef0&#45;&gt;0x559c97103af0</title>
<path fill="none" stroke="black" d="M1264.41,-216.41C1255.51,-207.52 1244.41,-196.41 1234.63,-186.63"/>
<polygon fill="black" stroke="black" points="1237.01,-184.07 1227.47,-179.47 1232.06,-189.02 1237.01,-184.07"/>
</g>
<!-- 0x559c97103df0 -->
<g id="node24" class="node">
<title>0x559c97103df0</title>
<ellipse fill="none" stroke="black" cx="1352" cy="-162" rx="61.99" ry="18"/>
<text text-anchor="middle" x="1352" y="-158.3" font-family="Times,serif" font-size="14.00">INTERNAL</text>
</g>
<!-- 0x559c97103ef0&#45;&gt;0x559c97103df0 -->
<g id="edge23" class="edge">
<title>0x559c97103ef0&#45;&gt;0x559c97103df0</title>
<path fill="none" stroke="black" d="M1297.82,-216.41C1306.84,-207.52 1318.11,-196.41 1328.03,-186.63"/>
<polygon fill="black" stroke="black" points="1330.63,-188.98 1335.29,-179.47 1325.71,-184 1330.63,-188.98"/>
</g>
<!-- 0x559c971038f0 -->
<g id="node22" class="node">
<title>0x559c971038f0</title>
<ellipse fill="none" stroke="black" cx="1099" cy="-90" rx="51.99" ry="18"/>
<text text-anchor="middle" x="1099" y="-86.3" font-family="Times,serif" font-size="14.00">SPHERE</text>
</g>
<!-- 0x559c97103af0&#45;&gt;0x559c971038f0 -->
<g id="edge21" class="edge">
<title>0x559c97103af0&#45;&gt;0x559c971038f0</title>
<path fill="none" stroke="black" d="M1186.14,-145.46C1170.11,-135.45 1149.1,-122.32 1131.72,-111.46"/>
<polygon fill="black" stroke="black" points="1133.35,-108.34 1123.01,-106.01 1129.64,-114.28 1133.35,-108.34"/>
</g>
<!-- 0x559c971039f0 -->
<g id="node23" class="node">
<title>0x559c971039f0</title>
<ellipse fill="none" stroke="black" cx="1221" cy="-90" rx="51.99" ry="18"/>
<text text-anchor="middle" x="1221" y="-86.3" font-family="Times,serif" font-size="14.00">SPHERE</text>
</g>
<!-- 0x559c97103af0&#45;&gt;0x559c971039f0 -->
<g id="edge22" class="edge">
<title>0x559c97103af0&#45;&gt;0x559c971039f0</title>
<path fill="none" stroke="black" d="M1213.47,-143.7C1214.57,-135.98 1215.89,-126.71 1217.12,-118.11"/>
<polygon fill="black" stroke="black" points="1220.6,-118.5 1218.55,-108.1 1213.67,-117.51 1220.6,-118.5"/>
</g>
<!-- 0x559c97103bf0 -->
<g id="node25" class="node">
<title>0x559c97103bf0</title>
<ellipse fill="none" stroke="black" cx="1343" cy="-90" rx="51.99" ry="18"/>
<text text-anchor="middle" x="1343" y="-86.3" font-family="Times,serif" font-size="14.00">SPHERE</text>
</g>
<!-- 0x559c97103df0&#45;&gt;0x559c97103bf0 -->
<g id="edge24" class="edge">
<title>0x559c97103df0&#45;&gt;0x559c97103bf0</title>
<path fill="none" stroke="black" d="M1349.77,-143.7C1348.78,-135.98 1347.59,-126.71 1346.48,-118.11"/>
<polygon fill="black" stroke="black" points="1349.94,-117.58 1345.19,-108.1 1343,-118.47 1349.94,-117.58"/>
</g>
<!-- 0x559c97103cf0 -->
<g id="node26" class="node">
<title>0x559c97103cf0</title>
<ellipse fill="none" stroke="black" cx="1465" cy="-90" rx="51.99" ry="18"/>
<text text-anchor="middle" x="1465" y="-86.3" font-family="Times,serif" font-size="14.00">SPHERE</text>
</g>
<!-- 0x559c97103df0&#45;&gt;0x559c97103cf0 -->
<g id="edge25" class="edge">
<title>0x559c97103df0&#45;&gt;0x559c97103cf0</title>
<path fill="none" stroke="black" d="M1377.07,-145.46C1393.24,-135.45 1414.44,-122.32 1431.98,-111.46"/>
<polygon fill="black" stroke="black" points="1434.1,-114.25 1440.76,-106.01 1430.42,-108.3 1434.1,-114.25"/>
</g>
<!-- 0x559c971041f0 -->
<g id="node28" class="node">
<title>0x559c971041f0</title>
<ellipse fill="none" stroke="black" cx="1643" cy="-162" rx="61.99" ry="18"/>
<text text-anchor="middle" x="1643" y="-158.3" font-family="Times,serif" font-size="14.00">INTERNAL</text>
</g>
<!-- 0x559c971045f0&#45;&gt;0x559c971041f0 -->
<g id="edge27" class="edge">
<title>0x559c971045f0&#45;&gt;0x559c971041f0</title>
<path fill="none" stroke="black" d="M1643,-215.7C1643,-207.98 1643,-198.71 1643,-190.11"/>
<polygon fill="black" stroke="black" points="1646.5,-190.1 1643,-180.1 1639.5,-190.1 1646.5,-190.1"/>
</g>
<!-- 0x559c971044f0 -->
<g id="node31" class="node">
<title>0x559c971044f0</title>
<ellipse fill="none" stroke="black" cx="1841" cy="-162" rx="61.99" ry="18"/>
<text text-anchor="middle" x="1841" y="-158.3" font-family="Times,serif" font-size="14.00">INTERNAL</text>
</g>
<!-- 0x559c971045f0&#45;&gt;0x559c971044f0 -->
<g id="edge30" class="edge">
<title>0x559c971045f0&#45;&gt;0x559c971044f0</title>
<path fill="none" stroke="black" d="M1680.7,-219.67C1712.67,-208.37 1758.69,-192.1 1793.22,-179.89"/>
<polygon fill="black" stroke="black" points="1794.83,-183.03 1803.09,-176.4 1792.5,-176.43 1794.83,-183.03"/>
</g>
<!-- 0x559c97103ff0 -->
<g id="node29" class="node">
<title>0x559c97103ff0</title>
<ellipse fill="none" stroke="black" cx="1587" cy="-90" rx="51.99" ry="18"/>
<text text-anchor="middle" x="1587" y="-86.3" font-family="Times,serif" font-size="14.00">SPHERE</text>
</g>
<!-- 0x559c971041f0&#45;&gt;0x559c97103ff0 -->
<g id="edge28" class="edge">
<title>0x559c971041f0&#45;&gt;0x559c97103ff0</title>
<path fill="none" stroke="black" d="M1629.72,-144.41C1622.82,-135.78 1614.25,-125.06 1606.59,-115.5"/>
<polygon fill="black" stroke="black" points="1609.15,-113.09 1600.17,-107.47 1603.69,-117.47 1609.15,-113.09"/>
</g>
<!-- 0x559c971040f0 -->
<g id="node30" class="node">
<title>0x559c971040f0</title>
<ellipse fill="none" stroke="black" cx="1709" cy="-90" rx="51.99" ry="18"/>
<text text-anchor="middle" x="1709" y="-86.3" font-family="Times,serif" font-size="14.00">SPHERE</text>
</g>
<!-- 0x559c971041f0&#45;&gt;0x559c971040f0 -->
<g id="edge29" class="edge">
<title>0x559c971041f0&#45;&gt;0x559c971040f0</title>
<path fill="none" stroke="black" d="M1658.64,-144.41C1666.94,-135.61 1677.29,-124.63 1686.44,-114.92"/>
<polygon fill="black" stroke="black" points="1689.15,-117.15 1693.47,-107.47 1684.06,-112.34 1689.15,-117.15"/>
</g>
<!-- 0x559c971042f0 -->
<g id="node32" class="node">
<title>0x559c971042f0</title>
<ellipse fill="none" stroke="black" cx="1841" cy="-90" rx="61.99" ry="18"/>
<text text-anchor="middle" x="1841" y="-86.3" font-family="Times,serif" font-size="14.00">CYLINDER</text>
</g>
<!-- 0x559c971044f0&#45;&gt;0x559c971042f0 -->
<g id="edge31" class="edge">
<title>0x559c971044f0&#45;&gt;0x559c971042f0</title>
<path fill="none" stroke="black" d="M1841,-143.7C1841,-135.98 1841,-126.71 1841,-118.11"/>
<polygon fill="black" stroke="black" points="1844.5,-118.1 1841,-108.1 1837.5,-118.1 1844.5,-118.1"/>
</g>
<!-- 0x559c971043f0 -->
<g id="node33" class="node">
<title>0x559c971043f0</title>
<ellipse fill="none" stroke="black" cx="1952" cy="-90" rx="31.4" ry="18"/>
<text text-anchor="middle" x="1952" y="-86.3" font-family="Times,serif" font-size="14.00">BOX</text>
</g>
<!-- 0x559c971044f0&#45;&gt;0x559c971043f0 -->
<g id="edge32" class="edge">
<title>0x559c971044f0&#45;&gt;0x559c971043f0</title>
<path fill="none" stroke="black" d="M1865.63,-145.46C1882.49,-134.83 1904.92,-120.68 1922.7,-109.47"/>
<polygon fill="black" stroke="black" points="1924.93,-112.21 1931.52,-103.91 1921.19,-106.29 1924.93,-112.21"/>
</g>
</g>
</svg>
