<?xml version="1.0" encoding="UTF-8" standalone="no"?>
<!DOCTYPE svg PUBLIC "-//W3C//DTD SVG 1.1//EN"
 "http://www.w3.org/Graphics/SVG/1.1/DTD/svg11.dtd">
<!-- Generated by graphviz version 2.43.0 (0)
 -->
<!-- Title: BVH Pages: 1 -->
<svg width="1962pt" height="332pt"
 viewBox="0.00 0.00 1961.74 332.00" xmlns="http://www.w3.org/2000/svg" xmlns:xlink="http://www.w3.org/1999/xlink">
<g id="graph0" class="graph" transform="scale(1 1) rotate(0) translate(4 328)">
<title>BVH</title>
<polygon fill="white" stroke="transparent" points="-4,4 -4,-328 1957.74,-328 1957.74,4 -4,4"/>
<!-- 0x5583e0d30400 -->
<g id="node1" class="node">
<title>0x5583e0d30400</title>
<ellipse fill="none" stroke="black" cx="957" cy="-306" rx="91.78" ry="18"/>
<text text-anchor="middle" x="957" y="-302.3" font-family="Times,serif" font-size="14.00">0x5583e0d30400</text>
</g>
<!-- 0x5583e0d2f400 -->
<g id="node2" class="node">
<title>0x5583e0d2f400</title>
<ellipse fill="none" stroke="black" cx="726" cy="-234" rx="89.08" ry="18"/>
<text text-anchor="middle" x="726" y="-230.3" font-family="Times,serif" font-size="14.00">0x5583e0d2f400</text>
</g>
<!-- 0x5583e0d30400&#45;&gt;0x5583e0d2f400 -->
<g id="edge1" class="edge">
<title>0x5583e0d30400&#45;&gt;0x5583e0d2f400</title>
<path fill="none" stroke="black" d="M909.41,-290.58C872.64,-279.44 821.63,-263.98 782.73,-252.19"/>
<polygon fill="black" stroke="black" points="783.71,-248.83 773.12,-249.28 781.68,-255.53 783.71,-248.83"/>
</g>
<!-- 0x5583e0d30300 -->
<g id="node17" class="node">
<title>0x5583e0d30300</title>
<ellipse fill="none" stroke="black" cx="1220" cy="-234" rx="91.78" ry="18"/>
<text text-anchor="middle" x="1220" y="-230.3" font-family="Times,serif" font-size="14.00">0x5583e0d30300</text>
</g>
<!-- 0x5583e0d30400&#45;&gt;0x5583e0d30300 -->
<g id="edge16" class="edge">
<title>0x5583e0d30400&#45;&gt;0x5583e0d30300</title>
<path fill="none" stroke="black" d="M1008.96,-291.17C1051.77,-279.77 1112.61,-263.58 1157.97,-251.51"/>
<polygon fill="black" stroke="black" points="1158.93,-254.88 1167.69,-248.92 1157.13,-248.11 1158.93,-254.88"/>
</g>
<!-- 0x5583e0d2ec00 -->
<g id="node3" class="node">
<title>0x5583e0d2ec00</title>
<ellipse fill="none" stroke="black" cx="396" cy="-162" rx="90.18" ry="18"/>
<text text-anchor="middle" x="396" y="-158.3" font-family="Times,serif" font-size="14.00">0x5583e0d2ec00</text>
</g>
<!-- 0x5583e0d2f400&#45;&gt;0x5583e0d2ec00 -->
<g id="edge2" class="edge">
<title>0x5583e0d2f400&#45;&gt;0x5583e0d2ec00</title>
<path fill="none" stroke="black" d="M667,-220.49C610.48,-208.5 525.18,-190.4 465.42,-177.73"/>
<polygon fill="black" stroke="black" points="465.82,-174.23 455.32,-175.58 464.37,-181.08 465.82,-174.23"/>
</g>
<!-- 0x5583e0d2f300 -->
<g id="node10" class="node">
<title>0x5583e0d2f300</title>
<ellipse fill="none" stroke="black" cx="726" cy="-162" rx="89.08" ry="18"/>
<text text-anchor="middle" x="726" y="-158.3" font-family="Times,serif" font-size="14.00">0x5583e0d2f300</text>
</g>
<!-- 0x5583e0d2f400&#45;&gt;0x5583e0d2f300 -->
<g id="edge9" class="edge">
<title>0x5583e0d2f400&#45;&gt;0x5583e0d2f300</title>
<path fill="none" stroke="black" d="M726,-215.7C726,-207.98 726,-198.71 726,-190.11"/>
<polygon fill="black" stroke="black" points="729.5,-190.1 726,-180.1 722.5,-190.1 729.5,-190.1"/>
</g>
<!-- 0x5583e0d2e800 -->
<g id="node4" class="node">
<title>0x5583e0d2e800</title>
<ellipse fill="none" stroke="black" cx="174" cy="-90" rx="90.98" ry="18"/>
<text text-anchor="middle" x="174" y="-86.3" font-family="Times,serif" font-size="14.00">0x5583e0d2e800</text>
</g>
<!-- 0x5583e0d2ec00&#45;&gt;0x5583e0d2e800 -->
<g id="edge3" class="edge">
<title>0x5583e0d2ec00&#45;&gt;0x5583e0d2e800</title>
<path fill="none" stroke="black" d="M350,-146.5C315.14,-135.5 267.07,-120.35 229.98,-108.65"/>
<polygon fill="black" stroke="black" points="230.91,-105.27 220.32,-105.61 228.8,-111.95 230.91,-105.27"/>
</g>
<!-- 0x5583e0d2eb00 -->
<g id="node7" class="node">
<title>0x5583e0d2eb00</title>
<ellipse fill="none" stroke="black" cx="396" cy="-90" rx="90.98" ry="18"/>
<text text-anchor="middle" x="396" y="-86.3" font-family="Times,serif" font-size="14.00">0x5583e0d2eb00</text>
</g>
<!-- 0x5583e0d2ec00&#45;&gt;0x5583e0d2eb00 -->
<g id="edge6" class="edge">
<title>0x5583e0d2ec00&#45;&gt;0x5583e0d2eb00</title>
<path fill="none" stroke="black" d="M396,-143.7C396,-135.98 396,-126.71 396,-118.11"/>
<polygon fill="black" stroke="black" points="399.5,-118.1 396,-108.1 392.5,-118.1 399.5,-118.1"/>
</g>
<!-- 0x5583e0d2e600 -->
<g id="node5" class="node">
<title>0x5583e0d2e600</title>
<ellipse fill="none" stroke="black" cx="52" cy="-18" rx="51.99" ry="18"/>
<text text-anchor="middle" x="52" y="-14.3" font-family="Times,serif" font-size="14.00">SPHERE</text>
</g>
<!-- 0x5583e0d2e800&#45;&gt;0x5583e0d2e600 -->
<g id="edge4" class="edge">
<title>0x5583e0d2e800&#45;&gt;0x5583e0d2e600</title>
<path fill="none" stroke="black" d="M145.7,-72.76C128.04,-62.63 105.18,-49.51 86.46,-38.77"/>
<polygon fill="black" stroke="black" points="88.06,-35.66 77.64,-33.72 84.58,-41.73 88.06,-35.66"/>
</g>
<!-- 0x5583e0d2e700 -->
<g id="node6" class="node">
<title>0x5583e0d2e700</title>
<ellipse fill="none" stroke="black" cx="174" cy="-18" rx="51.99" ry="18"/>
<text text-anchor="middle" x="174" y="-14.3" font-family="Times,serif" font-size="14.00">SPHERE</text>
</g>
<!-- 0x5583e0d2e800&#45;&gt;0x5583e0d2e700 -->
<g id="edge5" class="edge">
<title>0x5583e0d2e800&#45;&gt;0x5583e0d2e700</title>
<path fill="none" stroke="black" d="M174,-71.7C174,-63.98 174,-54.71 174,-46.11"/>
<polygon fill="black" stroke="black" points="177.5,-46.1 174,-36.1 170.5,-46.1 177.5,-46.1"/>
</g>
<!-- 0x5583e0d2e900 -->
<g id="node8" class="node">
<title>0x5583e0d2e900</title>
<ellipse fill="none" stroke="black" cx="296" cy="-18" rx="51.99" ry="18"/>
<text text-anchor="middle" x="296" y="-14.3" font-family="Times,serif" font-size="14.00">SPHERE</text>
</g>
<!-- 0x5583e0d2eb00&#45;&gt;0x5583e0d2e900 -->
<g id="edge7" class="edge">
<title>0x5583e0d2eb00&#45;&gt;0x5583e0d2e900</title>
<path fill="none" stroke="black" d="M372.55,-72.59C358.75,-62.93 341.14,-50.6 326.3,-40.21"/>
<polygon fill="black" stroke="black" points="328.12,-37.22 317.92,-34.35 324.11,-42.95 328.12,-37.22"/>
</g>
<!-- 0x5583e0d2ea00 -->
<g id="node9" class="node">
<title>0x5583e0d2ea00</title>
<ellipse fill="none" stroke="black" cx="418" cy="-18" rx="51.99" ry="18"/>
<text text-anchor="middle" x="418" y="-14.3" font-family="Times,serif" font-size="14.00">SPHERE</text>
</g>
<!-- 0x5583e0d2eb00&#45;&gt;0x5583e0d2ea00 -->
<g id="edge8" class="edge">
<title>0x5583e0d2eb00&#45;&gt;0x5583e0d2ea00</title>
<path fill="none" stroke="black" d="M401.43,-71.7C403.88,-63.9 406.84,-54.51 409.56,-45.83"/>
<polygon fill="black" stroke="black" points="412.96,-46.69 412.62,-36.1 406.28,-44.59 412.96,-46.69"/>
</g>
<!-- 0x5583e0d2ef00 -->
<g id="node11" class="node">
<title>0x5583e0d2ef00</title>
<ellipse fill="none" stroke="black" cx="628" cy="-90" rx="89.08" ry="18"/>
<text text-anchor="middle" x="628" y="-86.3" font-family="Times,serif" font-size="14.00">0x5583e0d2ef00</text>
</g>
<!-- 0x5583e0d2f300&#45;&gt;0x5583e0d2ef00 -->
<g id="edge10" class="edge">
<title>0x5583e0d2f300&#45;&gt;0x5583e0d2ef00</title>
<path fill="none" stroke="black" d="M702.77,-144.41C689.83,-135.17 673.55,-123.54 659.48,-113.49"/>
<polygon fill="black" stroke="black" points="661.23,-110.43 651.05,-107.47 657.16,-116.13 661.23,-110.43"/>
</g>
<!-- 0x5583e0d2f200 -->
<g id="node14" class="node">
<title>0x5583e0d2f200</title>
<ellipse fill="none" stroke="black" cx="824" cy="-90" rx="89.08" ry="18"/>
<text text-anchor="middle" x="824" y="-86.3" font-family="Times,serif" font-size="14.00">0x5583e0d2f200</text>
</g>
<!-- 0x5583e0d2f300&#45;&gt;0x5583e0d2f200 -->
<g id="edge13" class="edge">
<title>0x5583e0d2f300&#45;&gt;0x5583e0d2f200</title>
<path fill="none" stroke="black" d="M749.22,-144.41C762.16,-135.17 778.44,-123.54 792.51,-113.49"/>
<polygon fill="black" stroke="black" points="794.83,-116.13 800.94,-107.47 790.77,-110.43 794.83,-116.13"/>
</g>
<!-- 0x5583e0d2ed00 -->
<g id="node12" class="node">
<title>0x5583e0d2ed00</title>
<ellipse fill="none" stroke="black" cx="540" cy="-18" rx="51.99" ry="18"/>
<text text-anchor="middle" x="540" y="-14.3" font-family="Times,serif" font-size="14.00">SPHERE</text>
</g>
<!-- 0x5583e0d2ef00&#45;&gt;0x5583e0d2ed00 -->
<g id="edge11" class="edge">
<title>0x5583e0d2ef00&#45;&gt;0x5583e0d2ed00</title>
<path fill="none" stroke="black" d="M607.14,-72.41C595.38,-63.06 580.54,-51.25 567.81,-41.12"/>
<polygon fill="black" stroke="black" points="569.8,-38.24 559.79,-34.75 565.44,-43.71 569.8,-38.24"/>
</g>
<!-- 0x5583e0d2ee00 -->
<g id="node13" class="node">
<title>0x5583e0d2ee00</title>
<ellipse fill="none" stroke="black" cx="662" cy="-18" rx="51.99" ry="18"/>
<text text-anchor="middle" x="662" y="-14.3" font-family="Times,serif" font-size="14.00">SPHERE</text>
</g>
<!-- 0x5583e0d2ef00&#45;&gt;0x5583e0d2ee00 -->
<g id="edge12" class="edge">
<title>0x5583e0d2ef00&#45;&gt;0x5583e0d2ee00</title>
<path fill="none" stroke="black" d="M636.23,-72.05C640.19,-63.89 645.04,-53.91 649.45,-44.82"/>
<polygon fill="black" stroke="black" points="652.62,-46.31 653.84,-35.79 646.32,-43.25 652.62,-46.31"/>
</g>
<!-- 0x5583e0d2f000 -->
<g id="node15" class="node">
<title>0x5583e0d2f000</title>
<ellipse fill="none" stroke="black" cx="784" cy="-18" rx="51.99" ry="18"/>
<text text-anchor="middle" x="784" y="-14.3" font-family="Times,serif" font-size="14.00">SPHERE</text>
</g>
<!-- 0x5583e0d2f200&#45;&gt;0x5583e0d2f000 -->
<g id="edge14" class="edge">
<title>0x5583e0d2f200&#45;&gt;0x5583e0d2f000</title>
<path fill="none" stroke="black" d="M814.31,-72.05C809.6,-63.8 803.82,-53.7 798.59,-44.54"/>
<polygon fill="black" stroke="black" points="801.59,-42.73 793.59,-35.79 795.51,-46.21 801.59,-42.73"/>
</g>
<!-- 0x5583e0d2f100 -->
<g id="node16" class="node">
<title>0x5583e0d2f100</title>
<ellipse fill="none" stroke="black" cx="906" cy="-18" rx="51.99" ry="18"/>
<text text-anchor="middle" x="906" y="-14.3" font-family="Times,serif" font-size="14.00">SPHERE</text>
</g>
<!-- 0x5583e0d2f200&#45;&gt;0x5583e0d2f100 -->
<g id="edge15" class="edge">
<title>0x5583e0d2f200&#45;&gt;0x5583e0d2f100</title>
<path fill="none" stroke="black" d="M843.43,-72.41C854.2,-63.21 867.76,-51.64 879.49,-41.63"/>
<polygon fill="black" stroke="black" points="881.93,-44.14 887.27,-34.99 877.39,-38.82 881.93,-44.14"/>
</g>
<!-- 0x5583e0d2fb00 -->
<g id="node18" class="node">
<title>0x5583e0d2fb00</title>
<ellipse fill="none" stroke="black" cx="1220" cy="-162" rx="89.08" ry="18"/>
<text text-anchor="middle" x="1220" y="-158.3" font-family="Times,serif" font-size="14.00">0x5583e0d2fb00</text>
</g>
<!-- 0x5583e0d30300&#45;&gt;0x5583e0d2fb00 -->
<g id="edge17" class="edge">
<title>0x5583e0d30300&#45;&gt;0x5583e0d2fb00</title>
<path fill="none" stroke="black" d="M1220,-215.7C1220,-207.98 1220,-198.71 1220,-190.11"/>
<polygon fill="black" stroke="black" points="1223.5,-190.1 1220,-180.1 1216.5,-190.1 1223.5,-190.1"/>
</g>
<!-- 0x5583e0d30200 -->
<g id="node25" class="node">
<title>0x5583e0d30200</title>
<ellipse fill="none" stroke="black" cx="1538" cy="-162" rx="91.78" ry="18"/>
<text text-anchor="middle" x="1538" y="-158.3" font-family="Times,serif" font-size="14.00">0x5583e0d30200</text>
</g>
<!-- 0x5583e0d30300&#45;&gt;0x5583e0d30200 -->
<g id="edge24" class="edge">
<title>0x5583e0d30300&#45;&gt;0x5583e0d30200</title>
<path fill="none" stroke="black" d="M1278.69,-220.08C1332.61,-208.21 1412.55,-190.61 1469.39,-178.1"/>
<polygon fill="black" stroke="black" points="1470.36,-181.47 1479.37,-175.9 1468.85,-174.64 1470.36,-181.47"/>
</g>
<!-- 0x5583e0d2f700 -->
<g id="node19" class="node">
<title>0x5583e0d2f700</title>
<ellipse fill="none" stroke="black" cx="1122" cy="-90" rx="89.08" ry="18"/>
<text text-anchor="middle" x="1122" y="-86.3" font-family="Times,serif" font-size="14.00">0x5583e0d2f700</text>
</g>
<!-- 0x5583e0d2fb00&#45;&gt;0x5583e0d2f700 -->
<g id="edge18" class="edge">
<title>0x5583e0d2fb00&#45;&gt;0x5583e0d2f700</title>
<path fill="none" stroke="black" d="M1196.77,-144.41C1183.83,-135.17 1167.55,-123.54 1153.48,-113.49"/>
<polygon fill="black" stroke="black" points="1155.23,-110.43 1145.05,-107.47 1151.16,-116.13 1155.23,-110.43"/>
</g>
<!-- 0x5583e0d2fa00 -->
<g id="node22" class="node">
<title>0x5583e0d2fa00</title>
<ellipse fill="none" stroke="black" cx="1318" cy="-90" rx="89.08" ry="18"/>
<text text-anchor="middle" x="1318" y="-86.3" font-family="Times,serif" font-size="14.00">0x5583e0d2fa00</text>
</g>
<!-- 0x5583e0d2fb00&#45;&gt;0x5583e0d2fa00 -->
<g id="edge21" class="edge">
<title>0x5583e0d2fb00&#45;&gt;0x5583e0d2fa00</title>
<path fill="none" stroke="black" d="M1243.22,-144.41C1256.16,-135.17 1272.44,-123.54 1286.51,-113.49"/>
<polygon fill="black" stroke="black" points="1288.83,-116.13 1294.94,-107.47 1284.77,-110.43 1288.83,-116.13"/>
</g>
<!-- 0x5583e0d2f500 -->
<g id="node20" class="node">
<title>0x5583e0d2f500</title>
<ellipse fill="none" stroke="black" cx="1028" cy="-18" rx="51.99" ry="18"/>
<text text-anchor="middle" x="1028" y="-14.3" font-family="Times,serif" font-size="14.00">SPHERE</text>
</g>
<!-- 0x5583e0d2f700&#45;&gt;0x5583e0d2f500 -->
<g id="edge19" class="edge">
<title>0x5583e0d2f700&#45;&gt;0x5583e0d2f500</title>
<path fill="none" stroke="black" d="M1099.72,-72.41C1086.95,-62.9 1070.78,-50.86 1057.02,-40.62"/>
<polygon fill="black" stroke="black" points="1058.94,-37.68 1048.82,-34.51 1054.75,-43.29 1058.94,-37.68"/>
</g>
<!-- 0x5583e0d2f600 -->
<g id="node21" class="node">
<title>0x5583e0d2f600</title>
<ellipse fill="none" stroke="black" cx="1150" cy="-18" rx="51.99" ry="18"/>
<text text-anchor="middle" x="1150" y="-14.3" font-family="Times,serif" font-size="14.00">SPHERE</text>
</g>
<!-- 0x5583e0d2f700&#45;&gt;0x5583e0d2f600 -->
<g id="edge20" class="edge">
<title>0x5583e0d2f700&#45;&gt;0x5583e0d2f600</title>
<path fill="none" stroke="black" d="M1128.92,-71.7C1132.07,-63.81 1135.87,-54.3 1139.38,-45.55"/>
<polygon fill="black" stroke="black" points="1142.69,-46.69 1143.15,-36.1 1136.19,-44.09 1142.69,-46.69"/>
</g>
<!-- 0x5583e0d2f800 -->
<g id="node23" class="node">
<title>0x5583e0d2f800</title>
<ellipse fill="none" stroke="black" cx="1272" cy="-18" rx="51.99" ry="18"/>
<text text-anchor="middle" x="1272" y="-14.3" font-family="Times,serif" font-size="14.00">SPHERE</text>
</g>
<!-- 0x5583e0d2fa00&#45;&gt;0x5583e0d2f800 -->
<g id="edge22" class="edge">
<title>0x5583e0d2fa00&#45;&gt;0x5583e0d2f800</title>
<path fill="none" stroke="black" d="M1306.86,-72.05C1301.38,-63.71 1294.66,-53.49 1288.59,-44.25"/>
<polygon fill="black" stroke="black" points="1291.44,-42.22 1283.03,-35.79 1285.6,-46.07 1291.44,-42.22"/>
</g>
<!-- 0x5583e0d2f900 -->
<g id="node24" class="node">
<title>0x5583e0d2f900</title>
<ellipse fill="none" stroke="black" cx="1394" cy="-18" rx="51.99" ry="18"/>
<text text-anchor="middle" x="1394" y="-14.3" font-family="Times,serif" font-size="14.00">SPHERE</text>
</g>
<!-- 0x5583e0d2fa00&#45;&gt;0x5583e0d2f900 -->
<g id="edge23" class="edge">
<title>0x5583e0d2fa00&#45;&gt;0x5583e0d2f900</title>
<path fill="none" stroke="black" d="M1336.39,-72.05C1346.22,-63 1358.46,-51.73 1369.12,-41.91"/>
<polygon fill="black" stroke="black" points="1371.57,-44.42 1376.55,-35.07 1366.82,-39.27 1371.57,-44.42"/>
</g>
<!-- 0x5583e0d2fe00 -->
<g id="node26" class="node">
<title>0x5583e0d2fe00</title>
<ellipse fill="none" stroke="black" cx="1538" cy="-90" rx="89.08" ry="18"/>
<text text-anchor="middle" x="1538" y="-86.3" font-family="Times,serif" font-size="14.00">0x5583e0d2fe00</text>
</g>
<!-- 0x5583e0d30200&#45;&gt;0x5583e0d2fe00 -->
<g id="edge25" class="edge">
<title>0x5583e0d30200&#45;&gt;0x5583e0d2fe00</title>
<path fill="none" stroke="black" d="M1538,-143.7C1538,-135.98 1538,-126.71 1538,-118.11"/>
<polygon fill="black" stroke="black" points="1541.5,-118.1 1538,-108.1 1534.5,-118.1 1541.5,-118.1"/>
</g>
<!-- 0x5583e0d30100 -->
<g id="node29" class="node">
<title>0x5583e0d30100</title>
<ellipse fill="none" stroke="black" cx="1760" cy="-90" rx="91.78" ry="18"/>
<text text-anchor="middle" x="1760" y="-86.3" font-family="Times,serif" font-size="14.00">0x5583e0d30100</text>
</g>
<!-- 0x5583e0d30200&#45;&gt;0x5583e0d30100 -->
<g id="edge28" class="edge">
<title>0x5583e0d30200&#45;&gt;0x5583e0d30100</title>
<path fill="none" stroke="black" d="M1584.26,-146.41C1619.14,-135.41 1667.13,-120.28 1704.14,-108.61"/>
<polygon fill="black" stroke="black" points="1705.3,-111.92 1713.79,-105.57 1703.2,-105.24 1705.3,-111.92"/>
</g>
<!-- 0x5583e0d2fc00 -->
<g id="node27" class="node">
<title>0x5583e0d2fc00</title>
<ellipse fill="none" stroke="black" cx="1516" cy="-18" rx="51.99" ry="18"/>
<text text-anchor="middle" x="1516" y="-14.3" font-family="Times,serif" font-size="14.00">SPHERE</text>
</g>
<!-- 0x5583e0d2fe00&#45;&gt;0x5583e0d2fc00 -->
<g id="edge26" class="edge">
<title>0x5583e0d2fe00&#45;&gt;0x5583e0d2fc00</title>
<path fill="none" stroke="black" d="M1532.56,-71.7C1530.11,-63.9 1527.16,-54.51 1524.43,-45.83"/>
<polygon fill="black" stroke="black" points="1527.71,-44.59 1521.37,-36.1 1521.03,-46.69 1527.71,-44.59"/>
</g>
<!-- 0x5583e0d2fd00 -->
<g id="node28" class="node">
<title>0x5583e0d2fd00</title>
<ellipse fill="none" stroke="black" cx="1638" cy="-18" rx="51.99" ry="18"/>
<text text-anchor="middle" x="1638" y="-14.3" font-family="Times,serif" font-size="14.00">SPHERE</text>
</g>
<!-- 0x5583e0d2fe00&#45;&gt;0x5583e0d2fd00 -->
<g id="edge27" class="edge">
<title>0x5583e0d2fe00&#45;&gt;0x5583e0d2fd00</title>
<path fill="none" stroke="black" d="M1561.44,-72.59C1575.24,-62.93 1592.85,-50.6 1607.69,-40.21"/>
<polygon fill="black" stroke="black" points="1609.88,-42.95 1616.07,-34.35 1605.87,-37.22 1609.88,-42.95"/>
</g>
<!-- 0x5583e0d2ff00 -->
<g id="node30" class="node">
<title>0x5583e0d2ff00</title>
<ellipse fill="none" stroke="black" cx="1760" cy="-18" rx="51.99" ry="18"/>
<text text-anchor="middle" x="1760" y="-14.3" font-family="Times,serif" font-size="14.00">SPHERE</text>
</g>
<!-- 0x5583e0d30100&#45;&gt;0x5583e0d2ff00 -->
<g id="edge29" class="edge">
<title>0x5583e0d30100&#45;&gt;0x5583e0d2ff00</title>
<path fill="none" stroke="black" d="M1760,-71.7C1760,-63.98 1760,-54.71 1760,-46.11"/>
<polygon fill="black" stroke="black" points="1763.5,-46.1 1760,-36.1 1756.5,-46.1 1763.5,-46.1"/>
</g>
<!-- 0x5583e0d30000 -->
<g id="node31" class="node">
<title>0x5583e0d30000</title>
<ellipse fill="none" stroke="black" cx="1892" cy="-18" rx="61.99" ry="18"/>
<text text-anchor="middle" x="1892" y="-14.3" font-family="Times,serif" font-size="14.00">CYLINDER</text>
</g>
<!-- 0x5583e0d30100&#45;&gt;0x5583e0d30000 -->
<g id="edge30" class="edge">
<title>0x5583e0d30100&#45;&gt;0x5583e0d30000</title>
<path fill="none" stroke="black" d="M1790.28,-72.94C1809.42,-62.79 1834.3,-49.6 1854.66,-38.8"/>
<polygon fill="black" stroke="black" points="1856.46,-41.8 1863.66,-34.03 1853.18,-35.62 1856.46,-41.8"/>
</g>
</g>
</svg>
