<?xml version="1.0" encoding="UTF-8" standalone="no"?>
<!DOCTYPE svg PUBLIC "-//W3C//DTD SVG 1.1//EN"
 "http://www.w3.org/Graphics/SVG/1.1/DTD/svg11.dtd">
<!-- Generated by graphviz version 2.43.0 (0)
 -->
<!-- Title: BVH Pages: 1 -->
<svg width="187pt" height="116pt"
 viewBox="0.00 0.00 187.38 116.00" xmlns="http://www.w3.org/2000/svg" xmlns:xlink="http://www.w3.org/1999/xlink">
<g id="graph0" class="graph" transform="scale(1 1) rotate(0) translate(4 112)">
<title>BVH</title>
<polygon fill="white" stroke="transparent" points="-4,4 -4,-112 183.38,-112 183.38,4 -4,4"/>
<!-- 0x55aae9cd4dd0 -->
<g id="node1" class="node">
<title>0x55aae9cd4dd0</title>
<ellipse fill="none" stroke="black" cx="89.69" cy="-90" rx="89.88" ry="18"/>
<text text-anchor="middle" x="89.69" y="-86.3" font-family="Times,serif" font-size="14.00">0x55aae9cd4dd0</text>
</g>
<!-- 0x55aae9cd4bd0 -->
<g id="node2" class="node">
<title>0x55aae9cd4bd0</title>
<ellipse fill="none" stroke="black" cx="49.69" cy="-18" rx="31.4" ry="18"/>
<text text-anchor="middle" x="49.69" y="-14.3" font-family="Times,serif" font-size="14.00">BOX</text>
</g>
<!-- 0x55aae9cd4dd0&#45;&gt;0x55aae9cd4bd0 -->
<g id="edge1" class="edge">
<title>0x55aae9cd4dd0&#45;&gt;0x55aae9cd4bd0</title>
<path fill="none" stroke="black" d="M80.01,-72.05C75.22,-63.68 69.35,-53.4 64.05,-44.13"/>
<polygon fill="black" stroke="black" points="67.01,-42.25 59.01,-35.31 60.93,-45.73 67.01,-42.25"/>
</g>
<!-- 0x55aae9cd4cd0 -->
<g id="node3" class="node">
<title>0x55aae9cd4cd0</title>
<ellipse fill="none" stroke="black" cx="129.69" cy="-18" rx="31.4" ry="18"/>
<text text-anchor="middle" x="129.69" y="-14.3" font-family="Times,serif" font-size="14.00">BOX</text>
</g>
<!-- 0x55aae9cd4dd0&#45;&gt;0x55aae9cd4cd0 -->
<g id="edge2" class="edge">
<title>0x55aae9cd4dd0&#45;&gt;0x55aae9cd4cd0</title>
<path fill="none" stroke="black" d="M99.37,-72.05C104.16,-63.68 110.03,-53.4 115.33,-44.13"/>
<polygon fill="black" stroke="black" points="118.45,-45.73 120.37,-35.31 112.37,-42.25 118.45,-45.73"/>
</g>
</g>
</svg>
