<?xml version="1.0" encoding="UTF-8" standalone="no"?>
<!DOCTYPE svg PUBLIC "-//W3C//DTD SVG 1.1//EN"
 "http://www.w3.org/Graphics/SVG/1.1/DTD/svg11.dtd">
<!-- Generated by graphviz version 2.43.0 (0)
 -->
<!-- Title: BVH Pages: 1 -->
<svg width="1962pt" height="332pt"
 viewBox="0.00 0.00 1961.74 332.00" xmlns="http://www.w3.org/2000/svg" xmlns:xlink="http://www.w3.org/1999/xlink">
<g id="graph0" class="graph" transform="scale(1 1) rotate(0) translate(4 328)">
<title>BVH</title>
<polygon fill="white" stroke="transparent" points="-4,4 -4,-328 1957.74,-328 1957.74,4 -4,4"/>
<!-- 0x5649d2393560 -->
<g id="node1" class="node">
<title>0x5649d2393560</title>
<ellipse fill="none" stroke="black" cx="959" cy="-306" rx="92.08" ry="18"/>
<text text-anchor="middle" x="959" y="-302.3" font-family="Times,serif" font-size="14.00">0x5649d2393560</text>
</g>
<!-- 0x5649d2393360 -->
<g id="node2" class="node">
<title>0x5649d2393360</title>
<ellipse fill="none" stroke="black" cx="733" cy="-234" rx="92.08" ry="18"/>
<text text-anchor="middle" x="733" y="-230.3" font-family="Times,serif" font-size="14.00">0x5649d2393360</text>
</g>
<!-- 0x5649d2393560&#45;&gt;0x5649d2393360 -->
<g id="edge1" class="edge">
<title>0x5649d2393560&#45;&gt;0x5649d2393360</title>
<path fill="none" stroke="black" d="M911.89,-290.41C876.39,-279.41 827.54,-264.28 789.85,-252.61"/>
<polygon fill="black" stroke="black" points="790.62,-249.19 780.04,-249.57 788.55,-255.87 790.62,-249.19"/>
</g>
<!-- 0x5649d2393460 -->
<g id="node3" class="node">
<title>0x5649d2393460</title>
<ellipse fill="none" stroke="black" cx="1214" cy="-234" rx="92.08" ry="18"/>
<text text-anchor="middle" x="1214" y="-230.3" font-family="Times,serif" font-size="14.00">0x5649d2393460</text>
</g>
<!-- 0x5649d2393560&#45;&gt;0x5649d2393460 -->
<g id="edge2" class="edge">
<title>0x5649d2393560&#45;&gt;0x5649d2393460</title>
<path fill="none" stroke="black" d="M1010.29,-290.92C1051.44,-279.62 1109.33,-263.73 1152.88,-251.78"/>
<polygon fill="black" stroke="black" points="1154.06,-255.08 1162.78,-249.06 1152.21,-248.33 1154.06,-255.08"/>
</g>
<!-- 0x5649d2392f60 -->
<g id="node4" class="node">
<title>0x5649d2392f60</title>
<ellipse fill="none" stroke="black" cx="398" cy="-162" rx="89.88" ry="18"/>
<text text-anchor="middle" x="398" y="-158.3" font-family="Times,serif" font-size="14.00">0x5649d2392f60</text>
</g>
<!-- 0x5649d2393360&#45;&gt;0x5649d2392f60 -->
<g id="edge3" class="edge">
<title>0x5649d2393360&#45;&gt;0x5649d2392f60</title>
<path fill="none" stroke="black" d="M672.33,-220.32C614.64,-208.27 527.93,-190.15 467.49,-177.52"/>
<polygon fill="black" stroke="black" points="468.15,-174.08 457.65,-175.46 466.72,-180.94 468.15,-174.08"/>
</g>
<!-- 0x5649d2393060 -->
<g id="node5" class="node">
<title>0x5649d2393060</title>
<ellipse fill="none" stroke="black" cx="733" cy="-162" rx="92.08" ry="18"/>
<text text-anchor="middle" x="733" y="-158.3" font-family="Times,serif" font-size="14.00">0x5649d2393060</text>
</g>
<!-- 0x5649d2393360&#45;&gt;0x5649d2393060 -->
<g id="edge4" class="edge">
<title>0x5649d2393360&#45;&gt;0x5649d2393060</title>
<path fill="none" stroke="black" d="M733,-215.7C733,-207.98 733,-198.71 733,-190.11"/>
<polygon fill="black" stroke="black" points="736.5,-190.1 733,-180.1 729.5,-190.1 736.5,-190.1"/>
</g>
<!-- 0x5649d2393160 -->
<g id="node6" class="node">
<title>0x5649d2393160</title>
<ellipse fill="none" stroke="black" cx="1214" cy="-162" rx="92.08" ry="18"/>
<text text-anchor="middle" x="1214" y="-158.3" font-family="Times,serif" font-size="14.00">0x5649d2393160</text>
</g>
<!-- 0x5649d2393460&#45;&gt;0x5649d2393160 -->
<g id="edge5" class="edge">
<title>0x5649d2393460&#45;&gt;0x5649d2393160</title>
<path fill="none" stroke="black" d="M1214,-215.7C1214,-207.98 1214,-198.71 1214,-190.11"/>
<polygon fill="black" stroke="black" points="1217.5,-190.1 1214,-180.1 1210.5,-190.1 1217.5,-190.1"/>
</g>
<!-- 0x5649d2393260 -->
<g id="node7" class="node">
<title>0x5649d2393260</title>
<ellipse fill="none" stroke="black" cx="1537" cy="-162" rx="92.08" ry="18"/>
<text text-anchor="middle" x="1537" y="-158.3" font-family="Times,serif" font-size="14.00">0x5649d2393260</text>
</g>
<!-- 0x5649d2393460&#45;&gt;0x5649d2393260 -->
<g id="edge6" class="edge">
<title>0x5649d2393460&#45;&gt;0x5649d2393260</title>
<path fill="none" stroke="black" d="M1273.24,-220.16C1328.16,-208.26 1409.88,-190.55 1467.78,-178"/>
<polygon fill="black" stroke="black" points="1468.55,-181.41 1477.58,-175.88 1467.07,-174.57 1468.55,-181.41"/>
</g>
<!-- 0x5649d2392760 -->
<g id="node8" class="node">
<title>0x5649d2392760</title>
<ellipse fill="none" stroke="black" cx="174" cy="-90" rx="92.08" ry="18"/>
<text text-anchor="middle" x="174" y="-86.3" font-family="Times,serif" font-size="14.00">0x5649d2392760</text>
</g>
<!-- 0x5649d2392f60&#45;&gt;0x5649d2392760 -->
<g id="edge7" class="edge">
<title>0x5649d2392f60&#45;&gt;0x5649d2392760</title>
<path fill="none" stroke="black" d="M351.58,-146.5C316.41,-135.5 267.91,-120.35 230.48,-108.65"/>
<polygon fill="black" stroke="black" points="231.32,-105.25 220.73,-105.61 229.23,-111.93 231.32,-105.25"/>
</g>
<!-- 0x5649d2392860 -->
<g id="node9" class="node">
<title>0x5649d2392860</title>
<ellipse fill="none" stroke="black" cx="398" cy="-90" rx="92.08" ry="18"/>
<text text-anchor="middle" x="398" y="-86.3" font-family="Times,serif" font-size="14.00">0x5649d2392860</text>
</g>
<!-- 0x5649d2392f60&#45;&gt;0x5649d2392860 -->
<g id="edge8" class="edge">
<title>0x5649d2392f60&#45;&gt;0x5649d2392860</title>
<path fill="none" stroke="black" d="M398,-143.7C398,-135.98 398,-126.71 398,-118.11"/>
<polygon fill="black" stroke="black" points="401.5,-118.1 398,-108.1 394.5,-118.1 401.5,-118.1"/>
</g>
<!-- 0x5649d2392960 -->
<g id="node10" class="node">
<title>0x5649d2392960</title>
<ellipse fill="none" stroke="black" cx="632" cy="-90" rx="92.08" ry="18"/>
<text text-anchor="middle" x="632" y="-86.3" font-family="Times,serif" font-size="14.00">0x5649d2392960</text>
</g>
<!-- 0x5649d2393060&#45;&gt;0x5649d2392960 -->
<g id="edge9" class="edge">
<title>0x5649d2393060&#45;&gt;0x5649d2392960</title>
<path fill="none" stroke="black" d="M709.32,-144.59C695.86,-135.26 678.83,-123.46 664.18,-113.31"/>
<polygon fill="black" stroke="black" points="666.09,-110.37 655.88,-107.55 662.1,-116.12 666.09,-110.37"/>
</g>
<!-- 0x5649d2392a60 -->
<g id="node11" class="node">
<title>0x5649d2392a60</title>
<ellipse fill="none" stroke="black" cx="834" cy="-90" rx="91.78" ry="18"/>
<text text-anchor="middle" x="834" y="-86.3" font-family="Times,serif" font-size="14.00">0x5649d2392a60</text>
</g>
<!-- 0x5649d2393060&#45;&gt;0x5649d2392a60 -->
<g id="edge10" class="edge">
<title>0x5649d2393060&#45;&gt;0x5649d2392a60</title>
<path fill="none" stroke="black" d="M756.68,-144.59C770.13,-135.26 787.16,-123.46 801.81,-113.31"/>
<polygon fill="black" stroke="black" points="803.89,-116.12 810.11,-107.55 799.9,-110.37 803.89,-116.12"/>
</g>
<!-- 0x5649d2392b60 -->
<g id="node12" class="node">
<title>0x5649d2392b60</title>
<ellipse fill="none" stroke="black" cx="1114" cy="-90" rx="92.08" ry="18"/>
<text text-anchor="middle" x="1114" y="-86.3" font-family="Times,serif" font-size="14.00">0x5649d2392b60</text>
</g>
<!-- 0x5649d2393160&#45;&gt;0x5649d2392b60 -->
<g id="edge11" class="edge">
<title>0x5649d2393160&#45;&gt;0x5649d2392b60</title>
<path fill="none" stroke="black" d="M1190.55,-144.59C1177.23,-135.26 1160.37,-123.46 1145.86,-113.31"/>
<polygon fill="black" stroke="black" points="1147.84,-110.42 1137.64,-107.55 1143.83,-116.15 1147.84,-110.42"/>
</g>
<!-- 0x5649d2392c60 -->
<g id="node13" class="node">
<title>0x5649d2392c60</title>
<ellipse fill="none" stroke="black" cx="1315" cy="-90" rx="90.98" ry="18"/>
<text text-anchor="middle" x="1315" y="-86.3" font-family="Times,serif" font-size="14.00">0x5649d2392c60</text>
</g>
<!-- 0x5649d2393160&#45;&gt;0x5649d2392c60 -->
<g id="edge12" class="edge">
<title>0x5649d2393160&#45;&gt;0x5649d2392c60</title>
<path fill="none" stroke="black" d="M1237.68,-144.59C1251.13,-135.26 1268.16,-123.46 1282.81,-113.31"/>
<polygon fill="black" stroke="black" points="1284.89,-116.12 1291.11,-107.55 1280.9,-110.37 1284.89,-116.12"/>
</g>
<!-- 0x5649d2392d60 -->
<g id="node14" class="node">
<title>0x5649d2392d60</title>
<ellipse fill="none" stroke="black" cx="1537" cy="-90" rx="92.08" ry="18"/>
<text text-anchor="middle" x="1537" y="-86.3" font-family="Times,serif" font-size="14.00">0x5649d2392d60</text>
</g>
<!-- 0x5649d2393260&#45;&gt;0x5649d2392d60 -->
<g id="edge13" class="edge">
<title>0x5649d2393260&#45;&gt;0x5649d2392d60</title>
<path fill="none" stroke="black" d="M1537,-143.7C1537,-135.98 1537,-126.71 1537,-118.11"/>
<polygon fill="black" stroke="black" points="1540.5,-118.1 1537,-108.1 1533.5,-118.1 1540.5,-118.1"/>
</g>
<!-- 0x5649d2392e60 -->
<g id="node15" class="node">
<title>0x5649d2392e60</title>
<ellipse fill="none" stroke="black" cx="1760" cy="-90" rx="91.78" ry="18"/>
<text text-anchor="middle" x="1760" y="-86.3" font-family="Times,serif" font-size="14.00">0x5649d2392e60</text>
</g>
<!-- 0x5649d2393260&#45;&gt;0x5649d2392e60 -->
<g id="edge14" class="edge">
<title>0x5649d2393260&#45;&gt;0x5649d2392e60</title>
<path fill="none" stroke="black" d="M1583.47,-146.41C1618.51,-135.41 1666.71,-120.28 1703.89,-108.61"/>
<polygon fill="black" stroke="black" points="1705.09,-111.9 1713.58,-105.57 1702.99,-105.23 1705.09,-111.9"/>
</g>
<!-- 0x5649d2391760 -->
<g id="node16" class="node">
<title>0x5649d2391760</title>
<ellipse fill="none" stroke="black" cx="52" cy="-18" rx="51.99" ry="18"/>
<text text-anchor="middle" x="52" y="-14.3" font-family="Times,serif" font-size="14.00">SPHERE</text>
</g>
<!-- 0x5649d2392760&#45;&gt;0x5649d2391760 -->
<g id="edge15" class="edge">
<title>0x5649d2392760&#45;&gt;0x5649d2391760</title>
<path fill="none" stroke="black" d="M145.7,-72.76C128.04,-62.63 105.18,-49.51 86.46,-38.77"/>
<polygon fill="black" stroke="black" points="88.06,-35.66 77.64,-33.72 84.58,-41.73 88.06,-35.66"/>
</g>
<!-- 0x5649d2391860 -->
<g id="node17" class="node">
<title>0x5649d2391860</title>
<ellipse fill="none" stroke="black" cx="174" cy="-18" rx="51.99" ry="18"/>
<text text-anchor="middle" x="174" y="-14.3" font-family="Times,serif" font-size="14.00">SPHERE</text>
</g>
<!-- 0x5649d2392760&#45;&gt;0x5649d2391860 -->
<g id="edge16" class="edge">
<title>0x5649d2392760&#45;&gt;0x5649d2391860</title>
<path fill="none" stroke="black" d="M174,-71.7C174,-63.98 174,-54.71 174,-46.11"/>
<polygon fill="black" stroke="black" points="177.5,-46.1 174,-36.1 170.5,-46.1 177.5,-46.1"/>
</g>
<!-- 0x5649d2391960 -->
<g id="node18" class="node">
<title>0x5649d2391960</title>
<ellipse fill="none" stroke="black" cx="296" cy="-18" rx="51.99" ry="18"/>
<text text-anchor="middle" x="296" y="-14.3" font-family="Times,serif" font-size="14.00">SPHERE</text>
</g>
<!-- 0x5649d2392860&#45;&gt;0x5649d2391960 -->
<g id="edge17" class="edge">
<title>0x5649d2392860&#45;&gt;0x5649d2391960</title>
<path fill="none" stroke="black" d="M374.08,-72.59C360,-62.93 342.05,-50.6 326.9,-40.21"/>
<polygon fill="black" stroke="black" points="328.59,-37.12 318.36,-34.35 324.63,-42.89 328.59,-37.12"/>
</g>
<!-- 0x5649d2391a60 -->
<g id="node19" class="node">
<title>0x5649d2391a60</title>
<ellipse fill="none" stroke="black" cx="418" cy="-18" rx="51.99" ry="18"/>
<text text-anchor="middle" x="418" y="-14.3" font-family="Times,serif" font-size="14.00">SPHERE</text>
</g>
<!-- 0x5649d2392860&#45;&gt;0x5649d2391a60 -->
<g id="edge18" class="edge">
<title>0x5649d2392860&#45;&gt;0x5649d2391a60</title>
<path fill="none" stroke="black" d="M402.94,-71.7C405.17,-63.9 407.85,-54.51 410.33,-45.83"/>
<polygon fill="black" stroke="black" points="413.73,-46.68 413.11,-36.1 407,-44.76 413.73,-46.68"/>
</g>
<!-- 0x5649d2391b60 -->
<g id="node20" class="node">
<title>0x5649d2391b60</title>
<ellipse fill="none" stroke="black" cx="540" cy="-18" rx="51.99" ry="18"/>
<text text-anchor="middle" x="540" y="-14.3" font-family="Times,serif" font-size="14.00">SPHERE</text>
</g>
<!-- 0x5649d2392960&#45;&gt;0x5649d2391b60 -->
<g id="edge19" class="edge">
<title>0x5649d2392960&#45;&gt;0x5649d2391b60</title>
<path fill="none" stroke="black" d="M610.19,-72.41C597.78,-62.97 582.09,-51.03 568.69,-40.83"/>
<polygon fill="black" stroke="black" points="570.77,-38.02 560.69,-34.75 566.53,-43.59 570.77,-38.02"/>
</g>
<!-- 0x5649d2391c60 -->
<g id="node21" class="node">
<title>0x5649d2391c60</title>
<ellipse fill="none" stroke="black" cx="662" cy="-18" rx="51.99" ry="18"/>
<text text-anchor="middle" x="662" y="-14.3" font-family="Times,serif" font-size="14.00">SPHERE</text>
</g>
<!-- 0x5649d2392960&#45;&gt;0x5649d2391c60 -->
<g id="edge20" class="edge">
<title>0x5649d2392960&#45;&gt;0x5649d2391c60</title>
<path fill="none" stroke="black" d="M639.26,-72.05C642.67,-64.09 646.82,-54.41 650.63,-45.51"/>
<polygon fill="black" stroke="black" points="653.87,-46.85 654.59,-36.28 647.44,-44.09 653.87,-46.85"/>
</g>
<!-- 0x5649d2391d60 -->
<g id="node22" class="node">
<title>0x5649d2391d60</title>
<ellipse fill="none" stroke="black" cx="784" cy="-18" rx="51.99" ry="18"/>
<text text-anchor="middle" x="784" y="-14.3" font-family="Times,serif" font-size="14.00">SPHERE</text>
</g>
<!-- 0x5649d2392a60&#45;&gt;0x5649d2391d60 -->
<g id="edge21" class="edge">
<title>0x5649d2392a60&#45;&gt;0x5649d2391d60</title>
<path fill="none" stroke="black" d="M821.89,-72.05C815.87,-63.63 808.48,-53.28 801.83,-43.97"/>
<polygon fill="black" stroke="black" points="804.65,-41.89 795.99,-35.79 798.95,-45.96 804.65,-41.89"/>
</g>
<!-- 0x5649d2391e60 -->
<g id="node23" class="node">
<title>0x5649d2391e60</title>
<ellipse fill="none" stroke="black" cx="906" cy="-18" rx="51.99" ry="18"/>
<text text-anchor="middle" x="906" y="-14.3" font-family="Times,serif" font-size="14.00">SPHERE</text>
</g>
<!-- 0x5649d2392a60&#45;&gt;0x5649d2391e60 -->
<g id="edge22" class="edge">
<title>0x5649d2392a60&#45;&gt;0x5649d2391e60</title>
<path fill="none" stroke="black" d="M851.42,-72.05C860.58,-63.16 871.94,-52.11 881.92,-42.41"/>
<polygon fill="black" stroke="black" points="884.49,-44.79 889.22,-35.31 879.61,-39.77 884.49,-44.79"/>
</g>
<!-- 0x5649d2391f60 -->
<g id="node24" class="node">
<title>0x5649d2391f60</title>
<ellipse fill="none" stroke="black" cx="1028" cy="-18" rx="51.99" ry="18"/>
<text text-anchor="middle" x="1028" y="-14.3" font-family="Times,serif" font-size="14.00">SPHERE</text>
</g>
<!-- 0x5649d2392b60&#45;&gt;0x5649d2391f60 -->
<g id="edge23" class="edge">
<title>0x5649d2392b60&#45;&gt;0x5649d2391f60</title>
<path fill="none" stroke="black" d="M1093.61,-72.41C1082.12,-63.06 1067.62,-51.25 1055.17,-41.12"/>
<polygon fill="black" stroke="black" points="1057.31,-38.35 1047.34,-34.75 1052.89,-43.78 1057.31,-38.35"/>
</g>
<!-- 0x5649d2392060 -->
<g id="node25" class="node">
<title>0x5649d2392060</title>
<ellipse fill="none" stroke="black" cx="1150" cy="-18" rx="51.99" ry="18"/>
<text text-anchor="middle" x="1150" y="-14.3" font-family="Times,serif" font-size="14.00">SPHERE</text>
</g>
<!-- 0x5649d2392b60&#45;&gt;0x5649d2392060 -->
<g id="edge24" class="edge">
<title>0x5649d2392b60&#45;&gt;0x5649d2392060</title>
<path fill="none" stroke="black" d="M1122.71,-72.05C1126.91,-63.89 1132.04,-53.91 1136.71,-44.82"/>
<polygon fill="black" stroke="black" points="1139.9,-46.28 1141.36,-35.79 1133.67,-43.08 1139.9,-46.28"/>
</g>
<!-- 0x5649d2392160 -->
<g id="node26" class="node">
<title>0x5649d2392160</title>
<ellipse fill="none" stroke="black" cx="1272" cy="-18" rx="51.99" ry="18"/>
<text text-anchor="middle" x="1272" y="-14.3" font-family="Times,serif" font-size="14.00">SPHERE</text>
</g>
<!-- 0x5649d2392c60&#45;&gt;0x5649d2392160 -->
<g id="edge25" class="edge">
<title>0x5649d2392c60&#45;&gt;0x5649d2392160</title>
<path fill="none" stroke="black" d="M1304.59,-72.05C1299.52,-63.8 1293.31,-53.7 1287.68,-44.54"/>
<polygon fill="black" stroke="black" points="1290.53,-42.48 1282.31,-35.79 1284.56,-46.14 1290.53,-42.48"/>
</g>
<!-- 0x5649d2392260 -->
<g id="node27" class="node">
<title>0x5649d2392260</title>
<ellipse fill="none" stroke="black" cx="1394" cy="-18" rx="51.99" ry="18"/>
<text text-anchor="middle" x="1394" y="-14.3" font-family="Times,serif" font-size="14.00">SPHERE</text>
</g>
<!-- 0x5649d2392c60&#45;&gt;0x5649d2392260 -->
<g id="edge26" class="edge">
<title>0x5649d2392c60&#45;&gt;0x5649d2392260</title>
<path fill="none" stroke="black" d="M1334.12,-72.05C1344.33,-63 1357.05,-51.73 1368.14,-41.91"/>
<polygon fill="black" stroke="black" points="1370.7,-44.32 1375.86,-35.07 1366.06,-39.08 1370.7,-44.32"/>
</g>
<!-- 0x5649d2392360 -->
<g id="node28" class="node">
<title>0x5649d2392360</title>
<ellipse fill="none" stroke="black" cx="1516" cy="-18" rx="51.99" ry="18"/>
<text text-anchor="middle" x="1516" y="-14.3" font-family="Times,serif" font-size="14.00">SPHERE</text>
</g>
<!-- 0x5649d2392d60&#45;&gt;0x5649d2392360 -->
<g id="edge27" class="edge">
<title>0x5649d2392d60&#45;&gt;0x5649d2392360</title>
<path fill="none" stroke="black" d="M1531.8,-71.7C1529.46,-63.9 1526.65,-54.51 1524.04,-45.83"/>
<polygon fill="black" stroke="black" points="1527.35,-44.68 1521.13,-36.1 1520.65,-46.69 1527.35,-44.68"/>
</g>
<!-- 0x5649d2392460 -->
<g id="node29" class="node">
<title>0x5649d2392460</title>
<ellipse fill="none" stroke="black" cx="1638" cy="-18" rx="51.99" ry="18"/>
<text text-anchor="middle" x="1638" y="-14.3" font-family="Times,serif" font-size="14.00">SPHERE</text>
</g>
<!-- 0x5649d2392d60&#45;&gt;0x5649d2392460 -->
<g id="edge28" class="edge">
<title>0x5649d2392d60&#45;&gt;0x5649d2392460</title>
<path fill="none" stroke="black" d="M1560.68,-72.59C1574.62,-62.93 1592.4,-50.6 1607.39,-40.21"/>
<polygon fill="black" stroke="black" points="1609.62,-42.92 1615.85,-34.35 1605.63,-37.17 1609.62,-42.92"/>
</g>
<!-- 0x5649d2392560 -->
<g id="node30" class="node">
<title>0x5649d2392560</title>
<ellipse fill="none" stroke="black" cx="1760" cy="-18" rx="51.99" ry="18"/>
<text text-anchor="middle" x="1760" y="-14.3" font-family="Times,serif" font-size="14.00">SPHERE</text>
</g>
<!-- 0x5649d2392e60&#45;&gt;0x5649d2392560 -->
<g id="edge29" class="edge">
<title>0x5649d2392e60&#45;&gt;0x5649d2392560</title>
<path fill="none" stroke="black" d="M1760,-71.7C1760,-63.98 1760,-54.71 1760,-46.11"/>
<polygon fill="black" stroke="black" points="1763.5,-46.1 1760,-36.1 1756.5,-46.1 1763.5,-46.1"/>
</g>
<!-- 0x5649d2392660 -->
<g id="node31" class="node">
<title>0x5649d2392660</title>
<ellipse fill="none" stroke="black" cx="1892" cy="-18" rx="61.99" ry="18"/>
<text text-anchor="middle" x="1892" y="-14.3" font-family="Times,serif" font-size="14.00">CYLINDER</text>
</g>
<!-- 0x5649d2392e60&#45;&gt;0x5649d2392660 -->
<g id="edge30" class="edge">
<title>0x5649d2392e60&#45;&gt;0x5649d2392660</title>
<path fill="none" stroke="black" d="M1790.28,-72.94C1809.42,-62.79 1834.3,-49.6 1854.66,-38.8"/>
<polygon fill="black" stroke="black" points="1856.46,-41.8 1863.66,-34.03 1853.18,-35.62 1856.46,-41.8"/>
</g>
</g>
</svg>
