<?xml version="1.0" encoding="UTF-8" standalone="no"?>
<!DOCTYPE svg PUBLIC "-//W3C//DTD SVG 1.1//EN"
 "http://www.w3.org/Graphics/SVG/1.1/DTD/svg11.dtd">
<!-- Generated by graphviz version 2.43.0 (0)
 -->
<!-- Title: BVH Pages: 1 -->
<svg width="270pt" height="116pt"
 viewBox="0.00 0.00 270.19 116.00" xmlns="http://www.w3.org/2000/svg" xmlns:xlink="http://www.w3.org/1999/xlink">
<g id="graph0" class="graph" transform="scale(1 1) rotate(0) translate(4 112)">
<title>BVH</title>
<polygon fill="white" stroke="transparent" points="-4,4 -4,-112 266.19,-112 266.19,4 -4,4"/>
<!-- 0x564202840700 -->
<g id="node1" class="node">
<title>0x564202840700</title>
<ellipse fill="none" stroke="black" cx="131.09" cy="-90" rx="92.08" ry="18"/>
<text text-anchor="middle" x="131.09" y="-86.3" font-family="Times,serif" font-size="14.00">0x564202840700</text>
</g>
<!-- 0x564202840500 -->
<g id="node2" class="node">
<title>0x564202840500</title>
<ellipse fill="none" stroke="black" cx="61.09" cy="-18" rx="61.19" ry="18"/>
<text text-anchor="middle" x="61.09" y="-14.3" font-family="Times,serif" font-size="14.00">TRIANGLE</text>
</g>
<!-- 0x564202840700&#45;&gt;0x564202840500 -->
<g id="edge1" class="edge">
<title>0x564202840700&#45;&gt;0x564202840500</title>
<path fill="none" stroke="black" d="M114.15,-72.05C105.47,-63.37 94.74,-52.64 85.21,-43.11"/>
<polygon fill="black" stroke="black" points="87.43,-40.39 77.88,-35.79 82.48,-45.33 87.43,-40.39"/>
</g>
<!-- 0x564202840600 -->
<g id="node3" class="node">
<title>0x564202840600</title>
<ellipse fill="none" stroke="black" cx="201.09" cy="-18" rx="61.19" ry="18"/>
<text text-anchor="middle" x="201.09" y="-14.3" font-family="Times,serif" font-size="14.00">TRIANGLE</text>
</g>
<!-- 0x564202840700&#45;&gt;0x564202840600 -->
<g id="edge2" class="edge">
<title>0x564202840700&#45;&gt;0x564202840600</title>
<path fill="none" stroke="black" d="M148.04,-72.05C156.72,-63.37 167.45,-52.64 176.98,-43.11"/>
<polygon fill="black" stroke="black" points="179.71,-45.33 184.31,-35.79 174.76,-40.39 179.71,-45.33"/>
</g>
</g>
</svg>
